<?xml version="1.0" encoding="utf-8"?>
<!-- Generator: Adobe Illustrator 27.5.0, SVG Export Plug-In . SVG Version: 6.00 Build 0)  -->
<svg version="1.1" xmlns="http://www.w3.org/2000/svg" xmlns:xlink="http://www.w3.org/1999/xlink" x="0px" y="0px"
	 viewBox="0 0 500 500" style="enable-background:new 0 0 500 500;" xml:space="preserve">
<g id="BACKGROUND">
	<rect style="fill:#FFFFFF;" width="500" height="500"/>
</g>
<g id="OBJECTS">
	<g>
		<g style="opacity:0.7;">
			<g>
				<path style="fill:#D7DBDD;" d="M154.586,171.333c-0.797-5.121-2.407-9.997-4.71-14.468l8.856-7.819l-14.118-15.985l-8.475,7.484
					c-4.406-3.326-9.417-5.921-14.863-7.563l0.74-11.93l-21.278-1.32l-0.731,11.747c-5.709,0.885-11.101,2.787-15.986,5.529
					l-7.932-8.987l-15.979,14.115l8.099,9.174c-2.847,4.062-5.078,8.591-6.555,13.471l-11.93-0.74l-1.318,21.285l11.745,0.725
					c0.735,4.735,2.169,9.253,4.193,13.435l-9.915,8.764l14.115,15.978l9.156-8.086c4.613,3.666,9.941,6.51,15.755,8.269
					l-0.739,11.93L114,237.659l0.731-11.747c6.094-0.948,11.836-3.052,16.968-6.095l7.783,8.809l15.985-14.118l-8.287-9.383
					c2.534-3.813,4.539-8.018,5.902-12.523l11.93,0.74l1.32-21.278L154.586,171.333z M131.668,180.327
					c-0.832,13.493-12.452,23.757-25.947,22.918c-13.493-0.832-23.756-12.452-22.924-25.945
					c0.839-13.495,12.458-23.759,25.953-22.92C122.243,155.213,132.507,166.832,131.668,180.327z"/>
			</g>
		</g>
		<g style="opacity:0.7;">
			<g>
				<path style="fill:#D7DBDD;" d="M239.901,90.212c0.602-4.064,0.531-8.133-0.159-12.06l8.543-3.834l-6.922-15.422l-8.177,3.669
					c-2.552-3.554-5.734-6.698-9.469-9.223l3.368-8.856l-15.795-6.008l-3.319,8.719c-4.529-0.674-9.058-0.504-13.401,0.422
					l-3.888-8.67l-15.417,6.923l3.971,8.85c-3.111,2.404-5.866,5.307-8.133,8.653l-8.856-3.368l-6.008,15.8l8.719,3.313
					c-0.559,3.757-0.537,7.514,0.011,11.156l-9.568,4.299l6.923,15.417l8.834-3.965c2.629,3.861,5.991,7.268,9.978,9.967
					l-3.368,8.856l15.8,6.008l3.319-8.719c4.836,0.717,9.677,0.477,14.277-0.619l3.817,8.5l15.422-6.923l-4.064-9.053
					c2.815-2.289,5.323-5,7.415-8.089l8.856,3.368l6.008-15.795L239.901,90.212z M220.438,91.624
					c-3.806,10.017-15.017,15.05-25.034,11.238c-10.017-3.806-15.05-15.017-11.243-25.034c3.812-10.017,15.022-15.05,25.039-11.238
					C219.216,70.397,224.249,81.608,220.438,91.624z"/>
			</g>
		</g>
		<g style="opacity:0.7;">
			<g>
				<path style="fill:#D7DBDD;" d="M453.281,224.172c0.602-4.064,0.531-8.133-0.159-12.06l8.544-3.834l-6.922-15.422l-8.177,3.669
					c-2.552-3.554-5.734-6.698-9.469-9.223l3.368-8.856l-15.795-6.008l-3.319,8.719c-4.529-0.674-9.058-0.504-13.401,0.422
					l-3.888-8.669l-15.417,6.922l3.97,8.85c-3.111,2.404-5.865,5.307-8.133,8.653l-8.856-3.368l-6.008,15.8l8.719,3.313
					c-0.559,3.757-0.537,7.514,0.011,11.156l-9.568,4.299l6.923,15.417l8.834-3.965c2.629,3.861,5.991,7.268,9.978,9.967
					l-3.368,8.856l15.8,6.008l3.319-8.719c4.836,0.718,9.677,0.477,14.277-0.619l3.817,8.5l15.422-6.923l-4.064-9.053
					c2.815-2.289,5.323-5,7.415-8.089l8.856,3.368L462,227.491L453.281,224.172z M433.817,225.585
					c-3.806,10.017-15.017,15.05-25.034,11.238c-10.017-3.806-15.05-15.017-11.243-25.034c3.812-10.017,15.022-15.05,25.039-11.238
					C432.596,204.357,437.629,215.568,433.817,225.585z"/>
			</g>
		</g>
		<g>
			<g>
				<rect x="107.292" y="104.577" style="fill:#6A89CC;" width="56.256" height="37.334"/>
			</g>
			<g>
				<polygon style="fill:#1E3799;" points="135.545,126.064 107.292,104.577 163.798,104.577 				"/>
			</g>
		</g>
	</g>
	<g>
		<g>
			<g>
				<path style="fill:#079992;" d="M173.095,410.362c18.957,0.337,33.669-19.25,34.13-38.205
					c0.461-18.954-9.609-36.547-21.092-51.634c-5.28-6.937-11.104-13.962-12.843-22.504c-1.815-8.918,1.12-18.061,1.37-27.158
					c0.301-10.931-3.448-21.927-10.364-30.397c-5.509-6.747-12.912-11.913-17.575-19.27c-9.831-15.511-6.319-38.679-20.698-50.103
					c-7.217-5.734-17.729-6.618-26.145-2.858c-8.416,3.76-14.618,11.762-16.952,20.68c-3.411,13.035,0.945,26.92-0.913,40.265
					c-3.017,21.661-21.951,39.5-21.551,61.366c0.311,17.031,12.557,32.849,9.99,49.688c-1.092,7.162-4.798,13.643-6.765,20.615
					c-1.362,4.831-3.35,22.181,7.098,37.919c12.488,18.81,34.268,21.427,37.561,21.769
					C129.93,417.145,151.513,413.753,173.095,410.362z"/>
			</g>
			<polyline style="fill:none;stroke:#FFFFFF;stroke-width:0.5;stroke-miterlimit:10;" points="104.674,166.642 120.879,266.507 
				129.532,319.84 132.609,338.815 144.94,414.779 144.942,414.79 			"/>
			
				<line style="fill:none;stroke:#FFFFFF;stroke-width:0.5;stroke-miterlimit:10;" x1="143.366" y1="214.492" x2="120.879" y2="266.507"/>
			
				<line style="fill:none;stroke:#FFFFFF;stroke-width:0.5;stroke-miterlimit:10;" x1="149.811" y1="225.366" x2="124.363" y2="284.202"/>
			
				<line style="fill:none;stroke:#FFFFFF;stroke-width:0.5;stroke-miterlimit:10;" x1="174.476" y1="265.403" x2="136.014" y2="354.353"/>
			
				<line style="fill:none;stroke:#FFFFFF;stroke-width:0.5;stroke-miterlimit:10;" x1="172.843" y1="294.941" x2="139.499" y2="372.048"/>
			
				<line style="fill:none;stroke:#FFFFFF;stroke-width:0.5;stroke-miterlimit:10;" x1="126.141" y1="302.234" x2="74.193" y2="251.48"/>
			<polyline style="fill:none;stroke:#FFFFFF;stroke-width:0.5;stroke-miterlimit:10;" points="69.323,261.013 129.532,319.84 
				129.625,319.929 			"/>
			<polyline style="fill:none;stroke:#FFFFFF;stroke-width:0.5;stroke-miterlimit:10;" points="64.26,272.034 132.609,338.815 
				133.52,339.707 			"/>
			
				<line style="fill:none;stroke:#FFFFFF;stroke-width:0.5;stroke-miterlimit:10;" x1="109.16" y1="205.02" x2="85.61" y2="182.009"/>
			
				<line style="fill:none;stroke:#FFFFFF;stroke-width:0.5;stroke-miterlimit:10;" x1="112.645" y1="222.715" x2="82.119" y2="192.893"/>
			
				<line style="fill:none;stroke:#FFFFFF;stroke-width:0.5;stroke-miterlimit:10;" x1="140.235" y1="390.285" x2="67.897" y2="319.607"/>
			
				<line style="fill:none;stroke:#FFFFFF;stroke-width:0.5;stroke-miterlimit:10;" x1="143.72" y1="407.98" x2="70.78" y2="336.718"/>
		</g>
		<g>
			<g>
				<path style="fill:#079992;" d="M406.203,426.565c9.569,2.062,18.975-6.393,21.099-15.948s-1.222-19.471-5.534-28.259
					c-1.982-4.041-4.232-8.18-4.261-12.681c-0.03-4.698,2.368-9.037,3.403-13.62c1.243-5.507,0.441-11.451-2.218-16.431
					c-2.118-3.967-5.352-7.322-6.98-11.514c-3.433-8.838,0.657-20.223-5.487-27.444c-3.084-3.625-8.32-5.121-12.959-4.056
					c-4.638,1.065-8.578,4.5-10.65,8.785c-3.028,6.263-2.206,13.731-4.479,20.305c-3.689,10.671-15.059,17.819-17.038,28.935
					c-1.541,8.658,3.084,17.892,0.104,26.166c-1.267,3.519-3.791,6.432-5.483,9.768c-1.172,2.311-3.909,10.902-0.187,19.916
					c4.449,10.774,15.221,14.272,16.855,14.774C383.661,425.695,394.932,426.13,406.203,426.565z"/>
			</g>
			<polyline style="fill:none;stroke:#FFFFFF;stroke-width:0.5;stroke-miterlimit:10;" points="395.854,296.285 394.102,348.487 
				393.165,376.366 392.831,386.285 391.5,425.995 391.5,426 			"/>
			
				<line style="fill:none;stroke:#FFFFFF;stroke-width:0.5;stroke-miterlimit:10;" x1="410.681" y1="324.383" x2="394.102" y2="348.487"/>
			
				<line style="fill:none;stroke:#FFFFFF;stroke-width:0.5;stroke-miterlimit:10;" x1="412.861" y1="330.533" x2="394.102" y2="357.799"/>
			
				<line style="fill:none;stroke:#FFFFFF;stroke-width:0.5;stroke-miterlimit:10;" x1="421.361" y1="353.275" x2="393.006" y2="394.496"/>
			
				<line style="fill:none;stroke:#FFFFFF;stroke-width:0.5;stroke-miterlimit:10;" x1="417.588" y1="368.074" x2="393.006" y2="403.807"/>
			
				<line style="fill:none;stroke:#FFFFFF;stroke-width:0.5;stroke-miterlimit:10;" x1="393.203" y1="367.11" x2="371.952" y2="336.219"/>
			<polyline style="fill:none;stroke:#FFFFFF;stroke-width:0.5;stroke-miterlimit:10;" points="368.534,340.562 393.165,376.366 
				393.203,376.421 			"/>
			<polyline style="fill:none;stroke:#FFFFFF;stroke-width:0.5;stroke-miterlimit:10;" points="364.87,345.639 392.831,386.285 
				393.203,386.828 			"/>
			
				<line style="fill:none;stroke:#FFFFFF;stroke-width:0.5;stroke-miterlimit:10;" x1="394.299" y1="316.172" x2="384.664" y2="302.167"/>
			
				<line style="fill:none;stroke:#FFFFFF;stroke-width:0.5;stroke-miterlimit:10;" x1="394.299" y1="325.483" x2="381.811" y2="307.332"/>
			
				<line style="fill:none;stroke:#FFFFFF;stroke-width:0.5;stroke-miterlimit:10;" x1="391.56" y1="413.118" x2="361.967" y2="370.1"/>
			
				<line style="fill:none;stroke:#FFFFFF;stroke-width:0.5;stroke-miterlimit:10;" x1="391.56" y1="422.429" x2="361.721" y2="379.055"/>
		</g>
	</g>
	<g>
		<g>
			<g>
				<path style="fill:#FFFFFF;" d="M260.452,417.533c-84.02,0-152.376-68.36-152.376-152.386c0-21.02,4.199-41.367,12.479-60.473
					c24.157-55.829,79.07-91.903,139.897-91.903c7.665,0,15.392,0.577,22.963,1.716c35.675,5.391,68.414,23.451,92.187,50.853
					c24.012,27.676,37.235,63.122,37.235,99.808C412.837,349.173,344.477,417.533,260.452,417.533z"/>
				<path d="M260.452,113.271c7.64,0,15.341,0.575,22.888,1.71c35.557,5.373,68.189,23.374,91.884,50.686
					c23.932,27.585,37.113,62.915,37.113,99.48c0,40.57-15.799,78.712-44.486,107.399c-28.687,28.687-66.829,44.486-107.4,44.486
					c-40.567,0-78.706-15.799-107.391-44.486c-28.686-28.687-44.485-66.829-44.485-107.399c0-20.952,4.185-41.231,12.438-60.274
					C145.092,149.227,199.824,113.271,260.452,113.271 M260.452,112.271c-62.866,0-116.881,37.953-140.356,92.205
					c-8.059,18.594-12.52,39.109-12.52,60.672c0,84.437,68.448,152.885,152.876,152.885c84.438,0,152.885-68.448,152.885-152.885
					c0-76.598-56.337-140.046-129.848-151.155C275.977,112.863,268.283,112.271,260.452,112.271L260.452,112.271z"/>
			</g>
			<g>
				<path style="fill:#82CCDD;" d="M299.834,166.906c0,51.803-41.987,93.789-93.789,93.789c-38.444,0-71.48-23.119-85.949-56.219
					c23.475-54.252,77.49-92.205,140.356-92.205c7.831,0,15.525,0.592,23.038,1.721
					C293.806,129.053,299.834,147.274,299.834,166.906z"/>
			</g>
			<g>
				<circle style="fill:#FAD390;" cx="260.224" cy="265.703" r="64.195"/>
			</g>
			<g>
				
					<ellipse transform="matrix(0.7071 -0.7071 0.7071 0.7071 -112.0272 262.17)" style="fill:#222F3E;" cx="260.454" cy="266.314" rx="9.882" ry="9.882"/>
				<rect x="259.314" y="162.808" style="fill:none;stroke:#000000;stroke-miterlimit:10;" width="2.732" height="103.805"/>
				
					<rect x="308.485" y="197.41" transform="matrix(0.297 0.9549 -0.9549 0.297 455.9053 -120.5955)" style="fill:none;stroke:#000000;stroke-miterlimit:10;" width="2.732" height="103.805"/>
				<circle style="fill:#222F3E;" cx="260.224" cy="160.987" r="6.829"/>
			</g>
			<path style="fill:#222F3E;" d="M266.143,129.572c0,3.017-2.446,5.463-5.463,5.463c-3.017,0-5.464-2.446-5.464-5.463
				c0-3.017,2.446-5.463,5.464-5.463C263.697,124.109,266.143,126.555,266.143,129.572z"/>
			<path style="fill:#222F3E;" d="M131.378,266.158c0,3.017-2.446,5.463-5.463,5.463c-3.017,0-5.464-2.446-5.464-5.463
				c0-3.017,2.446-5.464,5.464-5.464C128.932,260.695,131.378,263.141,131.378,266.158z"/>
			<path style="fill:#222F3E;" d="M266.143,404.565c0,3.017-2.446,5.463-5.463,5.463c-3.017,0-5.464-2.446-5.464-5.463
				c0-3.017,2.446-5.464,5.464-5.464C263.697,399.102,266.143,401.548,266.143,404.565z"/>
			<circle style="fill:#222F3E;" cx="399.087" cy="264.337" r="5.463"/>
		</g>
		<g>
			<g>
				<g>
					<g>
						<g>
							<rect x="78.417" y="325.297" style="fill:#1E3799;" width="127.925" height="97.292"/>
						</g>
						<g>
							<rect x="104.094" y="350.539" style="fill:#FFFFFF;" width="13.698" height="13.698"/>
							<rect x="88.342" y="350.539" style="fill:#FFFFFF;" width="13.698" height="13.698"/>
							<rect x="119.847" y="350.539" style="fill:#FFFFFF;" width="13.698" height="13.698"/>
							<rect x="135.6" y="350.539" style="fill:#FFFFFF;" width="13.698" height="13.698"/>
							<rect x="151.352" y="350.539" style="fill:#FFFFFF;" width="13.698" height="13.698"/>
							<rect x="167.105" y="350.539" style="fill:#FFFFFF;" width="13.698" height="13.698"/>
							<g>
								<rect x="182.858" y="350.539" style="fill:#B71540;" width="13.698" height="13.698"/>
							</g>
							<rect x="104.094" y="367.661" style="fill:#FFFFFF;" width="13.698" height="13.698"/>
							<rect x="88.342" y="367.661" style="fill:#FFFFFF;" width="13.698" height="13.698"/>
							<rect x="119.847" y="367.661" style="fill:#FFFFFF;" width="13.698" height="13.698"/>
							<rect x="135.6" y="367.661" style="fill:#FFFFFF;" width="13.698" height="13.698"/>
							<rect x="151.352" y="367.661" style="fill:#FFFFFF;" width="13.698" height="13.698"/>
							<rect x="167.105" y="367.661" style="fill:#FFFFFF;" width="13.698" height="13.698"/>
							<g>
								<rect x="182.858" y="367.661" style="fill:#B71540;" width="13.698" height="13.698"/>
							</g>
							<rect x="104.094" y="384.784" style="fill:#FFFFFF;" width="13.698" height="13.698"/>
							<rect x="88.342" y="384.784" style="fill:#FFFFFF;" width="13.698" height="13.698"/>
							<rect x="119.847" y="384.784" style="fill:#FFFFFF;" width="13.698" height="13.698"/>
							<rect x="135.6" y="384.784" style="fill:#FFFFFF;" width="13.698" height="13.698"/>
							<rect x="151.352" y="384.784" style="fill:#FFFFFF;" width="13.698" height="13.698"/>
							<rect x="167.105" y="384.784" style="fill:#FFFFFF;" width="13.698" height="13.698"/>
							<g>
								<rect x="182.858" y="384.784" style="fill:#B71540;" width="13.698" height="13.698"/>
							</g>
							<rect x="104.094" y="401.906" style="fill:#FFFFFF;" width="13.698" height="13.698"/>
							<rect x="88.342" y="401.906" style="fill:#FFFFFF;" width="13.698" height="13.698"/>
							<rect x="119.847" y="401.906" style="fill:#FFFFFF;" width="13.698" height="13.698"/>
							<rect x="135.6" y="401.906" style="fill:#FFFFFF;" width="13.698" height="13.698"/>
							<rect x="151.352" y="401.906" style="fill:#FFFFFF;" width="13.698" height="13.698"/>
							<rect x="167.105" y="401.906" style="fill:#FFFFFF;" width="13.698" height="13.698"/>
							<g>
								<rect x="182.858" y="401.906" style="fill:#B71540;" width="13.698" height="13.698"/>
							</g>
						</g>
						<g>
							<path style="fill:#6A89CC;" d="M78.418,315.374v28.55h127.926v-28.55H78.418z"/>
						</g>
						<g>
							<path style="fill:#A6B6D1;" d="M100.66,315.374c-0.199,1.31-0.783,2.567-1.771,3.585c-0.969,1-2.271,1.735-3.647,1.979
								c-0.717,0.124-1.523,0.053-2.195,0.358c-0.536,0.239-0.752,0.792-0.934,1.315c-0.385,1.107-0.748,2.315-1.974,2.727
								c-1.124,0.381-2.24-0.261-3.196-0.788c-0.819-0.447-1.859-1.071-2.736-0.412c-0.819,0.615-1.253,1.678-1.894,2.452
								c-0.788,0.947-1.926,1.403-3.125,0.974c-0.248-0.089-0.509-0.199-0.77-0.327v-1.571c0.035,0.022,0.071,0.044,0.106,0.066
								c0.576,0.35,1.319,0.881,2.023,0.606c0.854-0.332,1.332-1.443,1.837-2.138c0.553-0.757,1.23-1.47,2.191-1.642
								c1.098-0.195,2.107,0.336,3.036,0.846c0.668,0.367,1.735,1.115,2.461,0.474c0.717-0.637,0.744-1.881,1.217-2.687
								c0.73-1.231,1.983-1.35,3.28-1.492c1.257-0.137,2.434-0.721,3.324-1.62c0.748-0.753,1.222-1.704,1.421-2.704H100.66z"/>
						</g>
						<g>
							<path style="fill:#A6B6D1;" d="M109.965,343.924h-1.434c-0.239-0.483-0.597-0.916-1.005-1.257
								c-1.164-0.969-2.643-1.31-4.032-1.819c-1.142-0.416-2.266-0.996-2.89-2.089c-0.602-1.049-0.664-2.439-2.054-2.731
								c-1.27-0.265-2.514,0.337-3.661,0.792c-1.328,0.531-2.678,0.867-4.09,0.469c-2.275-0.642-3.815-2.669-6.038-3.391
								c-1.346-0.434-2.731-0.164-4.063,0.195c-0.761,0.208-1.514,0.434-2.28,0.611v-1.354c1.005-0.257,2.001-0.593,3.014-0.801
								c1.62-0.327,3.178-0.252,4.674,0.478c2.16,1.058,4.147,3.576,6.79,3.05c1.43-0.288,2.687-1.129,4.134-1.354
								c1.248-0.195,2.651-0.027,3.532,0.978c0.921,1.049,0.868,2.559,2.147,3.337c1.169,0.717,2.585,0.947,3.829,1.505
								c1.293,0.576,2.545,1.461,3.178,2.762C109.814,343.503,109.898,343.711,109.965,343.924z"/>
						</g>
						<g>
							<path style="fill:#A6B6D1;" d="M123.363,343.924h-2.944c-1.757-0.983-3.355-2.218-4.338-4.037
								c-0.668-1.239-0.925-2.585-0.766-3.984c0.159-1.408,0.664-2.895,0.283-4.307c-0.668-2.443-3.342-3.652-5.232-4.997
								c-2.147-1.523-3.807-3.559-3.528-6.343c0.186-1.881,1.071-3.479,2.24-4.882h1.771c-1.669,1.735-3.112,3.895-2.643,6.374
								c0.46,2.43,2.837,3.709,4.718,4.962c1.934,1.288,3.873,2.961,4.108,5.422c0.133,1.412-0.332,2.775-0.429,4.17
								c-0.084,1.279,0.274,2.448,0.983,3.506C118.941,341.826,121.203,342.936,123.363,343.924z"/>
						</g>
						<g>
							<path style="fill:#A6B6D1;" d="M166.998,343.924h-1.337c-0.128-0.881-0.668-1.359-1.54-1.523
								c-1.859-0.35-3.572-0.832-5.174-1.877c-1.359-0.89-2.412-2.041-3.435-3.284c-0.859-1.045-1.815-2.324-3.152-2.767
								c-1.492-0.491-2.828,0.358-3.966,1.239c-1.306,1.014-2.523,2.014-4.117,2.558c-1.647,0.562-3.435,0.66-5.165,0.589
								c-1.656-0.071-3.307-0.367-4.966-0.257c-1.554,0.102-2.983,0.735-3.678,2.2c-0.456,0.96-0.576,2.045-0.589,3.121h-1.315
								c0.018-1.461,0.217-2.952,0.978-4.196c1.053-1.717,2.926-2.386,4.856-2.465c1.824-0.08,3.634,0.275,5.458,0.288
								c1.917,0.018,3.891-0.239,5.555-1.257c1.434-0.872,2.581-2.182,4.134-2.873c1.492-0.659,3.125-0.513,4.466,0.425
								c1.324,0.93,2.244,2.275,3.293,3.479c1.204,1.385,2.7,2.488,4.426,3.134c0.868,0.323,1.748,0.482,2.651,0.646
								c0.868,0.155,1.616,0.527,2.103,1.279C166.803,342.875,166.963,343.397,166.998,343.924z"/>
						</g>
						<g>
							<path style="fill:#A6B6D1;" d="M167.706,315.374c0,0.403-0.035,0.81-0.102,1.213c-0.425,2.554-2.306,4.754-4.683,5.719
								c-2.426,0.991-5.294,0.097-7.591,1.452c-0.978,0.575-1.779,1.487-2.191,2.545c-0.235,0.606-0.381,1.239-0.854,1.718
								c-0.438,0.443-1.053,0.668-1.638,0.836c-2.315,0.677-4.887,0.359-6.998-0.792c-1.031-0.566-1.872-1.372-2.727-2.169
								c-0.814-0.761-1.735-1.593-2.904-1.669c-1.062-0.071-2.045,0.46-2.948,0.956c-0.965,0.536-1.925,1.12-2.997,1.421
								c-2.399,0.668-4.935-0.536-6.764-2.04c-2.7-2.222-4.285-5.71-4.236-9.189h1.323c-0.066,3.727,2.027,7.463,5.343,9.238
								c1.018,0.549,2.226,0.987,3.399,0.837c1.027-0.133,1.956-0.682,2.846-1.177c1.824-1.027,3.736-1.903,5.776-0.898
								c0.938,0.46,1.704,1.213,2.457,1.921c0.823,0.775,1.669,1.474,2.713,1.93c1.022,0.443,2.142,0.664,3.253,0.66
								c0.602-0.005,1.195-0.071,1.775-0.217c0.478-0.115,1.115-0.252,1.447-0.646c0.372-0.438,0.46-1.155,0.708-1.669
								c0.221-0.46,0.509-0.89,0.837-1.284c0.664-0.81,1.536-1.447,2.505-1.85c2.315-0.965,4.971-0.182,7.246-1.253
								c1.872-0.885,3.307-2.665,3.621-4.732c0.044-0.288,0.066-0.576,0.066-0.859H167.706z"/>
						</g>
						<g>
							<path style="fill:#A6B6D1;" d="M152.67,315.374c-0.093,0.651-0.27,1.288-0.566,1.899c-0.814,1.673-2.532,2.678-4.307,3.019
								c-2.173,0.416-4.351-0.075-6.489-0.456c-1.979-0.354-4.086-0.655-5.701-1.956c-0.81-0.646-1.439-1.532-1.726-2.505h1.399
								c0.412,0.921,1.288,1.673,2.187,2.111c1.58,0.77,3.444,0.93,5.152,1.244c1.74,0.319,3.572,0.629,5.316,0.168
								c1.492-0.39,2.766-1.332,3.236-2.846c0.066-0.221,0.119-0.452,0.159-0.677H152.67z"/>
						</g>
						<g>
							<path style="fill:#A6B6D1;" d="M178.135,322.301c-0.881,1.08-2.01,1.925-3.098,2.78c-1.288,1.014-2.514,2.111-3.652,3.289
								c-1.678,1.74-4.966,5.188-2.187,7.401c1.014,0.806,2.262,1.266,3.152,2.24c0.916,0.996,1.35,2.271,1.501,3.599
								c0.089,0.757,0.084,1.54,0.009,2.315H172.5c0.058-0.509,0.075-0.938,0.08-1.093c0.018-1.337-0.204-2.784-1.115-3.824
								c-0.806-0.921-1.996-1.377-2.957-2.102c-1.04-0.788-1.744-1.881-1.722-3.227c0.022-1.359,0.695-2.647,1.478-3.723
								c0.907-1.239,1.988-2.368,3.09-3.43c1.093-1.049,2.262-1.992,3.448-2.93c0.96-0.766,1.97-1.571,2.66-2.603
								c0.77-1.147,0.863-2.319,0.447-3.621c-0.221-0.677-0.496-1.332-0.722-1.996h1.377c0.332,0.93,0.761,1.841,0.898,2.82
								C179.671,319.733,179.091,321.123,178.135,322.301z"/>
						</g>
						<g>
							<path style="fill:#A6B6D1;" d="M206.344,331.574v1.332c-0.691,0.022-1.39-0.142-1.983-0.491
								c-0.881-0.513-1.368-1.39-1.956-2.182c-1.177-1.58-3.107-1.536-4.9-1.518c-1.607,0.018-3.386-0.102-4.688-1.155
								c-1.474-1.195-1.341-2.997-1.647-4.688c-0.142-0.779-0.434-1.417-1.027-1.948c-0.482-0.434-1.067-0.757-1.624-1.089
								c-1.12-0.664-2.328-1.403-2.753-2.713c-0.195-0.602-0.182-1.195-0.013-1.748h1.439c-0.336,0.735-0.257,1.576,0.438,2.244
								c0.832,0.797,1.956,1.23,2.877,1.908c1.182,0.867,1.806,1.952,2.005,3.408c0.204,1.452,0.133,3.112,1.607,3.9
								c1.31,0.704,2.899,0.536,4.329,0.549c1.531,0.018,3.143,0.217,4.329,1.279c1.129,1.014,1.598,2.877,3.373,2.921
								C206.216,331.583,206.278,331.583,206.344,331.574z"/>
						</g>
						<g>
							<path style="fill:#A6B6D1;" d="M206.344,340.613v1.319c-0.797,0-1.602,0.115-2.404,0.04c-1.647-0.15-2.736-1.071-3.532-2.465
								c-0.571-1.005-0.996-2.408-2.023-3.054c-1.324-0.828-2.859,0.367-4.028,0.947c-1.567,0.779-3.107,0.947-4.696,0.111
								c-1.629-0.854-2.789-2.417-4.502-3.129c-0.779-0.328-1.686-0.447-2.426,0.053c-0.739,0.5-1.182,1.381-1.611,2.138
								c-1.306,2.306-2.302,4.785-2.952,7.352h-1.359c0.248-1.054,0.558-2.094,0.925-3.116c0.788-2.2,1.775-4.541,3.196-6.418
								c0.562-0.739,1.293-1.363,2.226-1.549c0.983-0.199,1.952,0.049,2.842,0.469c1.757,0.832,2.957,2.576,4.785,3.262
								c1.819,0.686,3.329-0.668,4.927-1.337c1.456-0.615,3.045-0.487,4.139,0.744c0.956,1.08,1.324,2.519,2.209,3.634
								C203.144,340.976,204.799,340.621,206.344,340.613z"/>
						</g>
					</g>
					<g>
						<path style="fill:#1E3799;" d="M102.02,340.306L102.02,340.306c-3.694,0-6.689-2.995-6.689-6.689v-19.865
							c0-3.694,2.995-6.689,6.689-6.689l0,0c3.694,0,6.689,2.995,6.689,6.689v19.865
							C108.709,337.311,105.714,340.306,102.02,340.306z"/>
					</g>
					<g>
						<path style="fill:#1E3799;" d="M179.047,340.306L179.047,340.306c-3.694,0-6.689-2.995-6.689-6.689v-19.865
							c0-3.694,2.995-6.689,6.689-6.689l0,0c3.694,0,6.689,2.995,6.689,6.689v19.865
							C185.736,337.311,182.741,340.306,179.047,340.306z"/>
					</g>
				</g>
				<g>
					<g>
						<path style="fill:#B71540;" d="M127.448,369.011c-1.919,0.71-3.707,1.79-5.125,3.279c-1.36,1.428-2.338,3.466-1.575,5.437
							c0.437,1.13,1.287,1.916,2.441,2.291c0.932,0.303,2.019,0.292,2.986,0.204c2.033-0.185,4.186-0.993,5.197-2.904
							c0.602-1.137,0.719-2.524-0.062-3.611c-0.695-0.967-1.723-1.46-2.797-1.894c-0.73-0.295-1.68,0.32-1.845,1.048
							c-0.198,0.869,0.267,1.53,1.048,1.845c0.253,0.102,0.001-0.001-0.042-0.02c0.071,0.031,0.142,0.062,0.212,0.095
							c0.124,0.057,0.246,0.118,0.366,0.184c0.119,0.065,0.232,0.137,0.348,0.208c0.227,0.137,0.013,0.003-0.029-0.034
							c0.069,0.061,0.136,0.124,0.205,0.185c0.039,0.035,0.193,0.216,0.06,0.051c-0.125-0.155-0.016-0.005,0.007,0.022
							c0.191,0.225-0.014-0.074-0.011-0.072c0.03,0.024,0.049,0.163,0.062,0.208c-0.025-0.088,0.015-0.291-0.016-0.01
							c0.007-0.066,0.075-0.271-0.004,0.018c-0.018,0.067-0.046,0.136-0.06,0.203c-0.035,0.166,0.107-0.156-0.031,0.062
							c-0.051,0.081-0.302,0.461-0.103,0.208c-0.089,0.113-0.188,0.219-0.29,0.319c-0.076,0.075-0.351,0.291-0.121,0.126
							c-0.152,0.109-0.308,0.211-0.472,0.302c-0.095,0.052-0.416,0.203-0.146,0.09c-0.182,0.076-0.371,0.138-0.561,0.192
							c-0.166,0.047-0.335,0.087-0.504,0.12c-0.097,0.019-0.195,0.035-0.292,0.051c-0.108,0.017-0.098,0.015,0.03-0.005
							c-0.049,0.005-0.099,0.01-0.148,0.015c-0.37,0.02-0.736,0.045-1.106,0.042c-0.153-0.001-0.305-0.005-0.458-0.015
							c-0.087-0.006-0.175-0.013-0.262-0.022c0.216,0.023,0.088,0.012-0.052-0.019c-0.148-0.032-0.289-0.077-0.432-0.124
							c0.264,0.087,0.072,0.035,0.012-0.007c-0.07-0.049-0.146-0.086-0.215-0.137c0.284,0.207-0.126-0.192,0-0.026
							c0.121,0.159-0.019-0.042-0.044-0.085c-0.052-0.091-0.101-0.302-0.02-0.007c-0.035-0.13-0.07-0.265-0.11-0.393
							c-0.064-0.202,0.003,0.263,0.005,0.049c0.001-0.078-0.009-0.158-0.009-0.236c0-0.059,0.004-0.118,0.005-0.177
							c0.007-0.311-0.017,0.025-0.011,0.047c-0.036-0.14,0.114-0.413,0.15-0.545c0.044-0.161-0.012,0.027-0.026,0.053
							c0.039-0.079,0.076-0.158,0.118-0.236c0.085-0.156,0.181-0.303,0.278-0.451c0.009-0.014,0.136-0.195,0.04-0.063
							c-0.104,0.143,0.065-0.079,0.091-0.109c0.13-0.154,0.266-0.301,0.406-0.445c0.277-0.283,0.572-0.549,0.877-0.801
							c0.027-0.022,0.257-0.206,0.126-0.104c-0.121,0.094,0.197-0.144,0.189-0.138c0.153-0.111,0.31-0.217,0.468-0.32
							c0.357-0.232,0.726-0.444,1.106-0.636c0.169-0.086,0.34-0.166,0.512-0.244c0.27-0.123,0.092-0.039,0.033-0.016
							c0.132-0.053,0.264-0.103,0.397-0.152c0.734-0.271,1.312-1.028,1.048-1.845C129.06,369.34,128.236,368.72,127.448,369.011
							L127.448,369.011z"/>
					</g>
				</g>
				<g>
					<g>
						<path style="fill:#B71540;" d="M159.475,403.065c-1.919,0.71-3.707,1.79-5.125,3.279c-1.36,1.428-2.338,3.466-1.575,5.437
							c0.437,1.13,1.287,1.916,2.441,2.291c0.933,0.303,2.019,0.292,2.986,0.204c2.033-0.185,4.186-0.993,5.197-2.904
							c0.602-1.137,0.719-2.524-0.062-3.611c-0.695-0.967-1.723-1.46-2.797-1.894c-0.73-0.295-1.68,0.32-1.845,1.048
							c-0.198,0.869,0.267,1.53,1.048,1.845c0.253,0.102,0.001-0.001-0.042-0.02c0.071,0.031,0.142,0.062,0.212,0.095
							c0.124,0.058,0.246,0.118,0.366,0.183c0.119,0.065,0.232,0.137,0.348,0.208c0.227,0.138,0.013,0.003-0.029-0.034
							c0.069,0.061,0.136,0.124,0.205,0.185c0.039,0.035,0.193,0.216,0.06,0.051c-0.125-0.155-0.016-0.005,0.007,0.022
							c0.192,0.225-0.014-0.074-0.011-0.072c0.03,0.024,0.049,0.163,0.062,0.208c-0.025-0.088,0.014-0.291-0.016-0.01
							c0.007-0.066,0.075-0.272-0.004,0.018c-0.018,0.067-0.046,0.135-0.06,0.203c-0.035,0.166,0.107-0.156-0.03,0.062
							c-0.051,0.081-0.302,0.461-0.103,0.209c-0.089,0.113-0.188,0.219-0.29,0.319c-0.076,0.075-0.351,0.291-0.121,0.126
							c-0.152,0.109-0.308,0.211-0.471,0.302c-0.095,0.053-0.416,0.203-0.146,0.09c-0.182,0.076-0.371,0.138-0.561,0.192
							c-0.166,0.047-0.335,0.087-0.504,0.12c-0.097,0.019-0.195,0.035-0.292,0.051c-0.108,0.017-0.098,0.015,0.03-0.005
							c-0.049,0.005-0.099,0.01-0.148,0.015c-0.37,0.02-0.736,0.045-1.106,0.042c-0.153-0.001-0.305-0.005-0.458-0.015
							c-0.087-0.006-0.175-0.013-0.262-0.022c0.216,0.023,0.088,0.012-0.052-0.019c-0.148-0.032-0.289-0.077-0.432-0.124
							c0.264,0.087,0.072,0.035,0.012-0.007c-0.07-0.049-0.146-0.086-0.215-0.137c0.284,0.207-0.126-0.192,0-0.026
							c0.121,0.159-0.019-0.042-0.044-0.085c-0.052-0.091-0.101-0.302-0.02-0.007c-0.036-0.13-0.07-0.265-0.11-0.393
							c-0.064-0.203,0.003,0.262,0.005,0.049c0.001-0.078-0.009-0.158-0.009-0.236c0-0.059,0.004-0.118,0.005-0.177
							c0.007-0.311-0.017,0.025-0.011,0.047c-0.036-0.14,0.114-0.413,0.15-0.545c0.044-0.161-0.012,0.027-0.026,0.053
							c0.04-0.079,0.077-0.158,0.118-0.236c0.085-0.156,0.181-0.303,0.278-0.451c0.009-0.014,0.136-0.195,0.04-0.063
							c-0.104,0.143,0.065-0.079,0.091-0.109c0.13-0.154,0.266-0.301,0.406-0.445c0.277-0.283,0.572-0.549,0.877-0.801
							c0.027-0.022,0.257-0.206,0.126-0.104c-0.121,0.094,0.197-0.144,0.189-0.138c0.154-0.11,0.31-0.217,0.468-0.32
							c0.357-0.232,0.726-0.444,1.106-0.637c0.169-0.086,0.34-0.166,0.512-0.244c0.27-0.123,0.092-0.039,0.033-0.016
							c0.132-0.053,0.264-0.103,0.397-0.152c0.734-0.272,1.312-1.029,1.048-1.845C161.087,403.394,160.263,402.774,159.475,403.065
							L159.475,403.065z"/>
					</g>
				</g>
				<g>
					<g>
						<path style="fill:#F79F1F;" d="M110.614,381.78l-14.686,14.686l-6.959-6.959c-0.695-0.695-0.695-1.828,0-2.529
							c0.338-0.331,0.788-0.523,1.265-0.523c0.47,0,0.92,0.192,1.258,0.523l4.436,4.436l12.164-12.157
							c0.338-0.338,0.781-0.53,1.258-0.53c0.477,0,0.927,0.192,1.265,0.53C111.309,379.953,111.303,381.078,110.614,381.78z"/>
					</g>
				</g>
				<g>
					<g>
						<path style="fill:#F79F1F;" d="M189.846,346.812l-14.686,14.686l-6.959-6.959c-0.695-0.695-0.695-1.827,0-2.529
							c0.338-0.331,0.788-0.523,1.265-0.523c0.47,0,0.92,0.192,1.258,0.523l4.436,4.436l12.164-12.157
							c0.338-0.338,0.781-0.53,1.258-0.53c0.477,0,0.927,0.192,1.265,0.53C190.541,344.984,190.535,346.11,189.846,346.812z"/>
					</g>
				</g>
			</g>
			<g>
				<rect x="291.639" y="78.58" style="fill:#FFFFFF;" width="108.358" height="122.017"/>
				<g>
					<g>
						<g>
							<rect x="320.777" y="102.255" style="fill:#1E3799;" width="48.26" height="2.732"/>
						</g>
						<g>
							<rect x="320.777" y="116.824" style="fill:#1E3799;" width="48.26" height="2.732"/>
						</g>
						<g>
							<rect x="320.777" y="109.54" style="fill:#1E3799;" width="63.74" height="2.732"/>
						</g>
					</g>
					<g style="opacity:0.52;">
						<g>
							<rect x="320.777" y="132.304" style="fill:#1E3799;" width="48.26" height="2.732"/>
						</g>
						<g>
							<rect x="320.777" y="146.873" style="fill:#1E3799;" width="48.26" height="2.732"/>
						</g>
						<g>
							<rect x="320.777" y="139.589" style="fill:#1E3799;" width="63.74" height="2.732"/>
						</g>
					</g>
					<g style="opacity:0.52;">
						<g>
							<rect x="320.777" y="161.442" style="fill:#1E3799;" width="48.26" height="2.732"/>
						</g>
						<g>
							<rect x="320.777" y="176.012" style="fill:#1E3799;" width="48.26" height="2.732"/>
						</g>
						<g>
							<rect x="320.777" y="168.727" style="fill:#1E3799;" width="63.74" height="2.732"/>
						</g>
					</g>
					<g style="opacity:0.52;">
						<rect x="296.691" y="130.072" style="fill:#FFFFFF;" width="17.212" height="17.211"/>
						<path d="M313.403,130.572v16.212h-16.211v-16.212H313.403 M314.403,129.572h-18.211v18.212h18.211V129.572L314.403,129.572z"
							/>
					</g>
					<g style="opacity:0.52;">
						<rect x="296.691" y="159.211" style="fill:#FFFFFF;" width="17.212" height="17.212"/>
						<path d="M313.403,159.711v16.212h-16.211v-16.212H313.403 M314.403,158.711h-18.211v18.212h18.211V158.711L314.403,158.711z"
							/>
					</g>
					<g style="opacity:0.52;">
						<g>
							<path style="fill:#F79F1F;" d="M319.911,128.594l-14.686,14.686l-6.959-6.959c-0.695-0.695-0.695-1.827,0-2.529
								c0.338-0.331,0.788-0.523,1.265-0.523c0.47,0,0.92,0.192,1.258,0.523l4.436,4.436l12.164-12.157
								c0.338-0.338,0.781-0.53,1.258-0.53c0.477,0,0.927,0.192,1.265,0.53C320.607,126.767,320.6,127.893,319.911,128.594z"/>
						</g>
					</g>
					<g style="opacity:0.52;">
						<g>
							<path style="fill:#FAD390;" d="M319.911,159.554l-14.686,14.686l-6.959-6.959c-0.695-0.695-0.695-1.827,0-2.529
								c0.338-0.331,0.788-0.523,1.265-0.523c0.47,0,0.92,0.192,1.258,0.523l4.436,4.436l12.164-12.157
								c0.338-0.338,0.781-0.53,1.258-0.53c0.477,0,0.927,0.192,1.265,0.53C320.607,157.726,320.6,158.852,319.911,159.554z"/>
						</g>
					</g>
					<g>
						<rect x="295.737" y="101.8" style="fill:#6A89CC;" width="18.211" height="18.212"/>
					</g>
				</g>
			</g>
			<g>
				<g>
					<path style="fill:#1E3799;" d="M309.85,115.914h-9.106v-6.374c0-2.515,2.038-4.553,4.553-4.553l0,0
						c2.514,0,4.553,2.038,4.553,4.553V115.914z"/>
				</g>
				<path style="fill:#1E3799;" d="M307.119,115.914c0,1.006-0.815,1.821-1.821,1.821c-1.006,0-1.821-0.815-1.821-1.821
					c0-1.006,0.815-1.821,1.821-1.821C306.303,114.093,307.119,114.908,307.119,115.914z"/>
				<path style="fill:#1E3799;" d="M310.306,115.914h-10.016c-0.251,0-0.455-0.204-0.455-0.455l0,0c0-0.251,0.204-0.455,0.455-0.455
					h10.016c0.251,0,0.455,0.204,0.455,0.455l0,0C310.761,115.71,310.557,115.914,310.306,115.914z"/>
			</g>
			<g>
				<g>
					<ellipse style="fill:#B71540;" cx="366.761" cy="187.394" rx="24.13" ry="23.22"/>
				</g>
				<path style="fill:#FFFFFF;" d="M376.322,196.044h-18.212v-12.748c0-5.029,4.077-9.106,9.106-9.106l0,0
					c5.029,0,9.106,4.077,9.106,9.106V196.044z"/>
				<circle style="fill:#FFFFFF;" cx="367.216" cy="196.044" r="3.642"/>
				<path style="fill:#FFFFFF;" d="M377.643,196.044H356.79c-0.276,0-0.5-0.224-0.5-0.5v-0.821c0-0.276,0.224-0.5,0.5-0.5h20.854
					c0.276,0,0.5,0.224,0.5,0.5v0.821C378.143,195.82,377.92,196.044,377.643,196.044z"/>
				<rect x="366.306" y="169.638" style="fill:#FFFFFF;" width="1.821" height="7.285"/>
			</g>
			<g>
				<g>
					<path style="fill:#FFFFFF;" d="M203.713,184.536c0,5.588-2.239,10.653-5.892,14.337c-3.694,3.746-8.832,6.069-14.514,6.069
						c-5.264,0-10.067-1.999-13.688-5.264c-4.123-3.746-6.718-9.136-6.718-15.142c0-11.27,9.136-20.406,20.406-20.406
						C194.577,164.13,203.713,173.266,203.713,184.536z"/>
				</g>
				<g>
					<g>
						<path style="fill:#2C3E50;" d="M183.271,161.008c13.286,0,24.095,10.809,24.095,24.095c0,6.392-2.47,12.403-6.957,16.929
							c-4.557,4.621-10.643,7.167-17.138,7.167c-5.978,0-11.718-2.208-16.162-6.215c-5.042-4.581-7.934-11.098-7.934-17.881
							C159.176,171.818,169.985,161.008,183.271,161.008 M183.271,160.508c-13.584,0-24.595,11.011-24.595,24.595
							c0,7.24,3.128,13.736,8.098,18.251c4.364,3.935,10.153,6.344,16.498,6.344c6.849,0,13.042-2.8,17.494-7.316
							c4.402-4.44,7.101-10.544,7.101-17.28C207.866,171.52,196.855,160.508,183.271,160.508L183.271,160.508z"/>
					</g>
				</g>
				<g>
					<g>
						
							<ellipse transform="matrix(0.1606 -0.987 0.987 0.1606 -21.4891 331.3747)" style="fill:#1E3799;" cx="184.076" cy="178.321" rx="7.848" ry="7.849"/>
					</g>
					<g>
						<path style="fill:#1E3799;" d="M197.821,198.873c-3.694,3.746-8.832,6.069-14.514,6.069c-5.264,0-10.067-1.999-13.688-5.264
							c1.308-5.431,5.442-9.69,10.684-11.03c1.13-0.293,2.313-0.45,3.527-0.45c0.963,0,1.915,0.094,2.825,0.282
							C191.961,189.559,196.241,193.598,197.821,198.873z"/>
					</g>
				</g>
			</g>
		</g>
	</g>
	<rect x="73.033" y="422.777" style="fill:#222F3E;" width="361.566" height="7.911"/>
	<g>
		<g>
			<g>
				<g>
					
						<rect x="311.107" y="401.649" transform="matrix(0.0046 -1 1 0.0046 -89.088 724.2961)" style="fill:#F7AB9A;" width="16.324" height="10.496"/>
					<g>
						<g>
							<g>
								<g>
									<path style="fill:#FECA57;" d="M299.629,420.188l25.235,0.116l0-0.068l-25.099-0.115c-0.023,0.015-0.053,0.023-0.076,0.038
										C299.667,420.166,299.652,420.181,299.629,420.188z"/>
								</g>
								<g>
									<path style="fill:#FECA57;" d="M324.898,413.745l-0.03,6.493l-25.099-0.115L299.77,420c0.008-0.67,0.138-1.571,0.722-2.329
										c1.034-1.363,2.873-1.495,4.672-1.668c0.199-0.022,0.39-0.039,0.584-0.061c1.694-0.187,3.956-0.62,6.651-1.663l0.011-2.4
										c0.003-0.625,0.512-1.13,1.137-1.127c0.312,0.001,0.597,0.129,0.8,0.334c0.203,0.205,0.328,0.491,0.327,0.803l-0.009,2.069
										c0.994,0.389,2.324,0.767,3.917,0.878C321.469,415.037,323.728,414.251,324.898,413.745z"/>
								</g>
								<g>
									<path style="fill:#F79F1F;" d="M298.734,420.92L298.734,420.92c-0.002,0.444,0.385,0.806,0.865,0.809l25.521,0.117
										c0.48,0.002,0.871-0.356,0.873-0.8l0,0c0.002-0.444-0.385-0.806-0.865-0.809l-25.521-0.117
										C299.127,420.117,298.736,420.476,298.734,420.92z"/>
								</g>
							</g>
							
								<line style="fill:none;stroke:#2D3436;stroke-width:0.5;stroke-miterlimit:10;" x1="312.425" y1="415.336" x2="311.004" y2="414.219"/>
							
								<line style="fill:none;stroke:#2D3436;stroke-width:0.5;stroke-miterlimit:10;" x1="310.673" y1="415.911" x2="309.251" y2="414.794"/>
							
								<line style="fill:none;stroke:#2D3436;stroke-width:0.5;stroke-miterlimit:10;" x1="308.921" y1="416.487" x2="307.499" y2="415.37"/>
						</g>
					</g>
					<polygon style="fill:#222F3E;" points="324.453,409.736 314.008,404.962 314.047,401.156 324.624,401.247 					"/>
				</g>
				<g>
					
						<rect x="332.669" y="398.735" transform="matrix(1 -0.0046 0.0046 1 -1.8609 1.5527)" style="fill:#F7AB9A;" width="10.496" height="16.324"/>
					<g>
						<g>
							<g>
								<g>
									<path style="fill:#FECA57;" d="M357.557,420.188l-25.235,0.116l0-0.068l25.099-0.115c0.023,0.015,0.053,0.023,0.076,0.038
										C357.52,420.166,357.535,420.181,357.557,420.188z"/>
								</g>
								<g>
									<path style="fill:#FECA57;" d="M332.288,413.745l0.03,6.493l25.099-0.115L357.417,420c-0.008-0.67-0.138-1.571-0.721-2.329
										c-1.034-1.363-2.873-1.495-4.672-1.668c-0.199-0.022-0.39-0.039-0.584-0.061c-1.694-0.187-3.956-0.62-6.651-1.663
										l-0.011-2.4c-0.003-0.625-0.512-1.13-1.137-1.127c-0.312,0.001-0.597,0.129-0.8,0.334
										c-0.203,0.205-0.328,0.491-0.327,0.803l0.009,2.069c-0.994,0.389-2.324,0.767-3.917,0.878
										C335.718,415.037,333.459,414.251,332.288,413.745z"/>
								</g>
								<g>
									<path style="fill:#F79F1F;" d="M358.453,420.92L358.453,420.92c0.002,0.444-0.385,0.806-0.865,0.809l-25.521,0.117
										c-0.48,0.002-0.871-0.356-0.873-0.8l0,0c-0.002-0.444,0.385-0.806,0.865-0.809l25.521-0.117
										C358.06,420.117,358.451,420.476,358.453,420.92z"/>
								</g>
							</g>
							
								<line style="fill:none;stroke:#2D3436;stroke-width:0.5;stroke-miterlimit:10;" x1="344.762" y1="415.336" x2="346.183" y2="414.219"/>
							
								<line style="fill:none;stroke:#2D3436;stroke-width:0.5;stroke-miterlimit:10;" x1="346.514" y1="415.911" x2="347.935" y2="414.794"/>
							
								<line style="fill:none;stroke:#2D3436;stroke-width:0.5;stroke-miterlimit:10;" x1="348.266" y1="416.487" x2="349.688" y2="415.37"/>
						</g>
					</g>
					<polygon style="fill:#222F3E;" points="332.733,409.736 343.179,404.962 343.139,401.156 332.563,401.247 					"/>
				</g>
				<g>
					<g>
						<path style="fill:#6F1E51;" d="M340.418,220.555c-0.707,0.792-4.557,4.943-10.921,5.24c-7.224,0.337-11.781-4.569-12.383-5.24
							c0-2.497,0-4.994,0-7.491c0-6.435,5.217-11.652,11.652-11.652h0c6.435,0,11.652,5.217,11.652,11.652V220.555z"/>
					</g>
					<g>
						<rect x="325.577" y="223.097" style="fill:#F7AB9A;" width="6.586" height="10.518"/>
						<path style="fill:#222F3E;" d="M332.163,223.097v1.531c-1.171,1.246-2.754,2.007-4.495,2.007c-0.73,0-1.435-0.135-2.091-0.383
							v-3.155H332.163z"/>
					</g>
					<g>
						<path style="fill:#F7AB9A;" d="M340.373,216.93c0,1.553-1.259,2.811-2.811,2.811s-2.811-1.259-2.811-2.811
							c0-1.553,1.259-2.811,2.811-2.811S340.373,215.378,340.373,216.93z"/>
						<path style="fill:#F7AB9A;" d="M323.263,216.753c0,1.553-1.259,2.811-2.811,2.811c-1.553,0-2.811-1.259-2.811-2.811
							c0-1.553,1.259-2.811,2.811-2.811C322.004,213.942,323.263,215.201,323.263,216.753z"/>
						<path style="fill:#F7AB9A;" d="M336.234,215.753c0,5.038-3.245,9.114-7.244,9.114c-4.005,0-7.25-4.076-7.25-9.114
							c0-1.139,0.165-2.224,0.472-3.227c0.059-0.195,0.124-0.383,0.195-0.572c1.133-3.138,3.657-5.321,6.583-5.321
							c0.142,0,0.283,0.006,0.419,0.018c0.537,0.035,1.062,0.147,1.557,0.33C334.004,208.06,336.234,211.582,336.234,215.753z"/>
						<g>
							<path style="fill:#F78A77;" d="M338.887,218.036l-0.229-0.185c0.022-0.028,0.546-0.689,0.286-1.47
								c-0.2-0.601-0.781-1.024-1.445-1.055l0.014-0.294c0.785,0.035,1.474,0.54,1.712,1.256
								C339.533,217.22,338.913,218.003,338.887,218.036z"/>
						</g>
						<g>
							<path style="fill:#F78A77;" d="M319.331,218.036c-0.027-0.033-0.646-0.816-0.337-1.748c0.238-0.716,0.926-1.221,1.712-1.256
								l0.013,0.294c-0.665,0.03-1.245,0.454-1.445,1.055c-0.259,0.781,0.264,1.442,0.286,1.47L319.331,218.036z"/>
						</g>
					</g>
					<g>
						<path style="fill:#2D3436;" d="M330.825,216.035c0,0.367,0.157,0.664,0.35,0.664c0.193,0,0.35-0.297,0.35-0.664
							c0-0.367-0.157-0.664-0.35-0.664C330.982,215.371,330.825,215.669,330.825,216.035z"/>
						<path style="fill:#2D3436;" d="M325.921,216.035c0,0.367,0.157,0.664,0.35,0.664c0.193,0,0.35-0.297,0.35-0.664
							c0-0.367-0.157-0.664-0.35-0.664C326.078,215.371,325.921,215.669,325.921,216.035z"/>
						<polyline style="fill:none;stroke:#2D3436;stroke-width:0.25;stroke-miterlimit:10;" points="328.898,216.947 
							329.249,218.348 328.278,218.348 						"/>
						<path style="fill:#EE5A24;" d="M326.549,213.326l-3.01,0.593c-0.208,0.041-0.409-0.094-0.45-0.302l0,0
							c-0.041-0.208,0.094-0.409,0.302-0.45l3.01-0.593c0.208-0.041,0.409,0.094,0.45,0.302l0,0
							C326.892,213.083,326.757,213.285,326.549,213.326z"/>
						<path style="fill:#EE5A24;" d="M330.293,213.326l3.009,0.593c0.208,0.041,0.409-0.094,0.45-0.302l0,0
							c0.041-0.208-0.094-0.409-0.302-0.45l-3.009-0.593c-0.208-0.041-0.409,0.094-0.45,0.302l0,0
							C329.95,213.083,330.085,213.285,330.293,213.326z"/>
						<path style="fill:#FFFFFF;" d="M330.221,219.682c0,0.815-0.658,1.473-1.473,1.473c-0.815,0-1.473-0.658-1.473-1.473H330.221z"
							/>
					</g>
					<path style="fill:#EB4D4B;" d="M326.269,218.176c0,0.739-0.6,1.339-1.339,1.339c-0.739,0-1.339-0.599-1.339-1.339
						c0-0.74,0.6-1.339,1.339-1.339C325.67,216.837,326.269,217.436,326.269,218.176z"/>
					<path style="fill:#EB4D4B;" d="M335.424,218.176c0,0.739-0.599,1.339-1.339,1.339c-0.739,0-1.339-0.599-1.339-1.339
						c0-0.74,0.599-1.339,1.339-1.339C334.825,216.837,335.424,217.436,335.424,218.176z"/>
					<g>
						<path style="fill:#6F1E51;" d="M334.055,211.225c0-2.799-2.269-5.068-5.068-5.068c-2.799,0-5.068,2.269-5.068,5.068H334.055z"
							/>
					</g>
				</g>
				<g>
					<path style="fill:#F7AB9A;" d="M322.09,237.66c0,0.844-0.23,1.699-0.72,2.46l-12.807,20.01v0.006l-1.369,2.141l-0.378,0.584
						l-0.802,1.257c-1.363,2.129-4.194,2.749-6.318,1.386c-2.129-1.357-2.749-4.188-1.386-6.312l0.189-0.295l15.166-23.702
						c1.363-2.13,4.188-2.749,6.318-1.392C321.347,234.676,322.09,236.156,322.09,237.66z"/>
					<path style="fill:#F7AB9A;" d="M335.4,267.81c0.243,0.773,0.825,3.017-0.111,5.555c-0.587,1.595-1.524,2.65-2.111,3.214
						c-1.592-0.508-3.183-1.016-4.774-1.523c-0.583-0.182-1.168-0.373-1.751-0.555l-25.906-8.627
						c-1.585-0.525-2.693-1.843-3.026-3.369c-0.172-0.776-0.139-1.604,0.13-2.414c0.182-0.546,0.457-1.038,0.802-1.457
						c1.17-1.421,3.133-2.051,4.983-1.43l0.251,0.085l1.97,0.651l1.72,0.575l0.005,0.004l22.116,7.356
						c0.083,0.03,0.173,0.059,0.256,0.088c0.347,0.117,0.689,0.231,1.035,0.348C332.457,266.809,333.931,267.312,335.4,267.81z"/>
				</g>
				<g>
					<path style="fill:#F7AB9A;" d="M350.443,268.243L350.443,268.243c-2.432,0.68-4.955-0.74-5.635-3.172l-7.672-27.438
						c-0.68-2.432,0.74-4.955,3.172-5.635l0,0c2.432-0.68,4.955,0.74,5.635,3.172l7.672,27.438
						C354.295,265.04,352.875,267.563,350.443,268.243z"/>
				</g>
				<g>
					<g>
						<g>
							<g>
								<path style="fill:#6A89CC;" d="M356.478,253.26l-3.64,0.796l-11.373,2.489l-3.038,13.904h-19.142l-0.785-3.587l-1.286-5.893
									l-0.967-4.43l-6.005-1.316l-6.283-1.374l-2.696-0.59l9.509-18.317c1.186-2.283,3.545-3.716,6.117-3.716h23.968
									c2.572,0,4.926,1.434,6.111,3.716l7.014,13.509L356.478,253.26z"/>
							</g>
						</g>
						<g>
							<g>
								
									<rect x="329.404" y="259.076" transform="matrix(0.2138 -0.9769 0.9769 0.2138 14.6318 536.9218)" style="fill:#6A89CC;" width="22.981" height="0.59"/>
							</g>
						</g>
						<g>
							<g>
								
									<rect x="316.551" y="247.88" transform="matrix(0.977 -0.2134 0.2134 0.977 -48.0565 73.6002)" style="fill:#6A89CC;" width="0.59" height="22.981"/>
							</g>
						</g>
					</g>
					<g>
						<rect x="323.772" y="227.213" style="fill:#6A89CC;" width="10.82" height="6.658"/>
					</g>
				</g>
				<g>
					<g>
						<g>
							<path style="fill:#1E3799;" d="M353.023,321.882c-0.005,0.202-0.011,0.399-0.017,0.59c-0.031,1.109-0.067,2.041-0.101,2.772
								c-0.011,0.225-0.022,0.43-0.031,0.615c-0.017,0.357-0.034,0.643-0.045,0.848c-0.045,0.814-0.095,1.637-0.146,2.474
								c-0.017,0.264-0.034,0.534-0.051,0.8c-0.104,1.64-0.216,3.313-0.34,5.009c-0.02,0.267-0.039,0.534-0.062,0.803
								c-0.079,1.098-0.163,2.204-0.253,3.316c-0.014,0.202-0.031,0.404-0.048,0.609c-0.073,0.915-0.146,1.834-0.222,2.754
								c-0.017,0.194-0.034,0.388-0.051,0.584c-0.076,0.932-0.157,1.867-0.239,2.802c-0.017,0.188-0.034,0.376-0.048,0.562
								c-0.076,0.868-0.155,1.735-0.233,2.597c-0.017,0.185-0.034,0.371-0.051,0.559c-0.084,0.944-0.171,1.884-0.258,2.819
								c-0.02,0.188-0.036,0.373-0.053,0.559c-0.247,2.608-0.497,5.175-0.747,7.651c-0.017,0.188-0.036,0.376-0.053,0.562
								c-0.098,0.952-0.194,1.892-0.292,2.814c-0.017,0.188-0.036,0.376-0.053,0.561c-0.093,0.882-0.185,1.747-0.272,2.592
								c-0.02,0.188-0.039,0.373-0.059,0.559c-0.11,1.025-0.216,2.022-0.32,2.988h0.028l-0.955,9.112l-0.062,0.592l-0.295,2.825
								l-0.067,0.632l-0.385,3.673l-0.118,1.129l-0.309,2.951l-0.115,1.123l-0.385,3.67l-0.067,0.635l-0.295,2.822l-0.062,0.595
								l-0.506,4.818h-15.126v-19.268h-0.028v-91.378h-2.726v110.646h-15.126l-3.614-34.52l-0.006-0.056
								c-0.104-0.963-0.211-1.954-0.317-2.974c-0.02-0.185-0.039-0.371-0.059-0.559c-0.09-0.845-0.18-1.71-0.27-2.592
								c-0.02-0.185-0.039-0.371-0.059-0.559c-0.096-0.924-0.191-1.862-0.286-2.816c-0.02-0.185-0.039-0.371-0.056-0.559
								c-0.25-2.477-0.5-5.043-0.747-7.654c-0.017-0.185-0.036-0.373-0.053-0.561c-0.087-0.935-0.174-1.876-0.261-2.819
								c-0.017-0.188-0.034-0.373-0.051-0.559c-0.079-0.862-0.154-1.727-0.23-2.595c-0.017-0.185-0.034-0.374-0.048-0.562
								c-0.573-6.565-1.075-13.169-1.412-19.167c-0.025-0.466-0.073-1.328-0.121-2.533c-0.009-0.199-0.014-0.41-0.023-0.632
								c-0.031-0.887-0.062-1.929-0.081-3.1c-0.003-0.236-0.009-0.48-0.011-0.727c-0.042-3.027-0.025-6.837,0.149-11.156
								c0.011-0.244,0.022-0.489,0.034-0.733c0.034-0.781,0.073-1.575,0.118-2.384c0.014-0.239,0.025-0.472,0.039-0.705
								c0.011-0.213,0.025-0.424,0.037-0.629c0.039-0.691,0.078-1.348,0.115-1.977c0.008-0.096,0.014-0.188,0.02-0.281
								c0.331-5.38,0.688-8.696,1.808-12.386c0.57-1.876,1.457-4.279,2.903-7.009c0.048-0.093,0.098-0.185,0.152-0.281
								c1.929-3.572,4.824-7.674,9.215-11.83h19.209c4.507,4.265,7.435,8.471,9.367,12.111c0.05,0.095,0.101,0.188,0.149,0.281
								c1.359,2.614,2.207,4.92,2.755,6.728c1.14,3.754,1.491,7.121,1.828,12.667c0.006,0.093,0.011,0.185,0.017,0.281
								c0.056,0.944,0.112,1.949,0.174,3.03C353.143,312.208,353.121,317.996,353.023,321.882z"/>
						</g>
						<g>
							<polygon style="fill:#1E3799;" points="319.266,270.345 316.846,265.46 340.895,265.46 338.475,270.345 							"/>
						</g>
					</g>
				</g>
				<g>
					<path style="fill:#F7AB9A;" d="M348.592,267.789L348.592,267.789c-2.516-0.217-4.38-2.433-4.163-4.949
						c1.78-12.42,3.56-24.84,5.34-37.26c2.334,0.201,4.668,0.403,7.002,0.604c-1.077,12.481-2.154,24.961-3.231,37.442
						C353.324,266.143,351.108,268.007,348.592,267.789z"/>
				</g>
				<path style="fill:#F7AB9A;" d="M356.571,227.693l-6.644-0.438l0.548-8.305c0.121-1.835,1.706-3.224,3.541-3.103l0,0
					c1.835,0.121,3.224,1.706,3.103,3.541L356.571,227.693z"/>
				<path style="fill:#F7AB9A;" d="M352.801,223.298h-2.497V211.23c0-0.689,0.559-1.248,1.248-1.248l0,0
					c0.689,0,1.249,0.559,1.249,1.248V223.298z"/>
			</g>
		</g>
	</g>
</g>
</svg>
