<svg width="119" height="28" viewBox="0 0 119 28" fill="none" xmlns="http://www.w3.org/2000/svg">
<path d="M9.62772 27.728C9.19572 27.728 8.74772 27.676 8.28372 27.572C7.81972 27.476 7.38772 27.304 6.98772 27.056C6.58772 26.816 6.25972 26.488 6.00372 26.072C5.75572 25.664 5.63172 25.148 5.63172 24.524C5.63172 23.948 5.74772 23.408 5.97972 22.904C6.21172 22.4 6.53972 21.944 6.96372 21.536C7.39572 21.128 7.90372 20.784 8.48772 20.504C9.07172 20.224 9.71572 20.024 10.4197 19.904L10.6717 20.84C10.0877 20.944 9.54772 21.1 9.05172 21.308C8.55572 21.516 8.12372 21.772 7.75572 22.076C7.39572 22.372 7.11572 22.712 6.91572 23.096C6.71572 23.488 6.61572 23.916 6.61572 24.38C6.61572 24.756 6.67972 25.08 6.80772 25.352C6.93572 25.624 7.10372 25.848 7.31172 26.024C7.52772 26.208 7.76772 26.352 8.03172 26.456C8.29572 26.56 8.56372 26.632 8.83572 26.672C9.11572 26.72 9.37972 26.744 9.62772 26.744C10.0517 26.744 10.4837 26.704 10.9237 26.624C11.3637 26.552 11.7637 26.44 12.1237 26.288L12.4357 27.128C12.2437 27.224 11.9877 27.316 11.6677 27.404C11.3557 27.5 11.0197 27.576 10.6597 27.632C10.2997 27.696 9.95572 27.728 9.62772 27.728ZM7.64772 21.368C7.32772 21.288 7.03972 21.144 6.78372 20.936C6.52772 20.728 6.32372 20.48 6.17172 20.192C6.02772 19.904 5.95572 19.6 5.95572 19.28C5.95572 18.776 6.07172 18.356 6.30372 18.02C6.54372 17.684 6.84772 17.432 7.21572 17.264C7.59172 17.096 7.98772 17.012 8.40372 17.012C8.58772 17.012 8.78372 17.028 8.99172 17.06C9.19972 17.092 9.39972 17.14 9.59172 17.204L9.38772 18.128C9.22772 18.088 9.05972 18.056 8.88372 18.032C8.70772 18.008 8.54772 17.996 8.40372 17.996C8.11572 17.996 7.85972 18.048 7.63572 18.152C7.41172 18.256 7.23572 18.4 7.10772 18.584C6.97972 18.76 6.91572 18.968 6.91572 19.208C6.91572 19.424 6.97572 19.62 7.09572 19.796C7.22372 19.964 7.38372 20.112 7.57572 20.24C7.76772 20.36 7.96372 20.452 8.16372 20.516C8.36372 20.572 8.53972 20.596 8.69172 20.588L7.64772 21.368ZM8.41572 15.776C8.24772 15.776 8.10372 15.72 7.98372 15.608C7.87172 15.488 7.81572 15.348 7.81572 15.188C7.81572 15.028 7.87172 14.888 7.98372 14.768C8.10372 14.648 8.24772 14.588 8.41572 14.588C8.57572 14.588 8.71172 14.648 8.82372 14.768C8.94372 14.888 9.00372 15.028 9.00372 15.188C9.00372 15.348 8.94372 15.488 8.82372 15.608C8.71172 15.72 8.57572 15.776 8.41572 15.776ZM18.7818 23.06C18.3018 23.06 17.9058 23.02 17.5938 22.94C17.2898 22.86 17.0498 22.736 16.8738 22.568C16.7058 22.4 16.5858 22.188 16.5138 21.932C16.4498 21.668 16.4098 21.356 16.3938 20.996L16.1538 14.432H17.1378L17.3778 20.612C17.3938 21.004 17.4298 21.308 17.4858 21.524C17.5498 21.732 17.6858 21.876 17.8938 21.956C18.1098 22.036 18.4458 22.076 18.9018 22.076C19.0698 22.076 19.1898 22.124 19.2618 22.22C19.3418 22.308 19.3818 22.416 19.3818 22.544C19.3818 22.672 19.3258 22.792 19.2138 22.904C19.1018 23.008 18.9578 23.06 18.7818 23.06ZM13.2978 23.06C13.0818 23.06 12.8618 23.04 12.6378 23C12.4218 22.968 12.2698 22.944 12.1818 22.928L12.3138 21.98C12.8658 22.052 13.3858 22.064 13.8738 22.016C14.3618 21.968 14.7858 21.832 15.1458 21.608C15.5138 21.376 15.8018 21.028 16.0098 20.564C16.2178 20.1 16.3218 19.496 16.3218 18.752L16.8978 20.192C16.8018 20.696 16.6578 21.12 16.4658 21.464C16.2738 21.8 16.0498 22.076 15.7938 22.292C15.5458 22.5 15.2778 22.66 14.9898 22.772C14.7018 22.884 14.4138 22.96 14.1258 23C13.8378 23.04 13.5618 23.06 13.2978 23.06ZM15.9018 21.416C15.7738 21.168 15.5938 20.88 15.3618 20.552C15.1298 20.216 14.8498 19.852 14.5218 19.46C14.1938 19.068 13.8218 18.66 13.4058 18.236C12.9978 17.812 12.5538 17.384 12.0738 16.952L12.7218 16.268C13.2498 16.772 13.7178 17.244 14.1258 17.684C14.5418 18.116 14.9058 18.524 15.2178 18.908C15.5298 19.284 15.7978 19.628 16.0218 19.94C16.2458 20.252 16.4338 20.536 16.5858 20.792L15.9018 21.416ZM18.7773 23.06L18.8973 22.076C19.2893 22.076 19.6013 22.052 19.8333 22.004C20.0653 21.956 20.2333 21.86 20.3373 21.716C20.4413 21.564 20.4933 21.34 20.4933 21.044C20.4933 20.844 20.4613 20.608 20.3973 20.336C20.3333 20.056 20.2493 19.76 20.1453 19.448C20.0413 19.136 19.9293 18.828 19.8093 18.524L20.7813 18.164C20.8853 18.42 20.9813 18.712 21.0693 19.04C21.1653 19.368 21.2453 19.692 21.3093 20.012C21.3733 20.332 21.4053 20.612 21.4053 20.852C21.4053 21.172 21.3693 21.456 21.2973 21.704C21.2333 21.944 21.1333 22.152 20.9973 22.328C20.8613 22.496 20.6853 22.636 20.4693 22.748C20.2613 22.852 20.0173 22.932 19.7373 22.988C19.4573 23.036 19.1373 23.06 18.7773 23.06ZM20.0613 25.292C19.8933 25.292 19.7493 25.232 19.6293 25.112C19.5173 25 19.4613 24.864 19.4613 24.704C19.4613 24.544 19.5173 24.404 19.6293 24.284C19.7493 24.164 19.8933 24.104 20.0613 24.104C20.2213 24.104 20.3573 24.164 20.4693 24.284C20.5893 24.404 20.6493 24.544 20.6493 24.704C20.6493 24.864 20.5893 25 20.4693 25.112C20.3573 25.232 20.2213 25.292 20.0613 25.292Z" fill="#0A0F26" fill-opacity="0.7"/>
<path d="M31.56 21.1989C30.542 21.1989 29.6424 21.0237 28.8612 20.6733C28.0846 20.3229 27.4762 19.84 27.0359 19.2244C26.5955 18.6089 26.3777 17.9081 26.3825 17.1222C26.3777 16.5066 26.5032 15.9408 26.7589 15.4247C27.0193 14.9039 27.372 14.4706 27.8171 14.125C28.2622 13.7746 28.7594 13.5521 29.3086 13.4574V13.3722C28.5842 13.197 28.0041 12.8087 27.5685 12.2074C27.1329 11.6061 26.9175 10.9148 26.9222 10.1335C26.9175 9.39015 27.114 8.72727 27.5117 8.14489C27.9142 7.55776 28.4658 7.09612 29.1665 6.75994C29.8673 6.42377 30.6651 6.25568 31.56 6.25568C32.4454 6.25568 33.2362 6.42614 33.9322 6.76705C34.6329 7.10322 35.1845 7.56487 35.587 8.15199C35.9895 8.73437 36.1931 9.39489 36.1978 10.1335C36.1931 10.9148 35.9705 11.6061 35.5302 12.2074C35.0898 12.8087 34.5169 13.197 33.8114 13.3722V13.4574C34.3559 13.5521 34.846 13.7746 35.2816 14.125C35.7219 14.4706 36.0723 14.9039 36.3327 15.4247C36.5979 15.9408 36.7328 16.5066 36.7376 17.1222C36.7328 17.9081 36.5103 18.6089 36.07 19.2244C35.6296 19.84 35.0188 20.3229 34.2376 20.6733C33.4611 21.0237 32.5685 21.1989 31.56 21.1989ZM31.56 19.402C32.1613 19.402 32.6822 19.3026 33.1225 19.1037C33.5629 18.9001 33.9038 18.6184 34.1452 18.2585C34.3867 17.8939 34.5098 17.4678 34.5146 16.9801C34.5098 16.4735 34.3772 16.026 34.1168 15.6378C33.8612 15.2495 33.5131 14.9441 33.0728 14.7216C32.6325 14.4991 32.1282 14.3878 31.56 14.3878C30.9871 14.3878 30.4781 14.4991 30.033 14.7216C29.5879 14.9441 29.2376 15.2495 28.9819 15.6378C28.7262 16.026 28.6007 16.4735 28.6055 16.9801C28.6007 17.4678 28.7167 17.8939 28.9535 18.2585C29.195 18.6184 29.5382 18.9001 29.9833 19.1037C30.4284 19.3026 30.954 19.402 31.56 19.402ZM31.56 12.6335C32.043 12.6335 32.4715 12.5365 32.8455 12.3423C33.2196 12.1482 33.5131 11.8783 33.7262 11.5327C33.944 11.187 34.0553 10.7822 34.06 10.3182C34.0553 9.86364 33.9464 9.46591 33.7333 9.125C33.525 8.78409 33.2338 8.52131 32.8597 8.33665C32.4857 8.14725 32.0524 8.05256 31.56 8.05256C31.0581 8.05256 30.6178 8.14725 30.239 8.33665C29.8649 8.52131 29.5737 8.78409 29.3654 9.125C29.1571 9.46591 29.0553 9.86364 29.06 10.3182C29.0553 10.7822 29.1594 11.187 29.3725 11.5327C29.5856 11.8783 29.8791 12.1482 30.2532 12.3423C30.632 12.5365 31.0676 12.6335 31.56 12.6335ZM44.0831 21.1989C43.1929 21.1989 42.3928 21.0284 41.6825 20.6875C40.977 20.3419 40.4136 19.8684 39.9922 19.267C39.5708 18.6657 39.3459 17.9792 39.3175 17.2074H41.4482C41.5002 17.8324 41.7772 18.3461 42.2791 18.7486C42.781 19.151 43.3823 19.3523 44.0831 19.3523C44.6418 19.3523 45.1366 19.2244 45.5675 18.9688C46.0031 18.7083 46.344 18.3509 46.5902 17.8963C46.8411 17.4418 46.9666 16.9233 46.9666 16.3409C46.9666 15.7491 46.8388 15.2211 46.5831 14.7571C46.3274 14.2931 45.9747 13.9285 45.5249 13.6634C45.0798 13.3982 44.5684 13.2633 43.9908 13.2585C43.5504 13.2585 43.1077 13.3343 42.6626 13.4858C42.2176 13.6373 41.8577 13.8362 41.5831 14.0824L39.5732 13.7841L40.3899 6.45455H48.3871V8.33665H42.2152L41.7536 12.4062H41.8388C42.1229 12.1316 42.4993 11.902 42.968 11.7173C43.4415 11.5327 43.9482 11.4403 44.4879 11.4403C45.3733 11.4403 46.1617 11.651 46.853 12.0724C47.549 12.4938 48.0959 13.0691 48.4936 13.7983C48.8961 14.5227 49.0949 15.3561 49.0902 16.2983C49.0949 17.2405 48.8819 18.081 48.451 18.8196C48.0249 19.5582 47.433 20.1406 46.6754 20.5668C45.9226 20.9882 45.0585 21.1989 44.0831 21.1989ZM56.7624 21.1989C56.1138 21.1894 55.4746 21.071 54.8448 20.8438C54.2198 20.6165 53.6516 20.2377 53.1403 19.7074C52.6289 19.1771 52.2193 18.4645 51.9116 17.5696C51.6085 16.6747 51.457 15.5573 51.457 14.2173C51.457 12.9484 51.5825 11.8215 51.8335 10.8366C52.0891 9.8518 52.4561 9.02083 52.9343 8.34375C53.4125 7.66193 53.9902 7.14347 54.6673 6.78835C55.3443 6.43324 56.1043 6.25568 56.9471 6.25568C57.8136 6.25568 58.583 6.42614 59.2553 6.76705C59.9277 7.10795 60.4722 7.57907 60.8888 8.1804C61.3103 8.78172 61.5778 9.46591 61.6914 10.233H59.5252C59.3784 9.62689 59.0872 9.1321 58.6516 8.74858C58.216 8.36506 57.6478 8.1733 56.9471 8.1733C55.8817 8.1733 55.0508 8.63731 54.4542 9.56534C53.8623 10.4934 53.564 11.7836 53.5593 13.4361H53.6658C53.9168 13.0241 54.2246 12.6738 54.5891 12.3849C54.9585 12.0914 55.3704 11.8665 55.8249 11.7102C56.2842 11.5492 56.7672 11.4688 57.2738 11.4688C58.1166 11.4688 58.8789 11.6747 59.5607 12.0866C60.2473 12.4938 60.7942 13.0573 61.2013 13.777C61.6085 14.4967 61.8121 15.3205 61.8121 16.2486C61.8121 17.1766 61.6014 18.017 61.18 18.7699C60.7634 19.5227 60.1763 20.1193 59.4187 20.5597C58.6611 20.9953 57.7757 21.2083 56.7624 21.1989ZM56.7553 19.3523C57.314 19.3523 57.8136 19.215 58.2539 18.9403C58.6942 18.6657 59.0423 18.2964 59.2979 17.8324C59.5536 17.3684 59.6815 16.8499 59.6815 16.277C59.6815 15.7183 59.556 15.2093 59.305 14.75C59.0588 14.2907 58.7179 13.9261 58.2823 13.6562C57.8514 13.3864 57.359 13.2514 56.805 13.2514C56.3836 13.2514 55.993 13.3319 55.6332 13.4929C55.2781 13.6539 54.9656 13.8764 54.6957 14.1605C54.4258 14.4446 54.2127 14.7713 54.0565 15.1406C53.9049 15.5052 53.8292 15.8911 53.8292 16.2983C53.8292 16.8428 53.9547 17.3471 54.2056 17.8111C54.4613 18.2751 54.8093 18.6491 55.2496 18.9332C55.6947 19.2126 56.1966 19.3523 56.7553 19.3523Z" fill="#0A0F26"/>
<path d="M79.28 21.0334L74.9333 16.6868C74.42 16.1734 73.58 16.1734 73.0666 16.6868L68.72 21.0334" stroke="#E71F12" stroke-width="1.5" stroke-miterlimit="10" stroke-linecap="round" stroke-linejoin="round"/>
<path d="M87.9656 21.3636V20.9034C87.9656 20.5852 88.0309 20.294 88.1616 20.0298C88.2951 19.7628 88.4883 19.5497 88.7411 19.3906C88.9968 19.2287 89.3065 19.1477 89.6701 19.1477C90.0394 19.1477 90.3491 19.2287 90.5991 19.3906C90.8491 19.5497 91.038 19.7628 91.1658 20.0298C91.2937 20.294 91.3576 20.5852 91.3576 20.9034V21.3636C91.3576 21.6818 91.2923 21.9744 91.1616 22.2415C91.0337 22.5057 90.8434 22.7187 90.5906 22.8807C90.3406 23.0398 90.0337 23.1193 89.6701 23.1193C89.3008 23.1193 88.9897 23.0398 88.7369 22.8807C88.484 22.7187 88.2923 22.5057 88.1616 22.2415C88.0309 21.9744 87.9656 21.6818 87.9656 21.3636ZM88.8349 20.9034V21.3636C88.8349 21.6278 88.8974 21.8651 89.0224 22.0753C89.1474 22.2827 89.3633 22.3864 89.6701 22.3864C89.9684 22.3864 90.1786 22.2827 90.3008 22.0753C90.4258 21.8651 90.4883 21.6278 90.4883 21.3636V20.9034C90.4883 20.6392 90.4286 20.4034 90.3093 20.196C90.19 19.9858 89.9769 19.8807 89.6701 19.8807C89.3718 19.8807 89.1573 19.9858 89.0266 20.196C88.8988 20.4034 88.8349 20.6392 88.8349 20.9034ZM83.619 16.3693V15.9091C83.619 15.5909 83.6843 15.2997 83.815 15.0355C83.9485 14.7685 84.1417 14.5554 84.3945 14.3963C84.6502 14.2344 84.9599 14.1534 85.3235 14.1534C85.6928 14.1534 86.0025 14.2344 86.2525 14.3963C86.5025 14.5554 86.6914 14.7685 86.8192 15.0355C86.9471 15.2997 87.011 15.5909 87.011 15.9091V16.3693C87.011 16.6875 86.9457 16.9801 86.815 17.2472C86.6871 17.5114 86.4968 17.7244 86.244 17.8864C85.994 18.0455 85.6871 18.125 85.3235 18.125C84.9542 18.125 84.6431 18.0455 84.3903 17.8864C84.1374 17.7244 83.9457 17.5114 83.815 17.2472C83.6843 16.9801 83.619 16.6875 83.619 16.3693ZM84.4883 15.9091V16.3693C84.4883 16.6335 84.5508 16.8707 84.6758 17.081C84.8008 17.2884 85.0167 17.392 85.3235 17.392C85.6218 17.392 85.832 17.2884 85.9542 17.081C86.0792 16.8707 86.1417 16.6335 86.1417 16.3693V15.9091C86.1417 15.6449 86.082 15.4091 85.9627 15.2017C85.8434 14.9915 85.6303 14.8864 85.3235 14.8864C85.0252 14.8864 84.8107 14.9915 84.68 15.2017C84.5522 15.4091 84.4883 15.6449 84.4883 15.9091ZM83.9428 23L89.9428 14.2727H90.9144L84.9144 23H83.9428ZM99.4883 23.1193C98.8462 23.1193 98.2994 22.9446 97.8477 22.5952C97.396 22.2429 97.0508 21.733 96.8121 21.0653C96.5735 20.3949 96.4542 19.5852 96.4542 18.6364C96.4542 17.6932 96.5735 16.8878 96.8121 16.2202C97.0536 15.5497 97.4002 15.0384 97.8519 14.6861C98.3065 14.331 98.8519 14.1534 99.4883 14.1534C100.125 14.1534 100.669 14.331 101.12 14.6861C101.575 15.0384 101.922 15.5497 102.16 16.2202C102.402 16.8878 102.522 17.6932 102.522 18.6364C102.522 19.5852 102.403 20.3949 102.164 21.0653C101.926 21.733 101.581 22.2429 101.129 22.5952C100.677 22.9446 100.13 23.1193 99.4883 23.1193ZM99.4883 22.1818C100.125 22.1818 100.619 21.875 100.971 21.2614C101.324 20.6477 101.5 19.7727 101.5 18.6364C101.5 17.8807 101.419 17.2372 101.257 16.706C101.098 16.1747 100.868 15.7699 100.566 15.4915C100.268 15.2131 99.9087 15.0739 99.4883 15.0739C98.8576 15.0739 98.3647 15.3849 98.0096 16.0071C97.6545 16.6264 97.4769 17.5028 97.4769 18.6364C97.4769 19.392 97.5565 20.0341 97.7156 20.5625C97.8746 21.0909 98.1033 21.4929 98.4016 21.7685C98.7028 22.044 99.065 22.1818 99.4883 22.1818ZM104.587 23.0682C104.377 23.0682 104.196 22.9929 104.046 22.8423C103.895 22.6918 103.82 22.5114 103.82 22.3011C103.82 22.0909 103.895 21.9105 104.046 21.7599C104.196 21.6094 104.377 21.5341 104.587 21.5341C104.797 21.5341 104.978 21.6094 105.128 21.7599C105.279 21.9105 105.354 22.0909 105.354 22.3011C105.354 22.4403 105.319 22.5682 105.248 22.6847C105.179 22.8011 105.087 22.8949 104.971 22.9659C104.857 23.0341 104.729 23.0682 104.587 23.0682ZM109.735 23.1193C109.377 23.1136 109.019 23.0455 108.661 22.9148C108.303 22.7841 107.976 22.5639 107.681 22.2543C107.385 21.9418 107.148 21.5199 106.969 20.9886C106.79 20.4545 106.701 19.7841 106.701 18.9773C106.701 18.2045 106.773 17.5199 106.918 16.9233C107.063 16.3239 107.273 15.8196 107.549 15.4105C107.824 14.9986 108.157 14.6861 108.546 14.473C108.938 14.2599 109.38 14.1534 109.871 14.1534C110.36 14.1534 110.794 14.2514 111.175 14.4474C111.559 14.6406 111.871 14.9105 112.113 15.2571C112.354 15.6037 112.51 16.0028 112.581 16.4545H111.542C111.445 16.0625 111.257 15.7372 110.979 15.4787C110.701 15.2202 110.331 15.0909 109.871 15.0909C109.195 15.0909 108.662 15.3849 108.273 15.973C107.887 16.5611 107.692 17.3864 107.689 18.4489H107.757C107.917 18.2074 108.105 18.0014 108.324 17.831C108.546 17.6577 108.79 17.5241 109.057 17.4304C109.324 17.3366 109.607 17.2898 109.905 17.2898C110.405 17.2898 110.863 17.4148 111.277 17.6648C111.692 17.9119 112.025 18.2543 112.275 18.6918C112.525 19.1264 112.65 19.625 112.65 20.1875C112.65 20.7273 112.529 21.2216 112.287 21.6705C112.046 22.1165 111.706 22.4716 111.269 22.7358C110.834 22.9972 110.323 23.125 109.735 23.1193ZM109.735 22.1818C110.093 22.1818 110.414 22.0923 110.698 21.9134C110.985 21.7344 111.211 21.4943 111.375 21.1932C111.543 20.892 111.627 20.5568 111.627 20.1875C111.627 19.8267 111.546 19.4986 111.384 19.2031C111.225 18.9048 111.005 18.6676 110.723 18.4915C110.445 18.3153 110.127 18.2273 109.769 18.2273C109.499 18.2273 109.248 18.2812 109.015 18.3892C108.782 18.4943 108.577 18.6392 108.401 18.8239C108.228 19.0085 108.091 19.2202 107.992 19.4588C107.892 19.6946 107.843 19.9432 107.843 20.2045C107.843 20.5511 107.924 20.875 108.086 21.1761C108.25 21.4773 108.475 21.7202 108.759 21.9048C109.046 22.0895 109.371 22.1818 109.735 22.1818ZM117.393 14.2727V23H116.337V15.3807H116.286L114.155 16.7955V15.7216L116.337 14.2727H117.393Z" fill="#E71F12"/>
</svg>
