<svg width="39" height="11" viewBox="0 0 39 11" fill="none" xmlns="http://www.w3.org/2000/svg">
<path d="M0.938813 10.248L0.532812 9.184C1.21415 8.96 1.77881 8.70333 2.22681 8.414C2.68415 8.12467 3.04348 7.81667 3.30481 7.49C3.57548 7.16333 3.76681 6.832 3.87881 6.496C3.99081 6.15067 4.04681 5.81933 4.04681 5.502C4.04681 5.04467 3.94415 4.58267 3.73881 4.116C3.54281 3.64 3.32348 3.192 3.08081 2.772L4.10281 2.254C4.28015 2.58067 4.43415 2.90267 4.56481 3.22C4.70481 3.53733 4.82615 3.836 4.92881 4.116C5.04081 4.396 5.12948 4.65267 5.19481 4.886C5.32548 5.28733 5.49348 5.56267 5.69881 5.712C5.91348 5.852 6.20281 5.922 6.56681 5.922C6.76281 5.922 6.90281 5.978 6.98681 6.09C7.08015 6.19267 7.12681 6.31867 7.12681 6.468C7.12681 6.61733 7.06148 6.75733 6.93081 6.888C6.80015 7.00933 6.63215 7.07 6.42681 7.07C6.01615 7.07 5.68015 7 5.41881 6.86C5.16681 6.71067 4.97548 6.51933 4.84481 6.286C4.71415 6.04333 4.62548 5.79133 4.57881 5.53L5.02681 5.782C5.02681 6.398 4.88681 6.958 4.60681 7.462C4.33615 7.97533 3.98615 8.41867 3.55681 8.792C3.12748 9.17467 2.67948 9.48733 2.21281 9.73C1.74615 9.97267 1.32148 10.1453 0.938813 10.248ZM6.43359 7.07L6.57359 5.922C6.83493 5.922 7.04026 5.866 7.18959 5.754C7.34826 5.642 7.49759 5.45533 7.63759 5.194C7.78693 4.93267 7.97359 4.58267 8.19759 4.144C8.42159 3.696 8.64559 3.332 8.86959 3.052C9.10293 2.76267 9.32693 2.53867 9.54159 2.38C9.76559 2.212 9.97559 2.09533 10.1716 2.03C10.3676 1.96467 10.5496 1.932 10.7176 1.932C11.0256 1.932 11.3009 2.002 11.5436 2.142C11.7863 2.27267 12.0149 2.50133 12.2296 2.828C12.4443 3.14533 12.6636 3.584 12.8876 4.144C13.1023 4.65733 13.2936 5.04467 13.4616 5.306C13.6389 5.558 13.8209 5.726 14.0076 5.81C14.2036 5.88467 14.4229 5.922 14.6656 5.922C14.8616 5.922 15.0016 5.978 15.0856 6.09C15.1789 6.19267 15.2256 6.31867 15.2256 6.468C15.2256 6.61733 15.1603 6.75733 15.0296 6.888C14.8989 7.00933 14.7309 7.07 14.5256 7.07C14.1616 7.07 13.8256 7.00933 13.5176 6.888C13.2189 6.76667 12.9669 6.57533 12.7616 6.314L12.9576 6.02C12.8549 6.30933 12.7149 6.54733 12.5376 6.734C12.3696 6.91133 12.1783 7.042 11.9636 7.126C11.7489 7.21933 11.5203 7.266 11.2776 7.266C10.9696 7.266 10.6523 7.20067 10.3256 7.07C10.0083 6.93933 9.70026 6.75267 9.40159 6.51C9.10293 6.26733 8.84159 5.98267 8.61759 5.656C8.37493 6.08533 8.14159 6.40267 7.91759 6.608C7.70293 6.804 7.47893 6.93 7.24559 6.986C7.01226 7.042 6.74159 7.07 6.43359 7.07ZM9.14959 4.592C9.30826 4.85333 9.47626 5.082 9.65359 5.278C9.84026 5.474 10.0269 5.63733 10.2136 5.768C10.4003 5.88933 10.5823 5.98267 10.7596 6.048C10.9463 6.104 11.1143 6.132 11.2636 6.132C11.5903 6.132 11.8283 6.01533 11.9776 5.782C12.1363 5.54867 12.1316 5.222 11.9636 4.802C11.8796 4.58733 11.7909 4.37733 11.6976 4.172C11.6136 3.96667 11.5203 3.78 11.4176 3.612C11.3149 3.43467 11.1983 3.29933 11.0676 3.206C10.9369 3.10333 10.7923 3.052 10.6336 3.052C10.4936 3.052 10.3443 3.09867 10.1856 3.192C10.0363 3.28533 9.87293 3.444 9.69559 3.668C9.52759 3.892 9.34559 4.2 9.14959 4.592ZM14.5273 7.07L14.6673 5.922C15.134 5.922 15.498 5.88933 15.7593 5.824C16.0207 5.74933 16.2167 5.614 16.3473 5.418C16.4873 5.21267 16.5993 4.91867 16.6833 4.536C16.7673 4.15333 16.87 3.654 16.9913 3.038L18.0833 3.248C18.046 3.416 18.004 3.60267 17.9573 3.808C17.9107 4.01333 17.8687 4.21867 17.8313 4.424C17.8033 4.62 17.7893 4.79267 17.7893 4.942C17.7893 5.082 17.7987 5.21267 17.8173 5.334C17.836 5.45533 17.906 5.558 18.0273 5.642C18.1487 5.726 18.354 5.796 18.6433 5.852C18.9327 5.89867 19.348 5.922 19.8893 5.922C20.0853 5.922 20.2253 5.978 20.3093 6.09C20.4027 6.19267 20.4493 6.31867 20.4493 6.468C20.4493 6.61733 20.384 6.75733 20.2533 6.888C20.1227 7.00933 19.9547 7.07 19.7493 7.07C19.18 7.07 18.7273 7.042 18.3913 6.986C18.0553 6.92067 17.7987 6.82733 17.6213 6.706C17.4533 6.58467 17.332 6.43533 17.2573 6.258C17.192 6.07133 17.1407 5.85667 17.1033 5.614L17.5233 5.642C17.374 5.94067 17.2107 6.18333 17.0333 6.37C16.8653 6.55667 16.6693 6.70133 16.4453 6.804C16.2213 6.90667 15.9507 6.97667 15.6333 7.014C15.3253 7.05133 14.9567 7.07 14.5273 7.07ZM18.2653 1.596C18.0693 1.596 17.9013 1.53067 17.7613 1.4C17.6307 1.26 17.5653 1.09667 17.5653 0.91C17.5653 0.723333 17.6307 0.56 17.7613 0.42C17.9013 0.28 18.0693 0.21 18.2653 0.21C18.452 0.21 18.6107 0.28 18.7413 0.42C18.8813 0.56 18.9513 0.723333 18.9513 0.91C18.9513 1.09667 18.8813 1.26 18.7413 1.4C18.6107 1.53067 18.452 1.596 18.2653 1.596ZM16.3473 1.596C16.1513 1.596 15.9833 1.53067 15.8433 1.4C15.7127 1.26 15.6473 1.09667 15.6473 0.91C15.6473 0.723333 15.7127 0.56 15.8433 0.42C15.9833 0.28 16.1513 0.21 16.3473 0.21C16.534 0.21 16.6927 0.28 16.8233 0.42C16.9633 0.56 17.0333 0.723333 17.0333 0.91C17.0333 1.09667 16.9633 1.26 16.8233 1.4C16.6927 1.53067 16.534 1.596 16.3473 1.596ZM19.75 7.07L19.89 5.922C20.1887 5.922 20.4313 5.90333 20.618 5.866C20.8047 5.81933 20.9587 5.712 21.08 5.544C21.2107 5.36667 21.332 5.09133 21.444 4.718C21.556 4.34467 21.6867 3.822 21.836 3.15L22.886 3.444C22.83 3.67733 22.7647 3.95733 22.69 4.284C22.6153 4.61067 22.578 4.90933 22.578 5.18C22.578 5.32933 22.6153 5.46 22.69 5.572C22.7647 5.684 22.8907 5.77267 23.068 5.838C23.2547 5.894 23.502 5.922 23.81 5.922C24.09 5.922 24.3187 5.89867 24.496 5.852C24.6733 5.80533 24.818 5.69333 24.93 5.516C25.0513 5.33867 25.1587 5.054 25.252 4.662C25.3453 4.27 25.4433 3.73333 25.546 3.052L26.61 3.248C26.582 3.416 26.5493 3.62133 26.512 3.864C26.4747 4.10667 26.4373 4.34933 26.4 4.592C26.372 4.82533 26.358 5.02133 26.358 5.18C26.358 5.31067 26.386 5.43667 26.442 5.558C26.5073 5.67 26.6287 5.75867 26.806 5.824C26.9927 5.88933 27.268 5.922 27.632 5.922C28.0987 5.922 28.4347 5.824 28.64 5.628C28.8547 5.432 28.962 5.13333 28.962 4.732C28.962 4.51733 28.9573 4.29333 28.948 4.06C28.9387 3.81733 28.92 3.55133 28.892 3.262C28.8733 2.96333 28.8407 2.62267 28.794 2.24L29.816 2.17C29.872 2.926 29.9327 3.54667 29.998 4.032C30.0727 4.51733 30.1753 4.9 30.306 5.18C30.446 5.45067 30.6327 5.642 30.866 5.754C31.0993 5.866 31.4073 5.922 31.79 5.922C31.986 5.922 32.126 5.978 32.21 6.09C32.3033 6.19267 32.35 6.31867 32.35 6.468C32.35 6.61733 32.2847 6.75733 32.154 6.888C32.0233 7.00933 31.8553 7.07 31.65 7.07C31.3327 7.07 31.048 7.028 30.796 6.944C30.5533 6.85067 30.3387 6.72933 30.152 6.58C29.9747 6.42133 29.8253 6.244 29.704 6.048C29.592 5.84267 29.5127 5.628 29.466 5.404L29.718 5.488C29.6153 5.908 29.452 6.23467 29.228 6.468C29.0133 6.692 28.7567 6.85067 28.458 6.944C28.1593 7.028 27.842 7.07 27.506 7.07C27.0953 7.07 26.7593 7.01867 26.498 6.916C26.2367 6.81333 26.0313 6.65933 25.882 6.454C25.742 6.23933 25.6487 5.96867 25.602 5.642H26.078C25.9007 6.04333 25.714 6.34667 25.518 6.552C25.322 6.75733 25.0793 6.89733 24.79 6.972C24.5007 7.03733 24.118 7.07 23.642 7.07C23.4087 7.07 23.1567 7.03267 22.886 6.958C22.6247 6.88333 22.396 6.73867 22.2 6.524C22.004 6.3 21.8873 5.96867 21.85 5.53L22.27 5.446C22.1113 5.922 21.9153 6.27667 21.682 6.51C21.458 6.734 21.1873 6.88333 20.87 6.958C20.5527 7.03267 20.1793 7.07 19.75 7.07ZM31.6445 7.07L31.7845 5.922C32.0459 5.922 32.2652 5.866 32.4425 5.754C32.6199 5.642 32.7925 5.45533 32.9605 5.194C33.1285 4.93267 33.3105 4.58267 33.5065 4.144C33.7772 3.54667 34.0432 3.094 34.3045 2.786C34.5752 2.478 34.8412 2.268 35.1025 2.156C35.3732 2.044 35.6392 1.988 35.9005 1.988C36.2179 1.988 36.5119 2.072 36.7825 2.24C37.0532 2.39867 37.2912 2.61333 37.4965 2.884C37.7019 3.15467 37.8605 3.45333 37.9725 3.78C38.0939 4.09733 38.1545 4.41467 38.1545 4.732C38.1545 5.292 38.0565 5.74 37.8605 6.076C37.6645 6.40267 37.4125 6.64067 37.1045 6.79C36.8059 6.93 36.4932 7 36.1665 7C35.8772 7 35.5039 6.944 35.0465 6.832C34.5985 6.72 34.0292 6.43533 33.3385 5.978L33.8845 5.096C34.3419 5.38533 34.7525 5.586 35.1165 5.698C35.4899 5.80067 35.7979 5.852 36.0405 5.852C36.3112 5.852 36.5259 5.81467 36.6845 5.74C36.8432 5.656 36.9599 5.53933 37.0345 5.39C37.1092 5.24067 37.1465 5.07267 37.1465 4.886C37.1465 4.61533 37.0812 4.34467 36.9505 4.074C36.8199 3.80333 36.6519 3.57933 36.4465 3.402C36.2505 3.22467 36.0405 3.136 35.8165 3.136C35.6485 3.136 35.4852 3.18267 35.3265 3.276C35.1679 3.36933 35.0045 3.542 34.8365 3.794C34.6685 4.046 34.4772 4.41 34.2625 4.886C34.0385 5.39 33.8239 5.79133 33.6185 6.09C33.4225 6.37933 33.2219 6.594 33.0165 6.734C32.8112 6.874 32.5965 6.96267 32.3725 7C32.1579 7.04667 31.9152 7.07 31.6445 7.07Z" fill="#F7752C"/>
</svg>
