<svg width="73" height="31" viewBox="0 0 73 31" fill="none" xmlns="http://www.w3.org/2000/svg">
<rect x="0.5" y="0.5" width="72" height="30" rx="3.5" fill="white"/>
<rect x="0.5" y="0.5" width="72" height="30" rx="3.5" stroke="#FDE4D6"/>
<path d="M22.4802 24.465L21.7152 22.605C22.2452 22.425 22.7302 22.215 23.1702 21.975C23.6202 21.735 24.0102 21.47 24.3402 21.18C24.6702 20.89 24.9252 20.575 25.1052 20.235C25.2852 19.885 25.3752 19.51 25.3752 19.11C25.3752 18.69 25.2802 18.23 25.0902 17.73C24.9002 17.23 24.6702 16.72 24.4002 16.2L26.3652 15.255C26.5452 15.565 26.7002 15.9 26.8302 16.26C26.9702 16.61 27.0852 16.925 27.1752 17.205C27.2652 17.485 27.3252 17.675 27.3552 17.775C27.4952 18.255 27.6852 18.575 27.9252 18.735C28.1752 18.895 28.5752 18.975 29.1252 18.975C29.5052 18.975 29.7752 19.075 29.9352 19.275C30.1052 19.465 30.1902 19.705 30.1902 19.995C30.1902 20.305 30.0852 20.565 29.8752 20.775C29.6652 20.975 29.3652 21.075 28.9752 21.075C28.5652 21.075 28.2052 21.015 27.8952 20.895C27.5852 20.775 27.3352 20.6 27.1452 20.37C26.9652 20.14 26.8502 19.87 26.8002 19.56L27.3552 19.875C27.2952 20.405 27.1202 20.905 26.8302 21.375C26.5502 21.855 26.1852 22.295 25.7352 22.695C25.2852 23.095 24.7802 23.445 24.2202 23.745C23.6602 24.045 23.0802 24.285 22.4802 24.465ZM28.9932 21.075L29.1432 18.975C29.3932 18.975 29.5832 18.925 29.7132 18.825C29.8432 18.725 29.9732 18.55 30.1032 18.3C30.2332 18.05 30.4132 17.71 30.6432 17.28C30.8932 16.8 31.1532 16.4 31.4232 16.08C31.6932 15.75 31.9632 15.49 32.2332 15.3C32.5132 15.1 32.7882 14.96 33.0582 14.88C33.3382 14.79 33.6132 14.745 33.8832 14.745C34.2532 14.745 34.5982 14.825 34.9182 14.985C35.2482 15.135 35.5632 15.4 35.8632 15.78C36.1632 16.15 36.4482 16.66 36.7182 17.31C36.9082 17.76 37.0982 18.105 37.2882 18.345C37.4782 18.585 37.6732 18.75 37.8732 18.84C38.0832 18.93 38.2932 18.975 38.5032 18.975C38.8832 18.975 39.1532 19.075 39.3132 19.275C39.4732 19.465 39.5532 19.705 39.5532 19.995C39.5532 20.305 39.4482 20.565 39.2382 20.775C39.0282 20.975 38.7332 21.075 38.3532 21.075C37.8632 21.075 37.4182 20.995 37.0182 20.835C36.6182 20.675 36.3032 20.435 36.0732 20.115L36.5082 19.785C36.4182 19.995 36.2832 20.215 36.1032 20.445C35.9332 20.675 35.7082 20.87 35.4282 21.03C35.1582 21.19 34.8332 21.27 34.4532 21.27C34.2032 21.27 33.9082 21.22 33.5682 21.12C33.2382 21.03 32.8932 20.875 32.5332 20.655C32.1832 20.425 31.8582 20.115 31.5582 19.725C31.3682 20.075 31.1582 20.35 30.9282 20.55C30.6982 20.74 30.4282 20.875 30.1182 20.955C29.8082 21.035 29.4332 21.075 28.9932 21.075ZM32.4282 17.955C32.5282 18.105 32.6482 18.255 32.7882 18.405C32.9282 18.555 33.0832 18.69 33.2532 18.81C33.4232 18.92 33.6032 19.01 33.7932 19.08C33.9932 19.15 34.1882 19.185 34.3782 19.185C34.5782 19.185 34.7432 19.11 34.8732 18.96C35.0032 18.8 35.0082 18.565 34.8882 18.255C34.8382 18.125 34.7682 17.98 34.6782 17.82C34.5982 17.65 34.5032 17.49 34.3932 17.34C34.2932 17.19 34.1782 17.065 34.0482 16.965C33.9282 16.865 33.8032 16.815 33.6732 16.815C33.5432 16.815 33.4082 16.855 33.2682 16.935C33.1282 17.015 32.9882 17.14 32.8482 17.31C32.7082 17.47 32.5682 17.685 32.4282 17.955ZM38.3535 21.075L38.5035 18.975C38.8635 18.975 39.1735 18.94 39.4335 18.87C39.6935 18.8 39.9135 18.66 40.0935 18.45C40.2735 18.23 40.4235 17.91 40.5435 17.49C40.6735 17.07 40.7885 16.51 40.8885 15.81L42.8535 16.14C42.8335 16.29 42.8035 16.465 42.7635 16.665C42.7335 16.865 42.7035 17.07 42.6735 17.28C42.6535 17.48 42.6435 17.67 42.6435 17.85C42.6435 18.03 42.6785 18.19 42.7485 18.33C42.8185 18.47 42.9285 18.59 43.0785 18.69C43.2385 18.78 43.4435 18.85 43.6935 18.9C43.9535 18.95 44.2685 18.975 44.6385 18.975C45.0185 18.975 45.2885 19.075 45.4485 19.275C45.6085 19.465 45.6885 19.705 45.6885 19.995C45.6885 20.305 45.5835 20.565 45.3735 20.775C45.1735 20.975 44.8785 21.075 44.4885 21.075C44.0385 21.075 43.6285 21.04 43.2585 20.97C42.8985 20.9 42.5835 20.785 42.3135 20.625C42.0535 20.455 41.8385 20.235 41.6685 19.965C41.5085 19.685 41.4085 19.345 41.3685 18.945H42.0885C41.9085 19.425 41.6785 19.81 41.3985 20.1C41.1285 20.38 40.8235 20.59 40.4835 20.73C40.1435 20.87 39.7885 20.96 39.4185 21C39.0585 21.05 38.7035 21.075 38.3535 21.075ZM43.1685 14.46C42.8785 14.46 42.6285 14.36 42.4185 14.16C42.2185 13.95 42.1185 13.705 42.1185 13.425C42.1185 13.135 42.2185 12.885 42.4185 12.675C42.6285 12.465 42.8785 12.36 43.1685 12.36C43.4485 12.36 43.6885 12.465 43.8885 12.675C44.0885 12.885 44.1885 13.135 44.1885 13.425C44.1885 13.705 44.0885 13.95 43.8885 14.16C43.6885 14.36 43.4485 14.46 43.1685 14.46ZM40.5735 14.445C40.2835 14.445 40.0335 14.345 39.8235 14.145C39.6235 13.935 39.5235 13.69 39.5235 13.41C39.5235 13.12 39.6235 12.87 39.8235 12.66C40.0335 12.45 40.2835 12.345 40.5735 12.345C40.8535 12.345 41.0935 12.45 41.2935 12.66C41.4935 12.87 41.5935 13.12 41.5935 13.41C41.5935 13.69 41.4935 13.935 41.2935 14.145C41.0935 14.345 40.8535 14.445 40.5735 14.445ZM44.4912 21.075L44.6412 18.975C44.9712 18.975 45.2412 18.95 45.4512 18.9C45.6612 18.84 45.8312 18.715 45.9612 18.525C46.1012 18.325 46.2212 18.03 46.3212 17.64C46.4312 17.24 46.5512 16.7 46.6812 16.02L48.6312 16.38C48.5912 16.6 48.5362 16.875 48.4662 17.205C48.4062 17.535 48.3762 17.82 48.3762 18.06C48.3762 18.25 48.4112 18.415 48.4812 18.555C48.5612 18.685 48.6912 18.79 48.8712 18.87C49.0612 18.94 49.3212 18.975 49.6512 18.975C49.9112 18.975 50.1312 18.95 50.3112 18.9C50.5012 18.84 50.6612 18.715 50.7912 18.525C50.9312 18.325 51.0512 18.02 51.1512 17.61C51.2612 17.19 51.3662 16.625 51.4662 15.915L53.4462 16.23C53.4062 16.46 53.3662 16.705 53.3262 16.965C53.2862 17.225 53.2512 17.465 53.2212 17.685C53.1912 17.905 53.1762 18.085 53.1762 18.225C53.1762 18.355 53.2112 18.48 53.2812 18.6C53.3612 18.71 53.5012 18.8 53.7012 18.87C53.9112 18.94 54.2012 18.975 54.5712 18.975C55.0212 18.975 55.3512 18.88 55.5612 18.69C55.7812 18.49 55.8912 18.19 55.8912 17.79C55.8912 17.56 55.8862 17.315 55.8762 17.055C55.8662 16.785 55.8462 16.485 55.8162 16.155C55.7962 15.815 55.7562 15.43 55.6962 15L57.6312 14.85C57.7012 15.71 57.7812 16.41 57.8712 16.95C57.9612 17.49 58.0812 17.91 58.2312 18.21C58.3912 18.5 58.6012 18.7 58.8612 18.81C59.1312 18.92 59.4812 18.975 59.9112 18.975C60.2912 18.975 60.5612 19.075 60.7212 19.275C60.8912 19.465 60.9762 19.705 60.9762 19.995C60.9762 20.305 60.8712 20.565 60.6612 20.775C60.4612 20.975 60.1612 21.075 59.7612 21.075C59.4912 21.075 59.2112 21.05 58.9212 21C58.6312 20.96 58.3512 20.875 58.0812 20.745C57.8112 20.605 57.5712 20.405 57.3612 20.145C57.1512 19.885 56.9862 19.54 56.8662 19.11L57.1362 19.2C56.9962 19.7 56.8062 20.085 56.5662 20.355C56.3262 20.625 56.0312 20.815 55.6812 20.925C55.3312 21.025 54.9112 21.075 54.4212 21.075C53.9712 21.075 53.5712 21.015 53.2212 20.895C52.8712 20.775 52.5912 20.58 52.3812 20.31C52.1812 20.03 52.0762 19.655 52.0662 19.185H52.5762C52.3762 19.745 52.1462 20.16 51.8862 20.43C51.6262 20.7 51.3112 20.875 50.9412 20.955C50.5712 21.035 50.1062 21.075 49.5462 21.075C49.2062 21.075 48.8712 21.04 48.5412 20.97C48.2112 20.89 47.9162 20.715 47.6562 20.445C47.3962 20.165 47.2062 19.725 47.0862 19.125L47.8962 19.095C47.6862 19.685 47.4112 20.12 47.0712 20.4C46.7412 20.68 46.3612 20.865 45.9312 20.955C45.5012 21.035 45.0212 21.075 44.4912 21.075ZM59.7695 21.075L59.9195 18.975C60.1495 18.975 60.3445 18.92 60.5045 18.81C60.6745 18.69 60.8495 18.495 61.0295 18.225C61.2095 17.945 61.4195 17.57 61.6595 17.1C61.9595 16.5 62.2695 16.03 62.5895 15.69C62.9195 15.35 63.2545 15.11 63.5945 14.97C63.9445 14.82 64.2945 14.745 64.6445 14.745C65.0845 14.745 65.4945 14.84 65.8745 15.03C66.2545 15.22 66.5845 15.48 66.8645 15.81C67.1445 16.13 67.3595 16.5 67.5095 16.92C67.6695 17.33 67.7495 17.755 67.7495 18.195C67.7495 18.725 67.6345 19.205 67.4045 19.635C67.1845 20.055 66.8745 20.39 66.4745 20.64C66.0845 20.88 65.6345 21 65.1245 21C64.6945 21 64.1945 20.925 63.6245 20.775C63.0545 20.625 62.4545 20.31 61.8245 19.83L62.5895 18.015C63.0395 18.325 63.4595 18.55 63.8495 18.69C64.2495 18.83 64.5795 18.9 64.8395 18.9C65.0395 18.9 65.2045 18.88 65.3345 18.84C65.4645 18.8 65.5595 18.735 65.6195 18.645C65.6795 18.555 65.7095 18.435 65.7095 18.285C65.7095 18.075 65.6595 17.86 65.5595 17.64C65.4595 17.42 65.3245 17.235 65.1545 17.085C64.9945 16.925 64.8045 16.845 64.5845 16.845C64.3745 16.845 64.1945 16.925 64.0445 17.085C63.9045 17.235 63.7645 17.455 63.6245 17.745C63.4945 18.025 63.3345 18.355 63.1445 18.735C62.9145 19.195 62.6895 19.58 62.4695 19.89C62.2495 20.19 62.0145 20.43 61.7645 20.61C61.5245 20.78 61.2395 20.9 60.9095 20.97C60.5895 21.04 60.2095 21.075 59.7695 21.075Z" fill="#E71F12"/>
</svg>
