<svg width="582" height="160" viewBox="0 0 582 160" fill="none" xmlns="http://www.w3.org/2000/svg">
<mask id="path-1-inside-1_251_678" fill="white">
<path d="M0 0H103V32H0V0Z"/>
</mask>
<path d="M0 0H103V32H0V0Z" fill="#469C09"/>
<path d="M103 31H0V33H103V31Z" fill="#0A0F26" fill-opacity="0.7" mask="url(#path-1-inside-1_251_678)"/>
<path d="M27.6634 14H26.2543C26.1709 13.5947 26.0251 13.2386 25.8168 12.9318C25.6122 12.625 25.3622 12.3674 25.0668 12.1591C24.7751 11.947 24.4512 11.7879 24.0952 11.6818C23.7391 11.5758 23.3679 11.5227 22.9815 11.5227C22.277 11.5227 21.6387 11.7008 21.0668 12.0568C20.4986 12.4129 20.0459 12.9375 19.7088 13.6307C19.3755 14.3239 19.2088 15.1742 19.2088 16.1818C19.2088 17.1894 19.3755 18.0398 19.7088 18.733C20.0459 19.4261 20.4986 19.9508 21.0668 20.3068C21.6387 20.6629 22.277 20.8409 22.9815 20.8409C23.3679 20.8409 23.7391 20.7879 24.0952 20.6818C24.4512 20.5758 24.7751 20.4186 25.0668 20.2102C25.3622 19.9981 25.6122 19.7386 25.8168 19.4318C26.0251 19.1212 26.1709 18.7652 26.2543 18.3636H27.6634C27.5573 18.9583 27.3641 19.4905 27.0838 19.9602C26.8035 20.4299 26.455 20.8295 26.0384 21.1591C25.6217 21.4848 25.1539 21.733 24.6349 21.9034C24.1198 22.0739 23.5687 22.1591 22.9815 22.1591C21.9891 22.1591 21.1065 21.9167 20.3338 21.4318C19.5611 20.947 18.9531 20.2576 18.5099 19.3636C18.0668 18.4697 17.8452 17.4091 17.8452 16.1818C17.8452 14.9545 18.0668 13.8939 18.5099 13C18.9531 12.1061 19.5611 11.4167 20.3338 10.9318C21.1065 10.447 21.9891 10.2045 22.9815 10.2045C23.5687 10.2045 24.1198 10.2898 24.6349 10.4602C25.1539 10.6307 25.6217 10.8807 26.0384 11.2102C26.455 11.536 26.8035 11.9337 27.0838 12.4034C27.3641 12.8693 27.5573 13.4015 27.6634 14ZM32.3267 22.2045C31.7737 22.2045 31.2718 22.1004 30.821 21.892C30.3703 21.6799 30.0123 21.375 29.7472 20.9773C29.482 20.5758 29.3494 20.0909 29.3494 19.5227C29.3494 19.0227 29.4479 18.6174 29.6449 18.3068C29.8419 17.9924 30.1051 17.7462 30.4347 17.5682C30.7642 17.3902 31.1278 17.2576 31.5256 17.1705C31.9271 17.0795 32.3305 17.0076 32.7358 16.9545C33.2661 16.8864 33.696 16.8352 34.0256 16.8011C34.3589 16.7633 34.6013 16.7008 34.7528 16.6136C34.9081 16.5265 34.9858 16.375 34.9858 16.1591V16.1136C34.9858 15.553 34.8324 15.1174 34.5256 14.8068C34.2225 14.4962 33.7623 14.3409 33.1449 14.3409C32.5047 14.3409 32.0028 14.4811 31.6392 14.7614C31.2756 15.0417 31.0199 15.3409 30.8722 15.6591L29.5994 15.2045C29.8267 14.6742 30.1297 14.2614 30.5085 13.9659C30.8911 13.6667 31.3078 13.4583 31.7585 13.3409C32.2131 13.2197 32.66 13.1591 33.0994 13.1591C33.3797 13.1591 33.7017 13.1932 34.0653 13.2614C34.4328 13.3258 34.7869 13.4602 35.1278 13.6648C35.4725 13.8693 35.7585 14.178 35.9858 14.5909C36.2131 15.0038 36.3267 15.5568 36.3267 16.25V22H34.9858V20.8182H34.9176C34.8267 21.0076 34.6752 21.2102 34.4631 21.4261C34.2509 21.642 33.9688 21.8258 33.6165 21.9773C33.2642 22.1288 32.8343 22.2045 32.3267 22.2045ZM32.5312 21C33.0616 21 33.5085 20.8958 33.8722 20.6875C34.2396 20.4792 34.5161 20.2102 34.7017 19.8807C34.8911 19.5511 34.9858 19.2045 34.9858 18.8409V17.6136C34.929 17.6818 34.804 17.7443 34.6108 17.8011C34.4214 17.8542 34.2017 17.9015 33.9517 17.9432C33.7055 17.9811 33.465 18.0152 33.2301 18.0455C32.9991 18.072 32.8116 18.0947 32.6676 18.1136C32.3191 18.1591 31.9934 18.233 31.6903 18.3352C31.3911 18.4337 31.1487 18.5833 30.9631 18.7841C30.7813 18.9811 30.6903 19.25 30.6903 19.5909C30.6903 20.0568 30.8627 20.4091 31.2074 20.6477C31.5559 20.8826 31.9972 21 32.5312 21ZM42.5696 13.2727V14.4091H38.0469V13.2727H42.5696ZM39.3651 11.1818H40.706V19.5C40.706 19.8788 40.7609 20.1629 40.8707 20.3523C40.9844 20.5379 41.1283 20.6629 41.3026 20.7273C41.4806 20.7879 41.6681 20.8182 41.8651 20.8182C42.0128 20.8182 42.134 20.8106 42.2287 20.7955C42.3234 20.7765 42.3991 20.7614 42.456 20.75L42.7287 21.9545C42.6378 21.9886 42.5109 22.0227 42.348 22.0568C42.1851 22.0947 41.9787 22.1136 41.7287 22.1136C41.3499 22.1136 40.9787 22.0322 40.6151 21.8693C40.2552 21.7064 39.956 21.4583 39.7173 21.125C39.4825 20.7917 39.3651 20.3712 39.3651 19.8636V11.1818ZM48.152 22.1818C47.3111 22.1818 46.5857 21.9962 45.9759 21.625C45.3698 21.25 44.902 20.7273 44.5724 20.0568C44.2467 19.3826 44.0838 18.5985 44.0838 17.7045C44.0838 16.8106 44.2467 16.0227 44.5724 15.3409C44.902 14.6553 45.3603 14.1212 45.9474 13.7386C46.5384 13.3523 47.2277 13.1591 48.0156 13.1591C48.4702 13.1591 48.919 13.2348 49.3622 13.3864C49.8054 13.5379 50.2088 13.7841 50.5724 14.125C50.9361 14.4621 51.2259 14.9091 51.4418 15.4659C51.6577 16.0227 51.7656 16.7083 51.7656 17.5227V18.0909H45.0384V16.9318H50.402C50.402 16.4394 50.3035 16 50.1065 15.6136C49.9134 15.2273 49.6368 14.9223 49.277 14.6989C48.9209 14.4754 48.5005 14.3636 48.0156 14.3636C47.4815 14.3636 47.0194 14.4962 46.6293 14.7614C46.2429 15.0227 45.9455 15.3636 45.7372 15.7841C45.5289 16.2045 45.4247 16.6553 45.4247 17.1364V17.9091C45.4247 18.5682 45.5384 19.1269 45.7656 19.5852C45.9967 20.0398 46.3168 20.3864 46.7259 20.625C47.1349 20.8598 47.6103 20.9773 48.152 20.9773C48.5043 20.9773 48.8224 20.928 49.1065 20.8295C49.3944 20.7273 49.6425 20.5758 49.8509 20.375C50.0592 20.1705 50.2202 19.9167 50.3338 19.6136L51.6293 19.9773C51.4929 20.4167 51.2637 20.803 50.9418 21.1364C50.6198 21.4659 50.2221 21.7235 49.7486 21.9091C49.2751 22.0909 48.7429 22.1818 48.152 22.1818ZM57.3281 25.4545C56.6804 25.4545 56.1236 25.3712 55.6577 25.2045C55.1918 25.0417 54.8035 24.8258 54.4929 24.5568C54.1861 24.2917 53.9418 24.0076 53.7599 23.7045L54.8281 22.9545C54.9493 23.1136 55.1027 23.2955 55.2884 23.5C55.474 23.7083 55.7277 23.8883 56.0497 24.0398C56.3755 24.1951 56.8016 24.2727 57.3281 24.2727C58.0327 24.2727 58.6141 24.1023 59.0724 23.7614C59.5308 23.4205 59.7599 22.8864 59.7599 22.1591V20.3864H59.6463C59.5478 20.5455 59.4077 20.7424 59.2259 20.9773C59.0478 21.2083 58.7902 21.4148 58.4531 21.5966C58.1198 21.7746 57.669 21.8636 57.1009 21.8636C56.3963 21.8636 55.7637 21.697 55.2031 21.3636C54.6463 21.0303 54.205 20.5455 53.8793 19.9091C53.5573 19.2727 53.3963 18.5 53.3963 17.5909C53.3963 16.697 53.5535 15.9186 53.8679 15.2557C54.1823 14.589 54.6198 14.0739 55.1804 13.7102C55.741 13.3428 56.3887 13.1591 57.1236 13.1591C57.6918 13.1591 58.1425 13.2538 58.4759 13.4432C58.813 13.6288 59.0705 13.8409 59.2486 14.0795C59.4304 14.3144 59.5705 14.5076 59.669 14.6591H59.8054V13.2727H61.1009V22.25C61.1009 23 60.9304 23.6098 60.5895 24.0795C60.2524 24.553 59.7978 24.8996 59.2259 25.1193C58.6577 25.3428 58.0251 25.4545 57.3281 25.4545ZM57.2827 20.6591C57.8205 20.6591 58.2751 20.536 58.6463 20.2898C59.0175 20.0436 59.2997 19.6894 59.4929 19.2273C59.6861 18.7652 59.7827 18.2121 59.7827 17.5682C59.7827 16.9394 59.688 16.3845 59.4986 15.9034C59.3092 15.4223 59.0289 15.0455 58.6577 14.7727C58.2865 14.5 57.8281 14.3636 57.2827 14.3636C56.7145 14.3636 56.241 14.5076 55.8622 14.7955C55.4872 15.0833 55.205 15.4697 55.0156 15.9545C54.83 16.4394 54.7372 16.9773 54.7372 17.5682C54.7372 18.1742 54.8319 18.7102 55.0213 19.1761C55.2145 19.6383 55.4986 20.0019 55.8736 20.267C56.2524 20.5284 56.7221 20.6591 57.2827 20.6591ZM67.1009 22.1818C66.313 22.1818 65.6217 21.9943 65.027 21.6193C64.4361 21.2443 63.974 20.7197 63.6406 20.0455C63.3111 19.3712 63.1463 18.5833 63.1463 17.6818C63.1463 16.7727 63.3111 15.9792 63.6406 15.3011C63.974 14.6231 64.4361 14.0966 65.027 13.7216C65.6217 13.3466 66.313 13.1591 67.1009 13.1591C67.8887 13.1591 68.5781 13.3466 69.169 13.7216C69.7637 14.0966 70.2259 14.6231 70.5554 15.3011C70.8887 15.9792 71.0554 16.7727 71.0554 17.6818C71.0554 18.5833 70.8887 19.3712 70.5554 20.0455C70.2259 20.7197 69.7637 21.2443 69.169 21.6193C68.5781 21.9943 67.8887 22.1818 67.1009 22.1818ZM67.1009 20.9773C67.6993 20.9773 68.1918 20.8239 68.5781 20.517C68.9645 20.2102 69.2505 19.8068 69.4361 19.3068C69.6217 18.8068 69.7145 18.2652 69.7145 17.6818C69.7145 17.0985 69.6217 16.5549 69.4361 16.0511C69.2505 15.5473 68.9645 15.1402 68.5781 14.8295C68.1918 14.5189 67.6993 14.3636 67.1009 14.3636C66.5024 14.3636 66.0099 14.5189 65.6236 14.8295C65.2372 15.1402 64.9512 15.5473 64.7656 16.0511C64.58 16.5549 64.4872 17.0985 64.4872 17.6818C64.4872 18.2652 64.58 18.8068 64.7656 19.3068C64.9512 19.8068 65.2372 20.2102 65.6236 20.517C66.0099 20.8239 66.5024 20.9773 67.1009 20.9773ZM73.1023 22V13.2727H74.3977V14.5909H74.4886C74.6477 14.1591 74.9356 13.8087 75.3523 13.5398C75.7689 13.2708 76.2386 13.1364 76.7614 13.1364C76.8598 13.1364 76.983 13.1383 77.1307 13.142C77.2784 13.1458 77.3902 13.1515 77.4659 13.1591V14.5227C77.4205 14.5114 77.3163 14.4943 77.1534 14.4716C76.9943 14.4451 76.8258 14.4318 76.6477 14.4318C76.2235 14.4318 75.8447 14.5208 75.5114 14.6989C75.1818 14.8731 74.9205 15.1155 74.7273 15.4261C74.5379 15.733 74.4432 16.0833 74.4432 16.4773V22H73.1023ZM80.1847 25.2727C79.9574 25.2727 79.7547 25.2538 79.5767 25.2159C79.3987 25.1818 79.2756 25.1477 79.2074 25.1136L79.5483 23.9318C79.8741 24.0152 80.1619 24.0455 80.4119 24.0227C80.6619 24 80.8835 23.8883 81.0767 23.6875C81.2737 23.4905 81.4536 23.1705 81.6165 22.7273L81.8665 22.0455L78.6392 13.2727H80.0938L82.5028 20.2273H82.5938L85.0028 13.2727H86.4574L82.7528 23.2727C82.5862 23.7235 82.3797 24.0966 82.1335 24.392C81.8873 24.6913 81.6013 24.9129 81.2756 25.0568C80.9536 25.2008 80.59 25.2727 80.1847 25.2727Z" fill="#0A0F26" fill-opacity="0.7"/>
<mask id="path-4-inside-2_251_678" fill="white">
<path d="M0 32H103V64H0V32Z"/>
</mask>
<path d="M0 32H103V64H0V32Z" fill="#E6F9FF"/>
<path d="M103 63H0V65H103V63Z" fill="#0A0F26" fill-opacity="0.7" mask="url(#path-4-inside-2_251_678)"/>
<path d="M23.0497 54V42.3636H26.9815C27.8944 42.3636 28.6406 42.5284 29.2202 42.858C29.8035 43.1837 30.2353 43.625 30.5156 44.1818C30.7959 44.7386 30.9361 45.3598 30.9361 46.0455C30.9361 46.7311 30.7959 47.3542 30.5156 47.9148C30.2391 48.4754 29.8111 48.9223 29.2315 49.2557C28.652 49.5852 27.9096 49.75 27.0043 49.75H24.1861V48.5H26.9588C27.5838 48.5 28.0857 48.392 28.4645 48.1761C28.8433 47.9602 29.1179 47.6686 29.2884 47.3011C29.4626 46.9299 29.5497 46.5114 29.5497 46.0455C29.5497 45.5795 29.4626 45.1629 29.2884 44.7955C29.1179 44.428 28.8414 44.1402 28.4588 43.9318C28.0762 43.7197 27.5687 43.6136 26.9361 43.6136H24.4588V54H23.0497ZM33.0241 54V45.2727H34.3196V46.5909H34.4105C34.5696 46.1591 34.8575 45.8087 35.2741 45.5398C35.6908 45.2708 36.1605 45.1364 36.6832 45.1364C36.7817 45.1364 36.9048 45.1383 37.0526 45.142C37.2003 45.1458 37.312 45.1515 37.3878 45.1591V46.5227C37.3423 46.5114 37.2382 46.4943 37.0753 46.4716C36.9162 46.4451 36.7476 46.4318 36.5696 46.4318C36.1454 46.4318 35.7666 46.5208 35.4332 46.6989C35.1037 46.8731 34.8423 47.1155 34.6491 47.4261C34.4598 47.733 34.3651 48.0833 34.3651 48.4773V54H33.0241ZM42.2571 54.1818C41.4692 54.1818 40.7779 53.9943 40.1832 53.6193C39.5923 53.2443 39.1302 52.7197 38.7969 52.0455C38.4673 51.3712 38.3026 50.5833 38.3026 49.6818C38.3026 48.7727 38.4673 47.9792 38.7969 47.3011C39.1302 46.6231 39.5923 46.0966 40.1832 45.7216C40.7779 45.3466 41.4692 45.1591 42.2571 45.1591C43.045 45.1591 43.7344 45.3466 44.3253 45.7216C44.92 46.0966 45.3821 46.6231 45.7116 47.3011C46.045 47.9792 46.2116 48.7727 46.2116 49.6818C46.2116 50.5833 46.045 51.3712 45.7116 52.0455C45.3821 52.7197 44.92 53.2443 44.3253 53.6193C43.7344 53.9943 43.045 54.1818 42.2571 54.1818ZM42.2571 52.9773C42.8556 52.9773 43.348 52.8239 43.7344 52.517C44.1207 52.2102 44.4067 51.8068 44.5923 51.3068C44.7779 50.8068 44.8707 50.2652 44.8707 49.6818C44.8707 49.0985 44.7779 48.5549 44.5923 48.0511C44.4067 47.5473 44.1207 47.1402 43.7344 46.8295C43.348 46.5189 42.8556 46.3636 42.2571 46.3636C41.6586 46.3636 41.1662 46.5189 40.7798 46.8295C40.3935 47.1402 40.1075 47.5473 39.9219 48.0511C39.7363 48.5549 39.6435 49.0985 39.6435 49.6818C39.6435 50.2652 39.7363 50.8068 39.9219 51.3068C40.1075 51.8068 40.3935 52.2102 40.7798 52.517C41.1662 52.8239 41.6586 52.9773 42.2571 52.9773ZM51.804 54.1818C50.9858 54.1818 50.2813 53.9886 49.6903 53.6023C49.0994 53.2159 48.6449 52.6837 48.3267 52.0057C48.0085 51.3277 47.8494 50.553 47.8494 49.6818C47.8494 48.7955 48.0123 48.0133 48.3381 47.3352C48.6676 46.6534 49.1259 46.1212 49.7131 45.7386C50.304 45.3523 50.9934 45.1591 51.7812 45.1591C52.3949 45.1591 52.9479 45.2727 53.4403 45.5C53.9328 45.7273 54.3362 46.0455 54.6506 46.4545C54.965 46.8636 55.16 47.3409 55.2358 47.8864H53.8949C53.7926 47.4886 53.5653 47.1364 53.2131 46.8295C52.8646 46.5189 52.3949 46.3636 51.804 46.3636C51.2813 46.3636 50.8229 46.5 50.429 46.7727C50.0388 47.0417 49.7339 47.4223 49.5142 47.9148C49.2983 48.4034 49.1903 48.9773 49.1903 49.6364C49.1903 50.3106 49.2964 50.8977 49.5085 51.3977C49.7244 51.8977 50.0275 52.286 50.4176 52.5625C50.8116 52.839 51.2737 52.9773 51.804 52.9773C52.1525 52.9773 52.4688 52.9167 52.7528 52.7955C53.0369 52.6742 53.2775 52.5 53.4744 52.2727C53.6714 52.0455 53.8116 51.7727 53.8949 51.4545H55.2358C55.16 51.9697 54.9725 52.4337 54.6733 52.8466C54.3778 53.2557 53.9858 53.5814 53.4972 53.8239C53.0123 54.0625 52.4479 54.1818 51.804 54.1818ZM60.8551 54.1818C60.0142 54.1818 59.2888 53.9962 58.679 53.625C58.0729 53.25 57.6051 52.7273 57.2756 52.0568C56.9498 51.3826 56.7869 50.5985 56.7869 49.7045C56.7869 48.8106 56.9498 48.0227 57.2756 47.3409C57.6051 46.6553 58.0634 46.1212 58.6506 45.7386C59.2415 45.3523 59.9309 45.1591 60.7188 45.1591C61.1733 45.1591 61.6222 45.2348 62.0653 45.3864C62.5085 45.5379 62.9119 45.7841 63.2756 46.125C63.6392 46.4621 63.929 46.9091 64.1449 47.4659C64.3608 48.0227 64.4688 48.7083 64.4688 49.5227V50.0909H57.7415V48.9318H63.1051C63.1051 48.4394 63.0066 48 62.8097 47.6136C62.6165 47.2273 62.34 46.9223 61.9801 46.6989C61.6241 46.4754 61.2036 46.3636 60.7188 46.3636C60.1847 46.3636 59.7225 46.4962 59.3324 46.7614C58.946 47.0227 58.6487 47.3636 58.4403 47.7841C58.232 48.2045 58.1278 48.6553 58.1278 49.1364V49.9091C58.1278 50.5682 58.2415 51.1269 58.4688 51.5852C58.6998 52.0398 59.0199 52.3864 59.429 52.625C59.8381 52.8598 60.3134 52.9773 60.8551 52.9773C61.2074 52.9773 61.5256 52.928 61.8097 52.8295C62.0975 52.7273 62.3456 52.5758 62.554 52.375C62.7623 52.1705 62.9233 51.9167 63.0369 51.6136L64.3324 51.9773C64.196 52.4167 63.9669 52.803 63.6449 53.1364C63.3229 53.4659 62.9252 53.7235 62.4517 53.9091C61.9782 54.0909 61.446 54.1818 60.8551 54.1818ZM72.6903 47.2273L71.4858 47.5682C71.41 47.3674 71.2983 47.1723 71.1506 46.983C71.0066 46.7898 70.8097 46.6307 70.5597 46.5057C70.3097 46.3807 69.9896 46.3182 69.5994 46.3182C69.0653 46.3182 68.6203 46.4413 68.2642 46.6875C67.9119 46.9299 67.7358 47.2386 67.7358 47.6136C67.7358 47.947 67.857 48.2102 68.0994 48.4034C68.3419 48.5966 68.7206 48.7576 69.2358 48.8864L70.5312 49.2045C71.3116 49.3939 71.893 49.6837 72.2756 50.0739C72.6581 50.4602 72.8494 50.9583 72.8494 51.5682C72.8494 52.0682 72.7055 52.5152 72.4176 52.9091C72.1335 53.303 71.7358 53.6136 71.2244 53.8409C70.7131 54.0682 70.1184 54.1818 69.4403 54.1818C68.5502 54.1818 67.8134 53.9886 67.2301 53.6023C66.6468 53.2159 66.2775 52.6515 66.1222 51.9091L67.3949 51.5909C67.5161 52.0606 67.7453 52.4129 68.0824 52.6477C68.4233 52.8826 68.8684 53 69.4176 53C70.0426 53 70.5388 52.8674 70.9062 52.6023C71.2775 52.3333 71.4631 52.0114 71.4631 51.6364C71.4631 51.3333 71.357 51.0795 71.1449 50.875C70.9328 50.6667 70.607 50.5114 70.1676 50.4091L68.7131 50.0682C67.9138 49.8788 67.3267 49.5852 66.9517 49.1875C66.5805 48.786 66.3949 48.2841 66.3949 47.6818C66.3949 47.1894 66.5331 46.7538 66.8097 46.375C67.09 45.9962 67.4706 45.6989 67.9517 45.483C68.4366 45.267 68.9858 45.1591 69.5994 45.1591C70.4631 45.1591 71.1411 45.3485 71.6335 45.7273C72.1297 46.1061 72.482 46.6061 72.6903 47.2273ZM81.0497 47.2273L79.8452 47.5682C79.7694 47.3674 79.6577 47.1723 79.5099 46.983C79.366 46.7898 79.169 46.6307 78.919 46.5057C78.669 46.3807 78.349 46.3182 77.9588 46.3182C77.4247 46.3182 76.9796 46.4413 76.6236 46.6875C76.2713 46.9299 76.0952 47.2386 76.0952 47.6136C76.0952 47.947 76.2164 48.2102 76.4588 48.4034C76.7012 48.5966 77.08 48.7576 77.5952 48.8864L78.8906 49.2045C79.6709 49.3939 80.2524 49.6837 80.6349 50.0739C81.0175 50.4602 81.2088 50.9583 81.2088 51.5682C81.2088 52.0682 81.0649 52.5152 80.777 52.9091C80.4929 53.303 80.0952 53.6136 79.5838 53.8409C79.0724 54.0682 78.4777 54.1818 77.7997 54.1818C76.9096 54.1818 76.1728 53.9886 75.5895 53.6023C75.0062 53.2159 74.6368 52.6515 74.4815 51.9091L75.7543 51.5909C75.8755 52.0606 76.1046 52.4129 76.4418 52.6477C76.7827 52.8826 77.2277 53 77.777 53C78.402 53 78.8982 52.8674 79.2656 52.6023C79.6368 52.3333 79.8224 52.0114 79.8224 51.6364C79.8224 51.3333 79.7164 51.0795 79.5043 50.875C79.2921 50.6667 78.9664 50.5114 78.527 50.4091L77.0724 50.0682C76.2732 49.8788 75.6861 49.5852 75.3111 49.1875C74.9399 48.786 74.7543 48.2841 74.7543 47.6818C74.7543 47.1894 74.8925 46.7538 75.169 46.375C75.4493 45.9962 75.83 45.6989 76.3111 45.483C76.7959 45.267 77.3452 45.1591 77.9588 45.1591C78.8224 45.1591 79.5005 45.3485 79.9929 45.7273C80.4891 46.1061 80.8414 46.6061 81.0497 47.2273Z" fill="#0A0F26" fill-opacity="0.7"/>
<mask id="path-7-inside-3_251_678" fill="white">
<path d="M0 64H103V96H0V64Z"/>
</mask>
<path d="M0 64H103V96H0V64Z" fill="#FFE1C0"/>
<path d="M103 95H0V97H103V95Z" fill="#0A0F26" fill-opacity="0.7" mask="url(#path-7-inside-3_251_678)"/>
<path d="M31.3665 77.2727C31.2983 76.697 31.0218 76.25 30.5369 75.9318C30.0521 75.6136 29.4574 75.4545 28.7528 75.4545C28.2377 75.4545 27.7869 75.5379 27.4006 75.7045C27.018 75.8712 26.7188 76.1004 26.5028 76.392C26.2907 76.6837 26.1847 77.0152 26.1847 77.3864C26.1847 77.697 26.2585 77.964 26.4062 78.1875C26.5578 78.4072 26.7509 78.5909 26.9858 78.7386C27.2206 78.8826 27.4669 79.0019 27.7244 79.0966C27.982 79.1875 28.2188 79.2614 28.4347 79.3182L29.6165 79.6364C29.9195 79.7159 30.2566 79.8258 30.6278 79.9659C31.0028 80.1061 31.3608 80.2973 31.7017 80.5398C32.0464 80.7784 32.3305 81.0852 32.554 81.4602C32.7775 81.8352 32.8892 82.2955 32.8892 82.8409C32.8892 83.4697 32.7244 84.0379 32.3949 84.5455C32.0691 85.053 31.5919 85.4564 30.9631 85.7557C30.3381 86.0549 29.5786 86.2045 28.6847 86.2045C27.8513 86.2045 27.1297 86.0701 26.5199 85.8011C25.9138 85.5322 25.4366 85.1572 25.0881 84.6761C24.7434 84.1951 24.5483 83.6364 24.5028 83H25.9574C25.9953 83.4394 26.143 83.803 26.4006 84.0909C26.6619 84.375 26.9915 84.5871 27.3892 84.7273C27.7907 84.8636 28.2225 84.9318 28.6847 84.9318C29.2225 84.9318 29.7055 84.8447 30.1335 84.6705C30.5616 84.4924 30.9006 84.2462 31.1506 83.9318C31.4006 83.6136 31.5256 83.2424 31.5256 82.8182C31.5256 82.4318 31.4176 82.1174 31.2017 81.875C30.9858 81.6326 30.7017 81.4356 30.3494 81.2841C29.9972 81.1326 29.6165 81 29.2074 80.8864L27.7756 80.4773C26.8665 80.2159 26.1468 79.8428 25.6165 79.358C25.0862 78.8731 24.821 78.2386 24.821 77.4545C24.821 76.803 24.9972 76.2348 25.3494 75.75C25.7055 75.2614 26.1828 74.8826 26.7812 74.6136C27.3835 74.3409 28.0559 74.2045 28.7983 74.2045C29.5483 74.2045 30.215 74.339 30.7983 74.608C31.3816 74.8731 31.8438 75.2367 32.1847 75.6989C32.5294 76.161 32.7112 76.6856 32.7301 77.2727H31.3665ZM35.8878 89.2727C35.6605 89.2727 35.4579 89.2538 35.2798 89.2159C35.1018 89.1818 34.9787 89.1477 34.9105 89.1136L35.2514 87.9318C35.5772 88.0152 35.8651 88.0455 36.1151 88.0227C36.3651 88 36.5866 87.8883 36.7798 87.6875C36.9768 87.4905 37.1567 87.1705 37.3196 86.7273L37.5696 86.0455L34.3423 77.2727H35.7969L38.206 84.2273H38.2969L40.706 77.2727H42.1605L38.456 87.2727C38.2893 87.7235 38.0829 88.0966 37.8366 88.392C37.5904 88.6913 37.3045 88.9129 36.9787 89.0568C36.6567 89.2008 36.2931 89.2727 35.8878 89.2727ZM50.1122 79.2273L48.9077 79.5682C48.8319 79.3674 48.7202 79.1723 48.5724 78.983C48.4285 78.7898 48.2315 78.6307 47.9815 78.5057C47.7315 78.3807 47.4115 78.3182 47.0213 78.3182C46.4872 78.3182 46.0421 78.4413 45.6861 78.6875C45.3338 78.9299 45.1577 79.2386 45.1577 79.6136C45.1577 79.947 45.2789 80.2102 45.5213 80.4034C45.7637 80.5966 46.1425 80.7576 46.6577 80.8864L47.9531 81.2045C48.7334 81.3939 49.3149 81.6837 49.6974 82.0739C50.08 82.4602 50.2713 82.9583 50.2713 83.5682C50.2713 84.0682 50.1274 84.5152 49.8395 84.9091C49.5554 85.303 49.1577 85.6136 48.6463 85.8409C48.1349 86.0682 47.5402 86.1818 46.8622 86.1818C45.9721 86.1818 45.2353 85.9886 44.652 85.6023C44.0687 85.2159 43.6993 84.6515 43.544 83.9091L44.8168 83.5909C44.938 84.0606 45.1671 84.4129 45.5043 84.6477C45.8452 84.8826 46.2902 85 46.8395 85C47.4645 85 47.9607 84.8674 48.3281 84.6023C48.6993 84.3333 48.8849 84.0114 48.8849 83.6364C48.8849 83.3333 48.7789 83.0795 48.5668 82.875C48.3546 82.6667 48.0289 82.5114 47.5895 82.4091L46.1349 82.0682C45.3357 81.8788 44.7486 81.5852 44.3736 81.1875C44.0024 80.786 43.8168 80.2841 43.8168 79.6818C43.8168 79.1894 43.955 78.7538 44.2315 78.375C44.5118 77.9962 44.8925 77.6989 45.3736 77.483C45.8584 77.267 46.4077 77.1591 47.0213 77.1591C47.8849 77.1591 48.563 77.3485 49.0554 77.7273C49.5516 78.1061 49.9039 78.6061 50.1122 79.2273ZM56.0852 77.2727V78.4091H51.5625V77.2727H56.0852ZM52.8807 75.1818H54.2216V83.5C54.2216 83.8788 54.2765 84.1629 54.3864 84.3523C54.5 84.5379 54.6439 84.6629 54.8182 84.7273C54.9962 84.7879 55.1837 84.8182 55.3807 84.8182C55.5284 84.8182 55.6496 84.8106 55.7443 84.7955C55.839 84.7765 55.9148 84.7614 55.9716 84.75L56.2443 85.9545C56.1534 85.9886 56.0265 86.0227 55.8636 86.0568C55.7008 86.0947 55.4943 86.1136 55.2443 86.1136C54.8655 86.1136 54.4943 86.0322 54.1307 85.8693C53.7708 85.7064 53.4716 85.4583 53.233 85.125C52.9981 84.7917 52.8807 84.3712 52.8807 83.8636V75.1818ZM61.6676 86.1818C60.8267 86.1818 60.1013 85.9962 59.4915 85.625C58.8854 85.25 58.4176 84.7273 58.0881 84.0568C57.7623 83.3826 57.5994 82.5985 57.5994 81.7045C57.5994 80.8106 57.7623 80.0227 58.0881 79.3409C58.4176 78.6553 58.8759 78.1212 59.4631 77.7386C60.054 77.3523 60.7434 77.1591 61.5312 77.1591C61.9858 77.1591 62.4347 77.2348 62.8778 77.3864C63.321 77.5379 63.7244 77.7841 64.0881 78.125C64.4517 78.4621 64.7415 78.9091 64.9574 79.4659C65.1733 80.0227 65.2812 80.7083 65.2812 81.5227V82.0909H58.554V80.9318H63.9176C63.9176 80.4394 63.8191 80 63.6222 79.6136C63.429 79.2273 63.1525 78.9223 62.7926 78.6989C62.4366 78.4754 62.0161 78.3636 61.5312 78.3636C60.9972 78.3636 60.535 78.4962 60.1449 78.7614C59.7585 79.0227 59.4612 79.3636 59.2528 79.7841C59.0445 80.2045 58.9403 80.6553 58.9403 81.1364V81.9091C58.9403 82.5682 59.054 83.1269 59.2812 83.5852C59.5123 84.0398 59.8324 84.3864 60.2415 84.625C60.6506 84.8598 61.1259 84.9773 61.6676 84.9773C62.0199 84.9773 62.3381 84.928 62.6222 84.8295C62.91 84.7273 63.1581 84.5758 63.3665 84.375C63.5748 84.1705 63.7358 83.9167 63.8494 83.6136L65.1449 83.9773C65.0085 84.4167 64.7794 84.803 64.4574 85.1364C64.1354 85.4659 63.7377 85.7235 63.2642 85.9091C62.7907 86.0909 62.2585 86.1818 61.6676 86.1818ZM67.321 86V77.2727H68.6165V78.6364H68.7301C68.9119 78.1705 69.2055 77.8087 69.6108 77.5511C70.0161 77.2898 70.5028 77.1591 71.071 77.1591C71.6468 77.1591 72.1259 77.2898 72.5085 77.5511C72.8949 77.8087 73.196 78.1705 73.4119 78.6364H73.5028C73.7263 78.1856 74.0616 77.8277 74.5085 77.5625C74.9555 77.2936 75.4915 77.1591 76.1165 77.1591C76.8968 77.1591 77.535 77.4034 78.0312 77.892C78.5275 78.3769 78.7756 79.1326 78.7756 80.1591V86H77.4347V80.1591C77.4347 79.5152 77.2585 79.0549 76.9062 78.7784C76.554 78.5019 76.1392 78.3636 75.6619 78.3636C75.0483 78.3636 74.5729 78.5492 74.2358 78.9205C73.8987 79.2879 73.7301 79.7538 73.7301 80.3182V86H72.3665V80.0227C72.3665 79.5265 72.2055 79.1269 71.8835 78.8239C71.5616 78.517 71.1468 78.3636 70.6392 78.3636C70.2907 78.3636 69.965 78.4564 69.6619 78.642C69.3627 78.8277 69.1203 79.0852 68.9347 79.4148C68.7528 79.7405 68.6619 80.1174 68.6619 80.5455V86H67.321Z" fill="#0A0F26" fill-opacity="0.7"/>
<mask id="path-10-inside-4_251_678" fill="white">
<path d="M0 96H103V128H0V96Z"/>
</mask>
<path d="M0 96H103V128H0V96Z" fill="#E0E0AE"/>
<path d="M103 127H0V129H103V127Z" fill="#0A0F26" fill-opacity="0.7" mask="url(#path-10-inside-4_251_678)"/>
<path d="M27.1278 118V106.364H31.0597C31.9725 106.364 32.7188 106.528 33.2983 106.858C33.8816 107.184 34.3134 107.625 34.5938 108.182C34.8741 108.739 35.0142 109.36 35.0142 110.045C35.0142 110.731 34.8741 111.354 34.5938 111.915C34.3172 112.475 33.8892 112.922 33.3097 113.256C32.7301 113.585 31.9877 113.75 31.0824 113.75H28.2642V112.5H31.0369C31.6619 112.5 32.1638 112.392 32.5426 112.176C32.9214 111.96 33.196 111.669 33.3665 111.301C33.5407 110.93 33.6278 110.511 33.6278 110.045C33.6278 109.58 33.5407 109.163 33.3665 108.795C33.196 108.428 32.9195 108.14 32.5369 107.932C32.1544 107.72 31.6468 107.614 31.0142 107.614H28.5369V118H27.1278ZM40.6676 118.182C39.8267 118.182 39.1013 117.996 38.4915 117.625C37.8854 117.25 37.4176 116.727 37.0881 116.057C36.7623 115.383 36.5994 114.598 36.5994 113.705C36.5994 112.811 36.7623 112.023 37.0881 111.341C37.4176 110.655 37.8759 110.121 38.4631 109.739C39.054 109.352 39.7434 109.159 40.5312 109.159C40.9858 109.159 41.4347 109.235 41.8778 109.386C42.321 109.538 42.7244 109.784 43.0881 110.125C43.4517 110.462 43.7415 110.909 43.9574 111.466C44.1733 112.023 44.2812 112.708 44.2812 113.523V114.091H37.554V112.932H42.9176C42.9176 112.439 42.8191 112 42.6222 111.614C42.429 111.227 42.1525 110.922 41.7926 110.699C41.4366 110.475 41.0161 110.364 40.5312 110.364C39.9972 110.364 39.535 110.496 39.1449 110.761C38.7585 111.023 38.4612 111.364 38.2528 111.784C38.0445 112.205 37.9403 112.655 37.9403 113.136V113.909C37.9403 114.568 38.054 115.127 38.2812 115.585C38.5123 116.04 38.8324 116.386 39.2415 116.625C39.6506 116.86 40.1259 116.977 40.6676 116.977C41.0199 116.977 41.3381 116.928 41.6222 116.83C41.91 116.727 42.1581 116.576 42.3665 116.375C42.5748 116.17 42.7358 115.917 42.8494 115.614L44.1449 115.977C44.0085 116.417 43.7794 116.803 43.4574 117.136C43.1354 117.466 42.7377 117.723 42.2642 117.909C41.7907 118.091 41.2585 118.182 40.6676 118.182ZM49.8665 118.182C49.0786 118.182 48.3873 117.994 47.7926 117.619C47.2017 117.244 46.7396 116.72 46.4062 116.045C46.0767 115.371 45.9119 114.583 45.9119 113.682C45.9119 112.773 46.0767 111.979 46.4062 111.301C46.7396 110.623 47.2017 110.097 47.7926 109.722C48.3873 109.347 49.0786 109.159 49.8665 109.159C50.6544 109.159 51.3438 109.347 51.9347 109.722C52.5294 110.097 52.9915 110.623 53.321 111.301C53.6544 111.979 53.821 112.773 53.821 113.682C53.821 114.583 53.6544 115.371 53.321 116.045C52.9915 116.72 52.5294 117.244 51.9347 117.619C51.3438 117.994 50.6544 118.182 49.8665 118.182ZM49.8665 116.977C50.465 116.977 50.9574 116.824 51.3438 116.517C51.7301 116.21 52.0161 115.807 52.2017 115.307C52.3873 114.807 52.4801 114.265 52.4801 113.682C52.4801 113.098 52.3873 112.555 52.2017 112.051C52.0161 111.547 51.7301 111.14 51.3438 110.83C50.9574 110.519 50.465 110.364 49.8665 110.364C49.268 110.364 48.7756 110.519 48.3892 110.83C48.0028 111.14 47.7169 111.547 47.5312 112.051C47.3456 112.555 47.2528 113.098 47.2528 113.682C47.2528 114.265 47.3456 114.807 47.5312 115.307C47.7169 115.807 48.0028 116.21 48.3892 116.517C48.7756 116.824 49.268 116.977 49.8665 116.977ZM55.8679 121.273V109.273H57.1634V110.659H57.3224C57.4209 110.508 57.5573 110.314 57.7315 110.08C57.9096 109.841 58.1634 109.629 58.4929 109.443C58.8262 109.254 59.277 109.159 59.8452 109.159C60.58 109.159 61.2277 109.343 61.7884 109.71C62.349 110.078 62.7865 110.598 63.1009 111.273C63.4152 111.947 63.5724 112.742 63.5724 113.659C63.5724 114.583 63.4152 115.384 63.1009 116.062C62.7865 116.737 62.3509 117.259 61.794 117.631C61.2372 117.998 60.5952 118.182 59.8679 118.182C59.3073 118.182 58.8584 118.089 58.5213 117.903C58.1842 117.714 57.9247 117.5 57.7429 117.261C57.5611 117.019 57.4209 116.818 57.3224 116.659H57.2088V121.273H55.8679ZM57.1861 113.636C57.1861 114.295 57.2827 114.877 57.4759 115.381C57.669 115.881 57.9512 116.273 58.3224 116.557C58.6937 116.837 59.1482 116.977 59.6861 116.977C60.2467 116.977 60.7145 116.83 61.0895 116.534C61.4683 116.235 61.7524 115.833 61.9418 115.33C62.1349 114.822 62.2315 114.258 62.2315 113.636C62.2315 113.023 62.1368 112.47 61.9474 111.977C61.7618 111.481 61.4796 111.089 61.1009 110.801C60.7259 110.509 60.2543 110.364 59.6861 110.364C59.1406 110.364 58.6823 110.502 58.3111 110.778C57.9399 111.051 57.6596 111.434 57.4702 111.926C57.2808 112.415 57.1861 112.985 57.1861 113.636ZM66.9588 106.364V118H65.6179V106.364H66.9588ZM73.0739 118.182C72.233 118.182 71.5076 117.996 70.8977 117.625C70.2917 117.25 69.8239 116.727 69.4943 116.057C69.1686 115.383 69.0057 114.598 69.0057 113.705C69.0057 112.811 69.1686 112.023 69.4943 111.341C69.8239 110.655 70.2822 110.121 70.8693 109.739C71.4602 109.352 72.1496 109.159 72.9375 109.159C73.392 109.159 73.8409 109.235 74.2841 109.386C74.7273 109.538 75.1307 109.784 75.4943 110.125C75.858 110.462 76.1477 110.909 76.3636 111.466C76.5795 112.023 76.6875 112.708 76.6875 113.523V114.091H69.9602V112.932H75.3239C75.3239 112.439 75.2254 112 75.0284 111.614C74.8352 111.227 74.5587 110.922 74.1989 110.699C73.8428 110.475 73.4223 110.364 72.9375 110.364C72.4034 110.364 71.9413 110.496 71.5511 110.761C71.1648 111.023 70.8674 111.364 70.6591 111.784C70.4508 112.205 70.3466 112.655 70.3466 113.136V113.909C70.3466 114.568 70.4602 115.127 70.6875 115.585C70.9186 116.04 71.2386 116.386 71.6477 116.625C72.0568 116.86 72.5322 116.977 73.0739 116.977C73.4261 116.977 73.7443 116.928 74.0284 116.83C74.3163 116.727 74.5644 116.576 74.7727 116.375C74.9811 116.17 75.142 115.917 75.2557 115.614L76.5511 115.977C76.4148 116.417 76.1856 116.803 75.8636 117.136C75.5417 117.466 75.1439 117.723 74.6705 117.909C74.197 118.091 73.6648 118.182 73.0739 118.182Z" fill="#0A0F26" fill-opacity="0.7"/>
<mask id="path-13-inside-5_251_678" fill="white">
<path d="M0 128H103V160H0V128Z"/>
</mask>
<path d="M0 128H103V160H0V128Z" fill="#FFDADB"/>
<path d="M103 159H0V161H103V159Z" fill="#0A0F26" fill-opacity="0.7" mask="url(#path-13-inside-5_251_678)"/>
<path d="M14.7429 144.182C14.7429 145.409 14.5213 146.47 14.0781 147.364C13.6349 148.258 13.027 148.947 12.2543 149.432C11.4815 149.917 10.599 150.159 9.60653 150.159C8.61411 150.159 7.73153 149.917 6.95881 149.432C6.18608 148.947 5.57813 148.258 5.13494 147.364C4.69176 146.47 4.47017 145.409 4.47017 144.182C4.47017 142.955 4.69176 141.894 5.13494 141C5.57813 140.106 6.18608 139.417 6.95881 138.932C7.73153 138.447 8.61411 138.205 9.60653 138.205C10.599 138.205 11.4815 138.447 12.2543 138.932C13.027 139.417 13.6349 140.106 14.0781 141C14.5213 141.894 14.7429 142.955 14.7429 144.182ZM13.3793 144.182C13.3793 143.174 13.2107 142.324 12.8736 141.631C12.5402 140.938 12.0876 140.413 11.5156 140.057C10.9474 139.701 10.3111 139.523 9.60653 139.523C8.90199 139.523 8.26373 139.701 7.69176 140.057C7.12358 140.413 6.67093 140.938 6.33381 141.631C6.00047 142.324 5.83381 143.174 5.83381 144.182C5.83381 145.189 6.00047 146.04 6.33381 146.733C6.67093 147.426 7.12358 147.951 7.69176 148.307C8.26373 148.663 8.90199 148.841 9.60653 148.841C10.3111 148.841 10.9474 148.663 11.5156 148.307C12.0876 147.951 12.5402 147.426 12.8736 146.733C13.2107 146.04 13.3793 145.189 13.3793 144.182ZM16.9304 150V141.273H18.2259V142.591H18.3168C18.4759 142.159 18.7637 141.809 19.1804 141.54C19.5971 141.271 20.0668 141.136 20.5895 141.136C20.688 141.136 20.8111 141.138 20.9588 141.142C21.1065 141.146 21.2183 141.152 21.294 141.159V142.523C21.2486 142.511 21.1444 142.494 20.9815 142.472C20.8224 142.445 20.6539 142.432 20.4759 142.432C20.0516 142.432 19.6728 142.521 19.3395 142.699C19.0099 142.873 18.7486 143.116 18.5554 143.426C18.366 143.733 18.2713 144.083 18.2713 144.477V150H16.9304ZM26.1406 153.455C25.4929 153.455 24.9361 153.371 24.4702 153.205C24.0043 153.042 23.616 152.826 23.3054 152.557C22.9986 152.292 22.7543 152.008 22.5724 151.705L23.6406 150.955C23.7618 151.114 23.9152 151.295 24.1009 151.5C24.2865 151.708 24.5402 151.888 24.8622 152.04C25.188 152.195 25.6141 152.273 26.1406 152.273C26.8452 152.273 27.4266 152.102 27.8849 151.761C28.3433 151.42 28.5724 150.886 28.5724 150.159V148.386H28.4588C28.3603 148.545 28.2202 148.742 28.0384 148.977C27.8603 149.208 27.6027 149.415 27.2656 149.597C26.9323 149.775 26.4815 149.864 25.9134 149.864C25.2088 149.864 24.5762 149.697 24.0156 149.364C23.4588 149.03 23.0175 148.545 22.6918 147.909C22.3698 147.273 22.2088 146.5 22.2088 145.591C22.2088 144.697 22.366 143.919 22.6804 143.256C22.9948 142.589 23.4323 142.074 23.9929 141.71C24.5535 141.343 25.2012 141.159 25.9361 141.159C26.5043 141.159 26.955 141.254 27.2884 141.443C27.6255 141.629 27.883 141.841 28.0611 142.08C28.2429 142.314 28.383 142.508 28.4815 142.659H28.6179V141.273H29.9134V150.25C29.9134 151 29.7429 151.61 29.402 152.08C29.0649 152.553 28.6103 152.9 28.0384 153.119C27.4702 153.343 26.8376 153.455 26.1406 153.455ZM26.0952 148.659C26.633 148.659 27.0876 148.536 27.4588 148.29C27.83 148.044 28.1122 147.689 28.3054 147.227C28.4986 146.765 28.5952 146.212 28.5952 145.568C28.5952 144.939 28.5005 144.384 28.3111 143.903C28.1217 143.422 27.8414 143.045 27.4702 142.773C27.099 142.5 26.6406 142.364 26.0952 142.364C25.527 142.364 25.0535 142.508 24.6747 142.795C24.2997 143.083 24.0175 143.47 23.8281 143.955C23.6425 144.439 23.5497 144.977 23.5497 145.568C23.5497 146.174 23.6444 146.71 23.8338 147.176C24.027 147.638 24.3111 148.002 24.6861 148.267C25.0649 148.528 25.5346 148.659 26.0952 148.659ZM34.9361 150.205C34.383 150.205 33.8812 150.1 33.4304 149.892C32.9796 149.68 32.6217 149.375 32.3565 148.977C32.0914 148.576 31.9588 148.091 31.9588 147.523C31.9588 147.023 32.0573 146.617 32.2543 146.307C32.4512 145.992 32.7145 145.746 33.044 145.568C33.3736 145.39 33.7372 145.258 34.1349 145.17C34.5365 145.08 34.9399 145.008 35.3452 144.955C35.8755 144.886 36.3054 144.835 36.6349 144.801C36.9683 144.763 37.2107 144.701 37.3622 144.614C37.5175 144.527 37.5952 144.375 37.5952 144.159V144.114C37.5952 143.553 37.4418 143.117 37.1349 142.807C36.8319 142.496 36.3717 142.341 35.7543 142.341C35.1141 142.341 34.6122 142.481 34.2486 142.761C33.8849 143.042 33.6293 143.341 33.4815 143.659L32.2088 143.205C32.4361 142.674 32.7391 142.261 33.1179 141.966C33.5005 141.667 33.9171 141.458 34.3679 141.341C34.8224 141.22 35.2694 141.159 35.7088 141.159C35.9891 141.159 36.3111 141.193 36.6747 141.261C37.0421 141.326 37.3963 141.46 37.7372 141.665C38.0819 141.869 38.3679 142.178 38.5952 142.591C38.8224 143.004 38.9361 143.557 38.9361 144.25V150H37.5952V148.818H37.527C37.4361 149.008 37.2846 149.21 37.0724 149.426C36.8603 149.642 36.5781 149.826 36.2259 149.977C35.8736 150.129 35.4437 150.205 34.9361 150.205ZM35.1406 149C35.6709 149 36.1179 148.896 36.4815 148.688C36.849 148.479 37.1255 148.21 37.3111 147.881C37.5005 147.551 37.5952 147.205 37.5952 146.841V145.614C37.5384 145.682 37.4134 145.744 37.2202 145.801C37.0308 145.854 36.8111 145.902 36.5611 145.943C36.3149 145.981 36.0743 146.015 35.8395 146.045C35.6084 146.072 35.4209 146.095 35.277 146.114C34.9285 146.159 34.6027 146.233 34.2997 146.335C34.0005 146.434 33.758 146.583 33.5724 146.784C33.3906 146.981 33.2997 147.25 33.2997 147.591C33.2997 148.057 33.4721 148.409 33.8168 148.648C34.1652 148.883 34.6065 149 35.1406 149ZM42.7244 144.75V150H41.3835V141.273H42.679V142.636H42.7926C42.9972 142.193 43.3078 141.837 43.7244 141.568C44.1411 141.295 44.679 141.159 45.3381 141.159C45.929 141.159 46.446 141.28 46.8892 141.523C47.3324 141.761 47.6771 142.125 47.9233 142.614C48.1695 143.098 48.2926 143.712 48.2926 144.455V150H46.9517V144.545C46.9517 143.86 46.7737 143.326 46.4176 142.943C46.0616 142.557 45.5729 142.364 44.9517 142.364C44.5237 142.364 44.1411 142.456 43.804 142.642C43.4706 142.828 43.2074 143.098 43.0142 143.455C42.821 143.811 42.7244 144.242 42.7244 144.75ZM50.7429 150V141.273H52.0838V150H50.7429ZM51.4247 139.818C51.1634 139.818 50.938 139.729 50.7486 139.551C50.563 139.373 50.4702 139.159 50.4702 138.909C50.4702 138.659 50.563 138.445 50.7486 138.267C50.938 138.089 51.1634 138 51.4247 138C51.6861 138 51.9096 138.089 52.0952 138.267C52.2846 138.445 52.3793 138.659 52.3793 138.909C52.3793 139.159 52.2846 139.373 52.0952 139.551C51.9096 139.729 51.6861 139.818 51.4247 139.818ZM54.2898 150V148.977L59.2443 142.614V142.523H54.4489V141.273H60.9716V142.341L56.1534 148.659V148.75H61.1307V150H54.2898ZM65.7642 150.205C65.2112 150.205 64.7093 150.1 64.2585 149.892C63.8078 149.68 63.4498 149.375 63.1847 148.977C62.9195 148.576 62.7869 148.091 62.7869 147.523C62.7869 147.023 62.8854 146.617 63.0824 146.307C63.2794 145.992 63.5426 145.746 63.8722 145.568C64.2017 145.39 64.5653 145.258 64.9631 145.17C65.3646 145.08 65.768 145.008 66.1733 144.955C66.7036 144.886 67.1335 144.835 67.4631 144.801C67.7964 144.763 68.0388 144.701 68.1903 144.614C68.3456 144.527 68.4233 144.375 68.4233 144.159V144.114C68.4233 143.553 68.2699 143.117 67.9631 142.807C67.66 142.496 67.1998 142.341 66.5824 142.341C65.9422 142.341 65.4403 142.481 65.0767 142.761C64.7131 143.042 64.4574 143.341 64.3097 143.659L63.0369 143.205C63.2642 142.674 63.5672 142.261 63.946 141.966C64.3286 141.667 64.7453 141.458 65.196 141.341C65.6506 141.22 66.0975 141.159 66.5369 141.159C66.8172 141.159 67.1392 141.193 67.5028 141.261C67.8703 141.326 68.2244 141.46 68.5653 141.665C68.91 141.869 69.196 142.178 69.4233 142.591C69.6506 143.004 69.7642 143.557 69.7642 144.25V150H68.4233V148.818H68.3551C68.2642 149.008 68.1127 149.21 67.9006 149.426C67.6884 149.642 67.4063 149.826 67.054 149.977C66.7017 150.129 66.2718 150.205 65.7642 150.205ZM65.9688 149C66.4991 149 66.946 148.896 67.3097 148.688C67.6771 148.479 67.9536 148.21 68.1392 147.881C68.3286 147.551 68.4233 147.205 68.4233 146.841V145.614C68.3665 145.682 68.2415 145.744 68.0483 145.801C67.8589 145.854 67.6392 145.902 67.3892 145.943C67.143 145.981 66.9025 146.015 66.6676 146.045C66.4366 146.072 66.2491 146.095 66.1051 146.114C65.7566 146.159 65.4309 146.233 65.1278 146.335C64.8286 146.434 64.5862 146.583 64.4006 146.784C64.2188 146.981 64.1278 147.25 64.1278 147.591C64.1278 148.057 64.3002 148.409 64.6449 148.648C64.9934 148.883 65.4347 149 65.9688 149ZM76.0071 141.273V142.409H71.4844V141.273H76.0071ZM72.8026 139.182H74.1435V147.5C74.1435 147.879 74.1984 148.163 74.3082 148.352C74.4219 148.538 74.5658 148.663 74.7401 148.727C74.9181 148.788 75.1056 148.818 75.3026 148.818C75.4503 148.818 75.5715 148.811 75.6662 148.795C75.7609 148.777 75.8366 148.761 75.8935 148.75L76.1662 149.955C76.0753 149.989 75.9484 150.023 75.7855 150.057C75.6226 150.095 75.4162 150.114 75.1662 150.114C74.7874 150.114 74.4162 150.032 74.0526 149.869C73.6927 149.706 73.3935 149.458 73.1548 149.125C72.92 148.792 72.8026 148.371 72.8026 147.864V139.182ZM78.0241 150V141.273H79.3651V150H78.0241ZM78.706 139.818C78.4446 139.818 78.2192 139.729 78.0298 139.551C77.8442 139.373 77.7514 139.159 77.7514 138.909C77.7514 138.659 77.8442 138.445 78.0298 138.267C78.2192 138.089 78.4446 138 78.706 138C78.9673 138 79.1908 138.089 79.3764 138.267C79.5658 138.445 79.6605 138.659 79.6605 138.909C79.6605 139.159 79.5658 139.373 79.3764 139.551C79.1908 139.729 78.9673 139.818 78.706 139.818ZM85.3665 150.182C84.5786 150.182 83.8873 149.994 83.2926 149.619C82.7017 149.244 82.2396 148.72 81.9062 148.045C81.5767 147.371 81.4119 146.583 81.4119 145.682C81.4119 144.773 81.5767 143.979 81.9062 143.301C82.2396 142.623 82.7017 142.097 83.2926 141.722C83.8873 141.347 84.5786 141.159 85.3665 141.159C86.1544 141.159 86.8438 141.347 87.4347 141.722C88.0294 142.097 88.4915 142.623 88.821 143.301C89.1544 143.979 89.321 144.773 89.321 145.682C89.321 146.583 89.1544 147.371 88.821 148.045C88.4915 148.72 88.0294 149.244 87.4347 149.619C86.8438 149.994 86.1544 150.182 85.3665 150.182ZM85.3665 148.977C85.965 148.977 86.4574 148.824 86.8438 148.517C87.2301 148.21 87.5161 147.807 87.7017 147.307C87.8873 146.807 87.9801 146.265 87.9801 145.682C87.9801 145.098 87.8873 144.555 87.7017 144.051C87.5161 143.547 87.2301 143.14 86.8438 142.83C86.4574 142.519 85.965 142.364 85.3665 142.364C84.768 142.364 84.2756 142.519 83.8892 142.83C83.5028 143.14 83.2169 143.547 83.0312 144.051C82.8456 144.555 82.7528 145.098 82.7528 145.682C82.7528 146.265 82.8456 146.807 83.0312 147.307C83.2169 147.807 83.5028 148.21 83.8892 148.517C84.2756 148.824 84.768 148.977 85.3665 148.977ZM92.7088 144.75V150H91.3679V141.273H92.6634V142.636H92.777C92.9815 142.193 93.2921 141.837 93.7088 141.568C94.1255 141.295 94.6634 141.159 95.3224 141.159C95.9134 141.159 96.4304 141.28 96.8736 141.523C97.3168 141.761 97.6615 142.125 97.9077 142.614C98.1539 143.098 98.277 143.712 98.277 144.455V150H96.9361V144.545C96.9361 143.86 96.758 143.326 96.402 142.943C96.0459 142.557 95.5573 142.364 94.9361 142.364C94.508 142.364 94.1255 142.456 93.7884 142.642C93.455 142.828 93.1918 143.098 92.9986 143.455C92.8054 143.811 92.7088 144.242 92.7088 144.75Z" fill="#0A0F26" fill-opacity="0.7"/>
<mask id="path-16-inside-6_251_678" fill="white">
<path d="M119.75 0H222.75V32H119.75V0Z"/>
</mask>
<path d="M119.75 0H222.75V32H119.75V0Z" fill="#469C09"/>
<path d="M222.75 31H119.75V33H222.75V31Z" fill="#0A0F26" fill-opacity="0.7" mask="url(#path-16-inside-6_251_678)"/>
<path d="M154.866 11.6136V10.3636H163.594V11.6136H159.935V22H158.526V11.6136H154.866ZM166.967 22.2045C166.414 22.2045 165.912 22.1004 165.462 21.892C165.011 21.6799 164.653 21.375 164.388 20.9773C164.123 20.5758 163.99 20.0909 163.99 19.5227C163.99 19.0227 164.089 18.6174 164.286 18.3068C164.482 17.9924 164.746 17.7462 165.075 17.5682C165.405 17.3902 165.768 17.2576 166.166 17.1705C166.568 17.0795 166.971 17.0076 167.376 16.9545C167.907 16.8864 168.337 16.8352 168.666 16.8011C169 16.7633 169.242 16.7008 169.393 16.6136C169.549 16.5265 169.626 16.375 169.626 16.1591V16.1136C169.626 15.553 169.473 15.1174 169.166 14.8068C168.863 14.4962 168.403 14.3409 167.786 14.3409C167.145 14.3409 166.643 14.4811 166.28 14.7614C165.916 15.0417 165.661 15.3409 165.513 15.6591L164.24 15.2045C164.467 14.6742 164.77 14.2614 165.149 13.9659C165.532 13.6667 165.948 13.4583 166.399 13.3409C166.854 13.2197 167.301 13.1591 167.74 13.1591C168.02 13.1591 168.342 13.1932 168.706 13.2614C169.073 13.3258 169.428 13.4602 169.768 13.6648C170.113 13.8693 170.399 14.178 170.626 14.5909C170.854 15.0038 170.967 15.5568 170.967 16.25V22H169.626V20.8182H169.558C169.467 21.0076 169.316 21.2102 169.104 21.4261C168.892 21.642 168.609 21.8258 168.257 21.9773C167.905 22.1288 167.475 22.2045 166.967 22.2045ZM167.172 21C167.702 21 168.149 20.8958 168.513 20.6875C168.88 20.4792 169.157 20.2102 169.342 19.8807C169.532 19.5511 169.626 19.2045 169.626 18.8409V17.6136C169.57 17.6818 169.445 17.7443 169.251 17.8011C169.062 17.8542 168.842 17.9015 168.592 17.9432C168.346 17.9811 168.106 18.0152 167.871 18.0455C167.64 18.072 167.452 18.0947 167.308 18.1136C166.96 18.1591 166.634 18.233 166.331 18.3352C166.032 18.4337 165.789 18.5833 165.604 18.7841C165.422 18.9811 165.331 19.25 165.331 19.5909C165.331 20.0568 165.503 20.4091 165.848 20.6477C166.196 20.8826 166.638 21 167.172 21ZM179.597 15.2273L178.392 15.5682C178.316 15.3674 178.205 15.1723 178.057 14.983C177.913 14.7898 177.716 14.6307 177.466 14.5057C177.216 14.3807 176.896 14.3182 176.506 14.3182C175.972 14.3182 175.527 14.4413 175.17 14.6875C174.818 14.9299 174.642 15.2386 174.642 15.6136C174.642 15.947 174.763 16.2102 175.006 16.4034C175.248 16.5966 175.627 16.7576 176.142 16.8864L177.438 17.2045C178.218 17.3939 178.799 17.6837 179.182 18.0739C179.564 18.4602 179.756 18.9583 179.756 19.5682C179.756 20.0682 179.612 20.5152 179.324 20.9091C179.04 21.303 178.642 21.6136 178.131 21.8409C177.619 22.0682 177.025 22.1818 176.347 22.1818C175.456 22.1818 174.72 21.9886 174.136 21.6023C173.553 21.2159 173.184 20.6515 173.028 19.9091L174.301 19.5909C174.422 20.0606 174.652 20.4129 174.989 20.6477C175.33 20.8826 175.775 21 176.324 21C176.949 21 177.445 20.8674 177.812 20.6023C178.184 20.3333 178.369 20.0114 178.369 19.6364C178.369 19.3333 178.263 19.0795 178.051 18.875C177.839 18.6667 177.513 18.5114 177.074 18.4091L175.619 18.0682C174.82 17.8788 174.233 17.5852 173.858 17.1875C173.487 16.786 173.301 16.2841 173.301 15.6818C173.301 15.1894 173.439 14.7538 173.716 14.375C173.996 13.9962 174.377 13.6989 174.858 13.483C175.343 13.267 175.892 13.1591 176.506 13.1591C177.369 13.1591 178.047 13.3485 178.54 13.7273C179.036 14.1061 179.388 14.6061 179.597 15.2273ZM183.024 18.8182L183.001 17.1591H183.274L187.092 13.2727H188.751L184.683 17.3864H184.57L183.024 18.8182ZM181.774 22V10.3636H183.115V22H181.774ZM187.32 22L183.911 17.6818L184.865 16.75L189.024 22H187.32Z" fill="#0A0F26" fill-opacity="0.7"/>
<mask id="path-19-inside-7_251_678" fill="white">
<path d="M119.75 32H222.75V64H119.75V32Z"/>
</mask>
<path d="M119.75 32H222.75V64H119.75V32Z" fill="#E6F9FF"/>
<path d="M222.75 63H119.75V65H222.75V63Z" fill="#0A0F26" fill-opacity="0.7" mask="url(#path-19-inside-7_251_678)"/>
<mask id="path-21-inside-8_251_678" fill="white">
<path d="M119.75 64H222.75V96H119.75V64Z"/>
</mask>
<path d="M119.75 64H222.75V96H119.75V64Z" fill="#FFE1C0"/>
<path d="M222.75 95H119.75V97H222.75V95Z" fill="#0A0F26" fill-opacity="0.7" mask="url(#path-21-inside-8_251_678)"/>
<mask id="path-23-inside-9_251_678" fill="white">
<path d="M119.75 96H222.75V128H119.75V96Z"/>
</mask>
<path d="M119.75 96H222.75V128H119.75V96Z" fill="#E0E0AE"/>
<path d="M222.75 127H119.75V129H222.75V127Z" fill="#0A0F26" fill-opacity="0.7" mask="url(#path-23-inside-9_251_678)"/>
<mask id="path-25-inside-10_251_678" fill="white">
<path d="M119.75 128H222.75V160H119.75V128Z"/>
</mask>
<path d="M119.75 128H222.75V160H119.75V128Z" fill="#FFDADB"/>
<path d="M222.75 159H119.75V161H222.75V159Z" fill="#0A0F26" fill-opacity="0.7" mask="url(#path-25-inside-10_251_678)"/>
<mask id="path-27-inside-11_251_678" fill="white">
<path d="M239.5 0H342.5V32H239.5V0Z"/>
</mask>
<path d="M239.5 0H342.5V32H239.5V0Z" fill="#469C09"/>
<path d="M342.5 31H239.5V33H342.5V31Z" fill="#0A0F26" fill-opacity="0.7" mask="url(#path-27-inside-11_251_678)"/>
<path d="M277.415 16.1818C277.415 17.4091 277.193 18.4697 276.75 19.3636C276.307 20.2576 275.699 20.947 274.926 21.4318C274.153 21.9167 273.271 22.1591 272.278 22.1591C271.286 22.1591 270.403 21.9167 269.631 21.4318C268.858 20.947 268.25 20.2576 267.807 19.3636C267.364 18.4697 267.142 17.4091 267.142 16.1818C267.142 14.9545 267.364 13.8939 267.807 13C268.25 12.1061 268.858 11.4167 269.631 10.9318C270.403 10.447 271.286 10.2045 272.278 10.2045C273.271 10.2045 274.153 10.447 274.926 10.9318C275.699 11.4167 276.307 12.1061 276.75 13C277.193 13.8939 277.415 14.9545 277.415 16.1818ZM276.051 16.1818C276.051 15.1742 275.883 14.3239 275.545 13.6307C275.212 12.9375 274.759 12.4129 274.188 12.0568C273.619 11.7008 272.983 11.5227 272.278 11.5227C271.574 11.5227 270.936 11.7008 270.364 12.0568C269.795 12.4129 269.343 12.9375 269.006 13.6307C268.672 14.3239 268.506 15.1742 268.506 16.1818C268.506 17.1894 268.672 18.0398 269.006 18.733C269.343 19.4261 269.795 19.9508 270.364 20.3068C270.936 20.6629 271.574 20.8409 272.278 20.8409C272.983 20.8409 273.619 20.6629 274.188 20.3068C274.759 19.9508 275.212 19.4261 275.545 18.733C275.883 18.0398 276.051 17.1894 276.051 16.1818ZM281.58 22L278.92 13.2727H280.33L282.216 19.9545H282.307L284.17 13.2727H285.602L287.443 19.9318H287.534L289.42 13.2727H290.83L288.17 22H286.852L284.943 15.2955H284.807L282.898 22H281.58ZM293.943 16.75V22H292.602V13.2727H293.898V14.6364H294.011C294.216 14.1932 294.527 13.8371 294.943 13.5682C295.36 13.2955 295.898 13.1591 296.557 13.1591C297.148 13.1591 297.665 13.2803 298.108 13.5227C298.551 13.7614 298.896 14.125 299.142 14.6136C299.388 15.0985 299.511 15.7121 299.511 16.4545V22H298.17V16.5455C298.17 15.8598 297.992 15.3258 297.636 14.9432C297.28 14.5568 296.792 14.3636 296.17 14.3636C295.742 14.3636 295.36 14.4564 295.023 14.642C294.689 14.8277 294.426 15.0985 294.233 15.4545C294.04 15.8106 293.943 16.2424 293.943 16.75ZM305.621 22.1818C304.78 22.1818 304.054 21.9962 303.445 21.625C302.839 21.25 302.371 20.7273 302.041 20.0568C301.715 19.3826 301.553 18.5985 301.553 17.7045C301.553 16.8106 301.715 16.0227 302.041 15.3409C302.371 14.6553 302.829 14.1212 303.416 13.7386C304.007 13.3523 304.696 13.1591 305.484 13.1591C305.939 13.1591 306.388 13.2348 306.831 13.3864C307.274 13.5379 307.678 13.7841 308.041 14.125C308.405 14.4621 308.695 14.9091 308.911 15.4659C309.126 16.0227 309.234 16.7083 309.234 17.5227V18.0909H302.507V16.9318H307.871C307.871 16.4394 307.772 16 307.575 15.6136C307.382 15.2273 307.106 14.9223 306.746 14.6989C306.39 14.4754 305.969 14.3636 305.484 14.3636C304.95 14.3636 304.488 14.4962 304.098 14.7614C303.712 15.0227 303.414 15.3636 303.206 15.7841C302.998 16.2045 302.893 16.6553 302.893 17.1364V17.9091C302.893 18.5682 303.007 19.1269 303.234 19.5852C303.465 20.0398 303.786 20.3864 304.195 20.625C304.604 20.8598 305.079 20.9773 305.621 20.9773C305.973 20.9773 306.291 20.928 306.575 20.8295C306.863 20.7273 307.111 20.5758 307.32 20.375C307.528 20.1705 307.689 19.9167 307.803 19.6136L309.098 19.9773C308.962 20.4167 308.732 20.803 308.411 21.1364C308.089 21.4659 307.691 21.7235 307.217 21.9091C306.744 22.0909 306.212 22.1818 305.621 22.1818ZM311.274 22V13.2727H312.57V14.5909H312.661C312.82 14.1591 313.107 13.8087 313.524 13.5398C313.941 13.2708 314.411 13.1364 314.933 13.1364C315.032 13.1364 315.155 13.1383 315.303 13.142C315.45 13.1458 315.562 13.1515 315.638 13.1591V14.5227C315.592 14.5114 315.488 14.4943 315.325 14.4716C315.166 14.4451 314.998 14.4318 314.82 14.4318C314.395 14.4318 314.017 14.5208 313.683 14.6989C313.354 14.8731 313.092 15.1155 312.899 15.4261C312.71 15.733 312.615 16.0833 312.615 16.4773V22H311.274Z" fill="#0A0F26" fill-opacity="0.7"/>
<mask id="path-30-inside-12_251_678" fill="white">
<path d="M239.5 32H342.5V64H239.5V32Z"/>
</mask>
<path d="M239.5 32H342.5V64H239.5V32Z" fill="#E6F9FF"/>
<path d="M342.5 63H239.5V65H342.5V63Z" fill="#0A0F26" fill-opacity="0.7" mask="url(#path-30-inside-12_251_678)"/>
<mask id="path-32-inside-13_251_678" fill="white">
<path d="M239.5 64H342.5V96H239.5V64Z"/>
</mask>
<path d="M239.5 64H342.5V96H239.5V64Z" fill="#FFE1C0"/>
<path d="M342.5 95H239.5V97H342.5V95Z" fill="#0A0F26" fill-opacity="0.7" mask="url(#path-32-inside-13_251_678)"/>
<mask id="path-34-inside-14_251_678" fill="white">
<path d="M239.5 96H342.5V128H239.5V96Z"/>
</mask>
<path d="M239.5 96H342.5V128H239.5V96Z" fill="#E0E0AE"/>
<path d="M342.5 127H239.5V129H342.5V127Z" fill="#0A0F26" fill-opacity="0.7" mask="url(#path-34-inside-14_251_678)"/>
<mask id="path-36-inside-15_251_678" fill="white">
<path d="M239.5 128H342.5V160H239.5V128Z"/>
</mask>
<path d="M239.5 128H342.5V160H239.5V128Z" fill="#FFDADB"/>
<path d="M342.5 159H239.5V161H342.5V159Z" fill="#0A0F26" fill-opacity="0.7" mask="url(#path-36-inside-15_251_678)"/>
<mask id="path-38-inside-16_251_678" fill="white">
<path d="M359.25 0H462.25V32H359.25V0Z"/>
</mask>
<path d="M359.25 0H462.25V32H359.25V0Z" fill="#469C09"/>
<path d="M462.25 31H359.25V33H462.25V31Z" fill="#0A0F26" fill-opacity="0.7" mask="url(#path-38-inside-16_251_678)"/>
<path d="M383.219 22H379.628V10.3636H383.378C384.507 10.3636 385.473 10.5966 386.276 11.0625C387.079 11.5246 387.694 12.1894 388.122 13.0568C388.55 13.9205 388.764 14.9545 388.764 16.1591C388.764 17.3712 388.548 18.4148 388.116 19.2898C387.685 20.161 387.056 20.8314 386.23 21.3011C385.404 21.767 384.401 22 383.219 22ZM381.037 20.75H383.128C384.09 20.75 384.887 20.5644 385.52 20.1932C386.152 19.822 386.624 19.2936 386.935 18.608C387.245 17.9223 387.401 17.1061 387.401 16.1591C387.401 15.2197 387.247 14.411 386.94 13.733C386.634 13.0511 386.175 12.5284 385.565 12.1648C384.955 11.7973 384.196 11.6136 383.287 11.6136H381.037V20.75ZM394.605 22.1818C393.764 22.1818 393.039 21.9962 392.429 21.625C391.823 21.25 391.355 20.7273 391.026 20.0568C390.7 19.3826 390.537 18.5985 390.537 17.7045C390.537 16.8106 390.7 16.0227 391.026 15.3409C391.355 14.6553 391.813 14.1212 392.401 13.7386C392.991 13.3523 393.681 13.1591 394.469 13.1591C394.923 13.1591 395.372 13.2348 395.815 13.3864C396.259 13.5379 396.662 13.7841 397.026 14.125C397.389 14.4621 397.679 14.9091 397.895 15.4659C398.111 16.0227 398.219 16.7083 398.219 17.5227V18.0909H391.491V16.9318H396.855C396.855 16.4394 396.757 16 396.56 15.6136C396.366 15.2273 396.09 14.9223 395.73 14.6989C395.374 14.4754 394.954 14.3636 394.469 14.3636C393.935 14.3636 393.473 14.4962 393.082 14.7614C392.696 15.0227 392.399 15.3636 392.19 15.7841C391.982 16.2045 391.878 16.6553 391.878 17.1364V17.9091C391.878 18.5682 391.991 19.1269 392.219 19.5852C392.45 20.0398 392.77 20.3864 393.179 20.625C393.588 20.8598 394.063 20.9773 394.605 20.9773C394.957 20.9773 395.276 20.928 395.56 20.8295C395.848 20.7273 396.096 20.5758 396.304 20.375C396.512 20.1705 396.673 19.9167 396.787 19.6136L398.082 19.9773C397.946 20.4167 397.717 20.803 397.395 21.1364C397.073 21.4659 396.675 21.7235 396.202 21.9091C395.728 22.0909 395.196 22.1818 394.605 22.1818ZM402.827 22.2045C402.274 22.2045 401.772 22.1004 401.321 21.892C400.87 21.6799 400.512 21.375 400.247 20.9773C399.982 20.5758 399.849 20.0909 399.849 19.5227C399.849 19.0227 399.948 18.6174 400.145 18.3068C400.342 17.9924 400.605 17.7462 400.935 17.5682C401.264 17.3902 401.628 17.2576 402.026 17.1705C402.427 17.0795 402.83 17.0076 403.236 16.9545C403.766 16.8864 404.196 16.8352 404.526 16.8011C404.859 16.7633 405.101 16.7008 405.253 16.6136C405.408 16.5265 405.486 16.375 405.486 16.1591V16.1136C405.486 15.553 405.332 15.1174 405.026 14.8068C404.723 14.4962 404.262 14.3409 403.645 14.3409C403.005 14.3409 402.503 14.4811 402.139 14.7614C401.776 15.0417 401.52 15.3409 401.372 15.6591L400.099 15.2045C400.327 14.6742 400.63 14.2614 401.009 13.9659C401.391 13.6667 401.808 13.4583 402.259 13.3409C402.713 13.2197 403.16 13.1591 403.599 13.1591C403.88 13.1591 404.202 13.1932 404.565 13.2614C404.933 13.3258 405.287 13.4602 405.628 13.6648C405.973 13.8693 406.259 14.178 406.486 14.5909C406.713 15.0038 406.827 15.5568 406.827 16.25V22H405.486V20.8182H405.418C405.327 21.0076 405.175 21.2102 404.963 21.4261C404.751 21.642 404.469 21.8258 404.116 21.9773C403.764 22.1288 403.334 22.2045 402.827 22.2045ZM403.031 21C403.562 21 404.009 20.8958 404.372 20.6875C404.74 20.4792 405.016 20.2102 405.202 19.8807C405.391 19.5511 405.486 19.2045 405.486 18.8409V17.6136C405.429 17.6818 405.304 17.7443 405.111 17.8011C404.921 17.8542 404.702 17.9015 404.452 17.9432C404.205 17.9811 403.965 18.0152 403.73 18.0455C403.499 18.072 403.312 18.0947 403.168 18.1136C402.819 18.1591 402.493 18.233 402.19 18.3352C401.891 18.4337 401.649 18.5833 401.463 18.7841C401.281 18.9811 401.19 19.25 401.19 19.5909C401.19 20.0568 401.363 20.4091 401.707 20.6477C402.056 20.8826 402.497 21 403.031 21ZM412.57 22.1818C411.842 22.1818 411.2 21.9981 410.643 21.6307C410.087 21.2595 409.651 20.7367 409.337 20.0625C409.022 19.3845 408.865 18.5833 408.865 17.6591C408.865 16.7424 409.022 15.947 409.337 15.2727C409.651 14.5985 410.089 14.0777 410.649 13.7102C411.21 13.3428 411.857 13.1591 412.592 13.1591C413.161 13.1591 413.609 13.2538 413.939 13.4432C414.272 13.6288 414.526 13.8409 414.7 14.0795C414.878 14.3144 415.017 14.5076 415.115 14.6591H415.229V10.3636H416.57V22H415.274V20.6591H415.115C415.017 20.8182 414.876 21.0189 414.695 21.2614C414.513 21.5 414.253 21.714 413.916 21.9034C413.579 22.089 413.13 22.1818 412.57 22.1818ZM412.751 20.9773C413.289 20.9773 413.744 20.8371 414.115 20.5568C414.486 20.2727 414.768 19.8807 414.962 19.3807C415.155 18.8769 415.251 18.2955 415.251 17.6364C415.251 16.9848 415.157 16.4148 414.967 15.9261C414.778 15.4337 414.498 15.0511 414.126 14.7784C413.755 14.5019 413.297 14.3636 412.751 14.3636C412.183 14.3636 411.71 14.5095 411.331 14.8011C410.956 15.089 410.674 15.4811 410.484 15.9773C410.299 16.4697 410.206 17.0227 410.206 17.6364C410.206 18.2576 410.301 18.822 410.49 19.3295C410.683 19.8333 410.967 20.2348 411.342 20.5341C411.721 20.8295 412.191 20.9773 412.751 20.9773ZM420.553 10.3636V22H419.212V10.3636H420.553ZM423.009 22V13.2727H424.349V22H423.009ZM423.69 11.8182C423.429 11.8182 423.204 11.7292 423.014 11.5511C422.829 11.3731 422.736 11.1591 422.736 10.9091C422.736 10.6591 422.829 10.4451 423.014 10.267C423.204 10.089 423.429 10 423.69 10C423.952 10 424.175 10.089 424.361 10.267C424.55 10.4451 424.645 10.6591 424.645 10.9091C424.645 11.1591 424.55 11.3731 424.361 11.5511C424.175 11.7292 423.952 11.8182 423.69 11.8182ZM428.146 16.75V22H426.805V13.2727H428.101V14.6364H428.214C428.419 14.1932 428.73 13.8371 429.146 13.5682C429.563 13.2955 430.101 13.1591 430.76 13.1591C431.351 13.1591 431.868 13.2803 432.311 13.5227C432.754 13.7614 433.099 14.125 433.345 14.6136C433.591 15.0985 433.714 15.7121 433.714 16.4545V22H432.374V16.5455C432.374 15.8598 432.196 15.3258 431.839 14.9432C431.483 14.5568 430.995 14.3636 430.374 14.3636C429.946 14.3636 429.563 14.4564 429.226 14.642C428.893 14.8277 428.629 15.0985 428.436 15.4545C428.243 15.8106 428.146 16.2424 428.146 16.75ZM439.824 22.1818C438.983 22.1818 438.258 21.9962 437.648 21.625C437.042 21.25 436.574 20.7273 436.244 20.0568C435.919 19.3826 435.756 18.5985 435.756 17.7045C435.756 16.8106 435.919 16.0227 436.244 15.3409C436.574 14.6553 437.032 14.1212 437.619 13.7386C438.21 13.3523 438.9 13.1591 439.688 13.1591C440.142 13.1591 440.591 13.2348 441.034 13.3864C441.477 13.5379 441.881 13.7841 442.244 14.125C442.608 14.4621 442.898 14.9091 443.114 15.4659C443.33 16.0227 443.438 16.7083 443.438 17.5227V18.0909H436.71V16.9318H442.074C442.074 16.4394 441.975 16 441.778 15.6136C441.585 15.2273 441.309 14.9223 440.949 14.6989C440.593 14.4754 440.172 14.3636 439.688 14.3636C439.153 14.3636 438.691 14.4962 438.301 14.7614C437.915 15.0227 437.617 15.3636 437.409 15.7841C437.201 16.2045 437.097 16.6553 437.097 17.1364V17.9091C437.097 18.5682 437.21 19.1269 437.438 19.5852C437.669 20.0398 437.989 20.3864 438.398 20.625C438.807 20.8598 439.282 20.9773 439.824 20.9773C440.176 20.9773 440.494 20.928 440.778 20.8295C441.066 20.7273 441.314 20.5758 441.523 20.375C441.731 20.1705 441.892 19.9167 442.006 19.6136L443.301 19.9773C443.165 20.4167 442.936 20.803 442.614 21.1364C442.292 21.4659 441.894 21.7235 441.42 21.9091C440.947 22.0909 440.415 22.1818 439.824 22.1818Z" fill="#0A0F26" fill-opacity="0.7"/>
<mask id="path-41-inside-17_251_678" fill="white">
<path d="M359.25 32H462.25V64H359.25V32Z"/>
</mask>
<path d="M359.25 32H462.25V64H359.25V32Z" fill="#E5F9FF"/>
<path d="M462.25 63H359.25V65H462.25V63Z" fill="#0A0F26" fill-opacity="0.7" mask="url(#path-41-inside-17_251_678)"/>
<mask id="path-43-inside-18_251_678" fill="white">
<path d="M359.25 64H462.25V96H359.25V64Z"/>
</mask>
<path d="M359.25 64H462.25V96H359.25V64Z" fill="#FFE1C0"/>
<path d="M462.25 95H359.25V97H462.25V95Z" fill="#0A0F26" fill-opacity="0.7" mask="url(#path-43-inside-18_251_678)"/>
<mask id="path-45-inside-19_251_678" fill="white">
<path d="M359.25 96H462.25V128H359.25V96Z"/>
</mask>
<path d="M359.25 96H462.25V128H359.25V96Z" fill="#E0E0AE"/>
<path d="M462.25 127H359.25V129H462.25V127Z" fill="#0A0F26" fill-opacity="0.7" mask="url(#path-45-inside-19_251_678)"/>
<mask id="path-47-inside-20_251_678" fill="white">
<path d="M359.25 128H462.25V160H359.25V128Z"/>
</mask>
<path d="M359.25 128H462.25V160H359.25V128Z" fill="#FFDADB"/>
<path d="M462.25 159H359.25V161H462.25V159Z" fill="#0A0F26" fill-opacity="0.7" mask="url(#path-47-inside-20_251_678)"/>
<mask id="path-49-inside-21_251_678" fill="white">
<path d="M479 0H582V32H479V0Z"/>
</mask>
<path d="M479 0H582V32H479V0Z" fill="#469C09"/>
<path d="M582 31H479V33H582V31Z" fill="#0A0F26" fill-opacity="0.7" mask="url(#path-49-inside-21_251_678)"/>
<path d="M514.273 13.2727C514.205 12.697 513.928 12.25 513.443 11.9318C512.958 11.6136 512.364 11.4545 511.659 11.4545C511.144 11.4545 510.693 11.5379 510.307 11.7045C509.924 11.8712 509.625 12.1004 509.409 12.392C509.197 12.6837 509.091 13.0152 509.091 13.3864C509.091 13.697 509.165 13.964 509.312 14.1875C509.464 14.4072 509.657 14.5909 509.892 14.7386C510.127 14.8826 510.373 15.0019 510.631 15.0966C510.888 15.1875 511.125 15.2614 511.341 15.3182L512.523 15.6364C512.826 15.7159 513.163 15.8258 513.534 15.9659C513.909 16.1061 514.267 16.2973 514.608 16.5398C514.953 16.7784 515.237 17.0852 515.46 17.4602C515.684 17.8352 515.795 18.2955 515.795 18.8409C515.795 19.4697 515.631 20.0379 515.301 20.5455C514.975 21.053 514.498 21.4564 513.869 21.7557C513.244 22.0549 512.485 22.2045 511.591 22.2045C510.758 22.2045 510.036 22.0701 509.426 21.8011C508.82 21.5322 508.343 21.1572 507.994 20.6761C507.65 20.1951 507.455 19.6364 507.409 19H508.864C508.902 19.4394 509.049 19.803 509.307 20.0909C509.568 20.375 509.898 20.5871 510.295 20.7273C510.697 20.8636 511.129 20.9318 511.591 20.9318C512.129 20.9318 512.612 20.8447 513.04 20.6705C513.468 20.4924 513.807 20.2462 514.057 19.9318C514.307 19.6136 514.432 19.2424 514.432 18.8182C514.432 18.4318 514.324 18.1174 514.108 17.875C513.892 17.6326 513.608 17.4356 513.256 17.2841C512.903 17.1326 512.523 17 512.114 16.8864L510.682 16.4773C509.773 16.2159 509.053 15.8428 508.523 15.358C507.992 14.8731 507.727 14.2386 507.727 13.4545C507.727 12.803 507.903 12.2348 508.256 11.75C508.612 11.2614 509.089 10.8826 509.688 10.6136C510.29 10.3409 510.962 10.2045 511.705 10.2045C512.455 10.2045 513.121 10.339 513.705 10.608C514.288 10.8731 514.75 11.2367 515.091 11.6989C515.436 12.161 515.617 12.6856 515.636 13.2727H514.273ZM521.726 13.2727V14.4091H517.203V13.2727H521.726ZM518.521 11.1818H519.862V19.5C519.862 19.8788 519.917 20.1629 520.027 20.3523C520.141 20.5379 520.285 20.6629 520.459 20.7273C520.637 20.7879 520.824 20.8182 521.021 20.8182C521.169 20.8182 521.29 20.8106 521.385 20.7955C521.48 20.7765 521.555 20.7614 521.612 20.75L521.885 21.9545C521.794 21.9886 521.667 22.0227 521.504 22.0568C521.341 22.0947 521.135 22.1136 520.885 22.1136C520.506 22.1136 520.135 22.0322 519.771 21.8693C519.411 21.7064 519.112 21.4583 518.874 21.125C518.639 20.7917 518.521 20.3712 518.521 19.8636V11.1818ZM526.311 22.2045C525.758 22.2045 525.256 22.1004 524.805 21.892C524.355 21.6799 523.997 21.375 523.732 20.9773C523.466 20.5758 523.334 20.0909 523.334 19.5227C523.334 19.0227 523.432 18.6174 523.629 18.3068C523.826 17.9924 524.089 17.7462 524.419 17.5682C524.749 17.3902 525.112 17.2576 525.51 17.1705C525.911 17.0795 526.315 17.0076 526.72 16.9545C527.25 16.8864 527.68 16.8352 528.01 16.8011C528.343 16.7633 528.586 16.7008 528.737 16.6136C528.893 16.5265 528.97 16.375 528.97 16.1591V16.1136C528.97 15.553 528.817 15.1174 528.51 14.8068C528.207 14.4962 527.747 14.3409 527.129 14.3409C526.489 14.3409 525.987 14.4811 525.624 14.7614C525.26 15.0417 525.004 15.3409 524.857 15.6591L523.584 15.2045C523.811 14.6742 524.114 14.2614 524.493 13.9659C524.875 13.6667 525.292 13.4583 525.743 13.3409C526.197 13.2197 526.644 13.1591 527.084 13.1591C527.364 13.1591 527.686 13.1932 528.05 13.2614C528.417 13.3258 528.771 13.4602 529.112 13.6648C529.457 13.8693 529.743 14.178 529.97 14.5909C530.197 15.0038 530.311 15.5568 530.311 16.25V22H528.97V20.8182H528.902C528.811 21.0076 528.66 21.2102 528.447 21.4261C528.235 21.642 527.953 21.8258 527.601 21.9773C527.249 22.1288 526.819 22.2045 526.311 22.2045ZM526.516 21C527.046 21 527.493 20.8958 527.857 20.6875C528.224 20.4792 528.5 20.2102 528.686 19.8807C528.875 19.5511 528.97 19.2045 528.97 18.8409V17.6136C528.913 17.6818 528.788 17.7443 528.595 17.8011C528.406 17.8542 528.186 17.9015 527.936 17.9432C527.69 17.9811 527.449 18.0152 527.214 18.0455C526.983 18.072 526.796 18.0947 526.652 18.1136C526.304 18.1591 525.978 18.233 525.675 18.3352C525.375 18.4337 525.133 18.5833 524.947 18.7841C524.766 18.9811 524.675 19.25 524.675 19.5909C524.675 20.0568 524.847 20.4091 525.192 20.6477C525.54 20.8826 525.982 21 526.516 21ZM536.554 13.2727V14.4091H532.031V13.2727H536.554ZM533.349 11.1818H534.69V19.5C534.69 19.8788 534.745 20.1629 534.855 20.3523C534.969 20.5379 535.113 20.6629 535.287 20.7273C535.465 20.7879 535.652 20.8182 535.849 20.8182C535.997 20.8182 536.118 20.8106 536.213 20.7955C536.308 20.7765 536.384 20.7614 536.44 20.75L536.713 21.9545C536.622 21.9886 536.495 22.0227 536.332 22.0568C536.17 22.0947 535.963 22.1136 535.713 22.1136C535.334 22.1136 534.963 22.0322 534.599 21.8693C534.24 21.7064 533.94 21.4583 533.702 21.125C533.467 20.7917 533.349 20.3712 533.349 19.8636V11.1818ZM544.071 18.4318V13.2727H545.412V22H544.071V20.5227H543.98C543.776 20.9659 543.457 21.3428 543.026 21.6534C542.594 21.9602 542.048 22.1136 541.389 22.1136C540.844 22.1136 540.359 21.9943 539.935 21.7557C539.51 21.5133 539.177 21.1496 538.935 20.6648C538.692 20.1761 538.571 19.5606 538.571 18.8182V13.2727H539.912V18.7273C539.912 19.3636 540.09 19.8712 540.446 20.25C540.806 20.6288 541.264 20.8182 541.821 20.8182C542.154 20.8182 542.493 20.733 542.838 20.5625C543.187 20.392 543.478 20.1307 543.713 19.7784C543.952 19.4261 544.071 18.9773 544.071 18.4318ZM554.05 15.2273L552.845 15.5682C552.769 15.3674 552.658 15.1723 552.51 14.983C552.366 14.7898 552.169 14.6307 551.919 14.5057C551.669 14.3807 551.349 14.3182 550.959 14.3182C550.425 14.3182 549.98 14.4413 549.624 14.6875C549.271 14.9299 549.095 15.2386 549.095 15.6136C549.095 15.947 549.216 16.2102 549.459 16.4034C549.701 16.5966 550.08 16.7576 550.595 16.8864L551.891 17.2045C552.671 17.3939 553.252 17.6837 553.635 18.0739C554.018 18.4602 554.209 18.9583 554.209 19.5682C554.209 20.0682 554.065 20.5152 553.777 20.9091C553.493 21.303 553.095 21.6136 552.584 21.8409C552.072 22.0682 551.478 22.1818 550.8 22.1818C549.91 22.1818 549.173 21.9886 548.589 21.6023C548.006 21.2159 547.637 20.6515 547.482 19.9091L548.754 19.5909C548.875 20.0606 549.105 20.4129 549.442 20.6477C549.783 20.8826 550.228 21 550.777 21C551.402 21 551.898 20.8674 552.266 20.6023C552.637 20.3333 552.822 20.0114 552.822 19.6364C552.822 19.3333 552.716 19.0795 552.504 18.875C552.292 18.6667 551.966 18.5114 551.527 18.4091L550.072 18.0682C549.273 17.8788 548.686 17.5852 548.311 17.1875C547.94 16.786 547.754 16.2841 547.754 15.6818C547.754 15.1894 547.893 14.7538 548.169 14.375C548.449 13.9962 548.83 13.6989 549.311 13.483C549.796 13.267 550.345 13.1591 550.959 13.1591C551.822 13.1591 552.5 13.3485 552.993 13.7273C553.489 14.1061 553.841 14.6061 554.05 15.2273Z" fill="#0A0F26" fill-opacity="0.7"/>
<mask id="path-52-inside-22_251_678" fill="white">
<path d="M479 32H582V64H479V32Z"/>
</mask>
<path d="M479 32H582V64H479V32Z" fill="#36C4EE"/>
<path d="M582 63H479V65H582V63Z" fill="#0A0F26" fill-opacity="0.7" mask="url(#path-52-inside-22_251_678)"/>
<path d="M515.781 54H512.19V42.3636H515.94C517.069 42.3636 518.035 42.5966 518.838 43.0625C519.641 43.5246 520.257 44.1894 520.685 45.0568C521.113 45.9205 521.327 46.9545 521.327 48.1591C521.327 49.3712 521.111 50.4148 520.679 51.2898C520.247 52.161 519.618 52.8314 518.793 53.3011C517.967 53.767 516.963 54 515.781 54ZM513.599 52.75H515.69C516.652 52.75 517.45 52.5644 518.082 52.1932C518.715 51.822 519.187 51.2936 519.497 50.608C519.808 49.9223 519.963 49.1061 519.963 48.1591C519.963 47.2197 519.81 46.411 519.503 45.733C519.196 45.0511 518.738 44.5284 518.128 44.1648C517.518 43.7973 516.759 43.6136 515.849 43.6136H513.599V52.75ZM527.054 54.1818C526.266 54.1818 525.575 53.9943 524.98 53.6193C524.389 53.2443 523.927 52.7197 523.594 52.0455C523.264 51.3712 523.099 50.5833 523.099 49.6818C523.099 48.7727 523.264 47.9792 523.594 47.3011C523.927 46.6231 524.389 46.0966 524.98 45.7216C525.575 45.3466 526.266 45.1591 527.054 45.1591C527.842 45.1591 528.531 45.3466 529.122 45.7216C529.717 46.0966 530.179 46.6231 530.509 47.3011C530.842 47.9792 531.009 48.7727 531.009 49.6818C531.009 50.5833 530.842 51.3712 530.509 52.0455C530.179 52.7197 529.717 53.2443 529.122 53.6193C528.531 53.9943 527.842 54.1818 527.054 54.1818ZM527.054 52.9773C527.652 52.9773 528.145 52.8239 528.531 52.517C528.918 52.2102 529.204 51.8068 529.389 51.3068C529.575 50.8068 529.668 50.2652 529.668 49.6818C529.668 49.0985 529.575 48.5549 529.389 48.0511C529.204 47.5473 528.918 47.1402 528.531 46.8295C528.145 46.5189 527.652 46.3636 527.054 46.3636C526.455 46.3636 525.963 46.5189 525.577 46.8295C525.19 47.1402 524.904 47.5473 524.719 48.0511C524.533 48.5549 524.44 49.0985 524.44 49.6818C524.44 50.2652 524.533 50.8068 524.719 51.3068C524.904 51.8068 525.19 52.2102 525.577 52.517C525.963 52.8239 526.455 52.9773 527.054 52.9773ZM534.396 48.75V54H533.055V45.2727H534.351V46.6364H534.464C534.669 46.1932 534.98 45.8371 535.396 45.5682C535.813 45.2955 536.351 45.1591 537.01 45.1591C537.601 45.1591 538.118 45.2803 538.561 45.5227C539.004 45.7614 539.349 46.125 539.595 46.6136C539.841 47.0985 539.964 47.7121 539.964 48.4545V54H538.624V48.5455C538.624 47.8598 538.446 47.3258 538.089 46.9432C537.733 46.5568 537.245 46.3636 536.624 46.3636C536.196 46.3636 535.813 46.4564 535.476 46.642C535.143 46.8277 534.879 47.0985 534.686 47.4545C534.493 47.8106 534.396 48.2424 534.396 48.75ZM546.074 54.1818C545.233 54.1818 544.508 53.9962 543.898 53.625C543.292 53.25 542.824 52.7273 542.494 52.0568C542.169 51.3826 542.006 50.5985 542.006 49.7045C542.006 48.8106 542.169 48.0227 542.494 47.3409C542.824 46.6553 543.282 46.1212 543.869 45.7386C544.46 45.3523 545.15 45.1591 545.938 45.1591C546.392 45.1591 546.841 45.2348 547.284 45.3864C547.727 45.5379 548.131 45.7841 548.494 46.125C548.858 46.4621 549.148 46.9091 549.364 47.4659C549.58 48.0227 549.688 48.7083 549.688 49.5227V50.0909H542.96V48.9318H548.324C548.324 48.4394 548.225 48 548.028 47.6136C547.835 47.2273 547.559 46.9223 547.199 46.6989C546.843 46.4754 546.422 46.3636 545.938 46.3636C545.403 46.3636 544.941 46.4962 544.551 46.7614C544.165 47.0227 543.867 47.3636 543.659 47.7841C543.451 48.2045 543.347 48.6553 543.347 49.1364V49.9091C543.347 50.5682 543.46 51.1269 543.688 51.5852C543.919 52.0398 544.239 52.3864 544.648 52.625C545.057 52.8598 545.532 52.9773 546.074 52.9773C546.426 52.9773 546.744 52.928 547.028 52.8295C547.316 52.7273 547.564 52.5758 547.773 52.375C547.981 52.1705 548.142 51.9167 548.256 51.6136L549.551 51.9773C549.415 52.4167 549.186 52.803 548.864 53.1364C548.542 53.4659 548.144 53.7235 547.67 53.9091C547.197 54.0909 546.665 54.1818 546.074 54.1818Z" fill="#0A0F26" fill-opacity="0.7"/>
<mask id="path-55-inside-23_251_678" fill="white">
<path d="M479 64H582V96H479V64Z"/>
</mask>
<path d="M479 64H582V96H479V64Z" fill="#F89A31"/>
<path d="M582 95H479V97H582V95Z" fill="#0A0F26" fill-opacity="0.7" mask="url(#path-55-inside-23_251_678)"/>
<path d="M498.074 74.3636V86H496.71L490.369 76.8636H490.256V86H488.847V74.3636H490.21L496.574 83.5227H496.688V74.3636H498.074ZM504.257 86.1818C503.469 86.1818 502.778 85.9943 502.183 85.6193C501.592 85.2443 501.13 84.7197 500.797 84.0455C500.467 83.3712 500.303 82.5833 500.303 81.6818C500.303 80.7727 500.467 79.9792 500.797 79.3011C501.13 78.6231 501.592 78.0966 502.183 77.7216C502.778 77.3466 503.469 77.1591 504.257 77.1591C505.045 77.1591 505.734 77.3466 506.325 77.7216C506.92 78.0966 507.382 78.6231 507.712 79.3011C508.045 79.9792 508.212 80.7727 508.212 81.6818C508.212 82.5833 508.045 83.3712 507.712 84.0455C507.382 84.7197 506.92 85.2443 506.325 85.6193C505.734 85.9943 505.045 86.1818 504.257 86.1818ZM504.257 84.9773C504.856 84.9773 505.348 84.8239 505.734 84.517C506.121 84.2102 506.407 83.8068 506.592 83.3068C506.778 82.8068 506.871 82.2652 506.871 81.6818C506.871 81.0985 506.778 80.5549 506.592 80.0511C506.407 79.5473 506.121 79.1402 505.734 78.8295C505.348 78.5189 504.856 78.3636 504.257 78.3636C503.659 78.3636 503.166 78.5189 502.78 78.8295C502.393 79.1402 502.107 79.5473 501.922 80.0511C501.736 80.5549 501.643 81.0985 501.643 81.6818C501.643 82.2652 501.736 82.8068 501.922 83.3068C502.107 83.8068 502.393 84.2102 502.78 84.517C503.166 84.8239 503.659 84.9773 504.257 84.9773ZM514.054 77.2727V78.4091H509.531V77.2727H514.054ZM510.849 75.1818H512.19V83.5C512.19 83.8788 512.245 84.1629 512.355 84.3523C512.469 84.5379 512.613 84.6629 512.787 84.7273C512.965 84.7879 513.152 84.8182 513.349 84.8182C513.497 84.8182 513.618 84.8106 513.713 84.7955C513.808 84.7765 513.884 84.7614 513.94 84.75L514.213 85.9545C514.122 85.9886 513.995 86.0227 513.832 86.0568C513.67 86.0947 513.463 86.1136 513.213 86.1136C512.834 86.1136 512.463 86.0322 512.099 85.8693C511.74 85.7064 511.44 85.4583 511.202 85.125C510.967 84.7917 510.849 84.3712 510.849 83.8636V75.1818ZM526.753 79.2273L525.548 79.5682C525.473 79.3674 525.361 79.1723 525.213 78.983C525.069 78.7898 524.872 78.6307 524.622 78.5057C524.372 78.3807 524.052 78.3182 523.662 78.3182C523.128 78.3182 522.683 78.4413 522.327 78.6875C521.974 78.9299 521.798 79.2386 521.798 79.6136C521.798 79.947 521.92 80.2102 522.162 80.4034C522.404 80.5966 522.783 80.7576 523.298 80.8864L524.594 81.2045C525.374 81.3939 525.955 81.6837 526.338 82.0739C526.721 82.4602 526.912 82.9583 526.912 83.5682C526.912 84.0682 526.768 84.5152 526.48 84.9091C526.196 85.303 525.798 85.6136 525.287 85.8409C524.776 86.0682 524.181 86.1818 523.503 86.1818C522.613 86.1818 521.876 85.9886 521.293 85.6023C520.709 85.2159 520.34 84.6515 520.185 83.9091L521.457 83.5909C521.579 84.0606 521.808 84.4129 522.145 84.6477C522.486 84.8826 522.931 85 523.48 85C524.105 85 524.601 84.8674 524.969 84.6023C525.34 84.3333 525.526 84.0114 525.526 83.6364C525.526 83.3333 525.42 83.0795 525.207 82.875C524.995 82.6667 524.67 82.5114 524.23 82.4091L522.776 82.0682C521.976 81.8788 521.389 81.5852 521.014 81.1875C520.643 80.786 520.457 80.2841 520.457 79.6818C520.457 79.1894 520.596 78.7538 520.872 78.375C521.152 77.9962 521.533 77.6989 522.014 77.483C522.499 77.267 523.048 77.1591 523.662 77.1591C524.526 77.1591 525.204 77.3485 525.696 77.7273C526.192 78.1061 526.545 78.6061 526.753 79.2273ZM532.726 77.2727V78.4091H528.203V77.2727H532.726ZM529.521 75.1818H530.862V83.5C530.862 83.8788 530.917 84.1629 531.027 84.3523C531.141 84.5379 531.285 84.6629 531.459 84.7273C531.637 84.7879 531.824 84.8182 532.021 84.8182C532.169 84.8182 532.29 84.8106 532.385 84.7955C532.48 84.7765 532.555 84.7614 532.612 84.75L532.885 85.9545C532.794 85.9886 532.667 86.0227 532.504 86.0568C532.341 86.0947 532.135 86.1136 531.885 86.1136C531.506 86.1136 531.135 86.0322 530.771 85.8693C530.411 85.7064 530.112 85.4583 529.874 85.125C529.639 84.7917 529.521 84.3712 529.521 83.8636V75.1818ZM537.311 86.2045C536.758 86.2045 536.256 86.1004 535.805 85.892C535.355 85.6799 534.997 85.375 534.732 84.9773C534.466 84.5758 534.334 84.0909 534.334 83.5227C534.334 83.0227 534.432 82.6174 534.629 82.3068C534.826 81.9924 535.089 81.7462 535.419 81.5682C535.749 81.3902 536.112 81.2576 536.51 81.1705C536.911 81.0795 537.315 81.0076 537.72 80.9545C538.25 80.8864 538.68 80.8352 539.01 80.8011C539.343 80.7633 539.586 80.7008 539.737 80.6136C539.893 80.5265 539.97 80.375 539.97 80.1591V80.1136C539.97 79.553 539.817 79.1174 539.51 78.8068C539.207 78.4962 538.747 78.3409 538.129 78.3409C537.489 78.3409 536.987 78.4811 536.624 78.7614C536.26 79.0417 536.004 79.3409 535.857 79.6591L534.584 79.2045C534.811 78.6742 535.114 78.2614 535.493 77.9659C535.875 77.6667 536.292 77.4583 536.743 77.3409C537.197 77.2197 537.644 77.1591 538.084 77.1591C538.364 77.1591 538.686 77.1932 539.05 77.2614C539.417 77.3258 539.771 77.4602 540.112 77.6648C540.457 77.8693 540.743 78.178 540.97 78.5909C541.197 79.0038 541.311 79.5568 541.311 80.25V86H539.97V84.8182H539.902C539.811 85.0076 539.66 85.2102 539.447 85.4261C539.235 85.642 538.953 85.8258 538.601 85.9773C538.249 86.1288 537.819 86.2045 537.311 86.2045ZM537.516 85C538.046 85 538.493 84.8958 538.857 84.6875C539.224 84.4792 539.5 84.2102 539.686 83.8807C539.875 83.5511 539.97 83.2045 539.97 82.8409V81.6136C539.913 81.6818 539.788 81.7443 539.595 81.8011C539.406 81.8542 539.186 81.9015 538.936 81.9432C538.69 81.9811 538.449 82.0152 538.214 82.0455C537.983 82.072 537.796 82.0947 537.652 82.1136C537.304 82.1591 536.978 82.233 536.675 82.3352C536.375 82.4337 536.133 82.5833 535.947 82.7841C535.766 82.9811 535.675 83.25 535.675 83.5909C535.675 84.0568 535.847 84.4091 536.192 84.6477C536.54 84.8826 536.982 85 537.516 85ZM543.759 86V77.2727H545.054V78.5909H545.145C545.304 78.1591 545.592 77.8087 546.009 77.5398C546.425 77.2708 546.895 77.1364 547.418 77.1364C547.516 77.1364 547.639 77.1383 547.787 77.142C547.935 77.1458 548.046 77.1515 548.122 77.1591V78.5227C548.077 78.5114 547.973 78.4943 547.81 78.4716C547.651 78.4451 547.482 78.4318 547.304 78.4318C546.88 78.4318 546.501 78.5208 546.168 78.6989C545.838 78.8731 545.577 79.1155 545.384 79.4261C545.194 79.733 545.099 80.0833 545.099 80.4773V86H543.759ZM554.054 77.2727V78.4091H549.531V77.2727H554.054ZM550.849 75.1818H552.19V83.5C552.19 83.8788 552.245 84.1629 552.355 84.3523C552.469 84.5379 552.613 84.6629 552.787 84.7273C552.965 84.7879 553.152 84.8182 553.349 84.8182C553.497 84.8182 553.618 84.8106 553.713 84.7955C553.808 84.7765 553.884 84.7614 553.94 84.75L554.213 85.9545C554.122 85.9886 553.995 86.0227 553.832 86.0568C553.67 86.0947 553.463 86.1136 553.213 86.1136C552.834 86.1136 552.463 86.0322 552.099 85.8693C551.74 85.7064 551.44 85.4583 551.202 85.125C550.967 84.7917 550.849 84.3712 550.849 83.8636V75.1818ZM559.636 86.1818C558.795 86.1818 558.07 85.9962 557.46 85.625C556.854 85.25 556.386 84.7273 556.057 84.0568C555.731 83.3826 555.568 82.5985 555.568 81.7045C555.568 80.8106 555.731 80.0227 556.057 79.3409C556.386 78.6553 556.845 78.1212 557.432 77.7386C558.023 77.3523 558.712 77.1591 559.5 77.1591C559.955 77.1591 560.403 77.2348 560.847 77.3864C561.29 77.5379 561.693 77.7841 562.057 78.125C562.42 78.4621 562.71 78.9091 562.926 79.4659C563.142 80.0227 563.25 80.7083 563.25 81.5227V82.0909H556.523V80.9318H561.886C561.886 80.4394 561.788 80 561.591 79.6136C561.398 79.2273 561.121 78.9223 560.761 78.6989C560.405 78.4754 559.985 78.3636 559.5 78.3636C558.966 78.3636 558.504 78.4962 558.114 78.7614C557.727 79.0227 557.43 79.3636 557.222 79.7841C557.013 80.2045 556.909 80.6553 556.909 81.1364V81.9091C556.909 82.5682 557.023 83.1269 557.25 83.5852C557.481 84.0398 557.801 84.3864 558.21 84.625C558.619 84.8598 559.095 84.9773 559.636 84.9773C559.989 84.9773 560.307 84.928 560.591 84.8295C560.879 84.7273 561.127 84.5758 561.335 84.375C561.544 84.1705 561.705 83.9167 561.818 83.6136L563.114 83.9773C562.977 84.4167 562.748 84.803 562.426 85.1364C562.104 85.4659 561.706 85.7235 561.233 85.9091C560.759 86.0909 560.227 86.1818 559.636 86.1818ZM568.585 86.1818C567.858 86.1818 567.216 85.9981 566.659 85.6307C566.102 85.2595 565.667 84.7367 565.352 84.0625C565.038 83.3845 564.881 82.5833 564.881 81.6591C564.881 80.7424 565.038 79.947 565.352 79.2727C565.667 78.5985 566.104 78.0777 566.665 77.7102C567.225 77.3428 567.873 77.1591 568.608 77.1591C569.176 77.1591 569.625 77.2538 569.955 77.4432C570.288 77.6288 570.542 77.8409 570.716 78.0795C570.894 78.3144 571.032 78.5076 571.131 78.6591H571.244V74.3636H572.585V86H571.29V84.6591H571.131C571.032 84.8182 570.892 85.0189 570.71 85.2614C570.528 85.5 570.269 85.714 569.932 85.9034C569.595 86.089 569.146 86.1818 568.585 86.1818ZM568.767 84.9773C569.305 84.9773 569.759 84.8371 570.131 84.5568C570.502 84.2727 570.784 83.8807 570.977 83.3807C571.17 82.8769 571.267 82.2955 571.267 81.6364C571.267 80.9848 571.172 80.4148 570.983 79.9261C570.794 79.4337 570.513 79.0511 570.142 78.7784C569.771 78.5019 569.313 78.3636 568.767 78.3636C568.199 78.3636 567.725 78.5095 567.347 78.8011C566.972 79.089 566.689 79.4811 566.5 79.9773C566.314 80.4697 566.222 81.0227 566.222 81.6364C566.222 82.2576 566.316 82.822 566.506 83.3295C566.699 83.8333 566.983 84.2348 567.358 84.5341C567.737 84.8295 568.206 84.9773 568.767 84.9773Z" fill="#0A0F26" fill-opacity="0.7"/>
<mask id="path-58-inside-24_251_678" fill="white">
<path d="M479 96H582V128H479V96Z"/>
</mask>
<path d="M479 96H582V128H479V96Z" fill="#E9E847"/>
<path d="M582 127H479V129H582V127Z" fill="#0A0F26" fill-opacity="0.7" mask="url(#path-58-inside-24_251_678)"/>
<path d="M490.865 106.364V118H489.456V106.364H490.865ZM494.849 112.75V118H493.509V109.273H494.804V110.636H494.918C495.122 110.193 495.433 109.837 495.849 109.568C496.266 109.295 496.804 109.159 497.463 109.159C498.054 109.159 498.571 109.28 499.014 109.523C499.457 109.761 499.802 110.125 500.048 110.614C500.295 111.098 500.418 111.712 500.418 112.455V118H499.077V112.545C499.077 111.86 498.899 111.326 498.543 110.943C498.187 110.557 497.698 110.364 497.077 110.364C496.649 110.364 496.266 110.456 495.929 110.642C495.596 110.828 495.332 111.098 495.139 111.455C494.946 111.811 494.849 112.242 494.849 112.75ZM507.55 118V106.364H511.482C512.394 106.364 513.141 106.528 513.72 106.858C514.304 107.184 514.735 107.625 515.016 108.182C515.296 108.739 515.436 109.36 515.436 110.045C515.436 110.731 515.296 111.354 515.016 111.915C514.739 112.475 514.311 112.922 513.732 113.256C513.152 113.585 512.41 113.75 511.504 113.75H508.686V112.5H511.459C512.084 112.5 512.586 112.392 512.964 112.176C513.343 111.96 513.618 111.669 513.788 111.301C513.963 110.93 514.05 110.511 514.05 110.045C514.05 109.58 513.963 109.163 513.788 108.795C513.618 108.428 513.341 108.14 512.959 107.932C512.576 107.72 512.069 107.614 511.436 107.614H508.959V118H507.55ZM517.524 118V109.273H518.82V110.591H518.911C519.07 110.159 519.357 109.809 519.774 109.54C520.191 109.271 520.661 109.136 521.183 109.136C521.282 109.136 521.405 109.138 521.553 109.142C521.7 109.146 521.812 109.152 521.888 109.159V110.523C521.842 110.511 521.738 110.494 521.575 110.472C521.416 110.445 521.248 110.432 521.07 110.432C520.645 110.432 520.267 110.521 519.933 110.699C519.604 110.873 519.342 111.116 519.149 111.426C518.96 111.733 518.865 112.083 518.865 112.477V118H517.524ZM526.757 118.182C525.969 118.182 525.278 117.994 524.683 117.619C524.092 117.244 523.63 116.72 523.297 116.045C522.967 115.371 522.803 114.583 522.803 113.682C522.803 112.773 522.967 111.979 523.297 111.301C523.63 110.623 524.092 110.097 524.683 109.722C525.278 109.347 525.969 109.159 526.757 109.159C527.545 109.159 528.234 109.347 528.825 109.722C529.42 110.097 529.882 110.623 530.212 111.301C530.545 111.979 530.712 112.773 530.712 113.682C530.712 114.583 530.545 115.371 530.212 116.045C529.882 116.72 529.42 117.244 528.825 117.619C528.234 117.994 527.545 118.182 526.757 118.182ZM526.757 116.977C527.356 116.977 527.848 116.824 528.234 116.517C528.621 116.21 528.907 115.807 529.092 115.307C529.278 114.807 529.371 114.265 529.371 113.682C529.371 113.098 529.278 112.555 529.092 112.051C528.907 111.547 528.621 111.14 528.234 110.83C527.848 110.519 527.356 110.364 526.757 110.364C526.159 110.364 525.666 110.519 525.28 110.83C524.893 111.14 524.607 111.547 524.422 112.051C524.236 112.555 524.143 113.098 524.143 113.682C524.143 114.265 524.236 114.807 524.422 115.307C524.607 115.807 524.893 116.21 525.28 116.517C525.666 116.824 526.159 116.977 526.757 116.977ZM536.281 121.455C535.634 121.455 535.077 121.371 534.611 121.205C534.145 121.042 533.757 120.826 533.446 120.557C533.139 120.292 532.895 120.008 532.713 119.705L533.781 118.955C533.902 119.114 534.056 119.295 534.241 119.5C534.427 119.708 534.681 119.888 535.003 120.04C535.329 120.195 535.755 120.273 536.281 120.273C536.986 120.273 537.567 120.102 538.026 119.761C538.484 119.42 538.713 118.886 538.713 118.159V116.386H538.599C538.501 116.545 538.361 116.742 538.179 116.977C538.001 117.208 537.743 117.415 537.406 117.597C537.073 117.775 536.622 117.864 536.054 117.864C535.349 117.864 534.717 117.697 534.156 117.364C533.599 117.03 533.158 116.545 532.832 115.909C532.51 115.273 532.349 114.5 532.349 113.591C532.349 112.697 532.507 111.919 532.821 111.256C533.135 110.589 533.573 110.074 534.134 109.71C534.694 109.343 535.342 109.159 536.077 109.159C536.645 109.159 537.096 109.254 537.429 109.443C537.766 109.629 538.024 109.841 538.202 110.08C538.384 110.314 538.524 110.508 538.622 110.659H538.759V109.273H540.054V118.25C540.054 119 539.884 119.61 539.543 120.08C539.205 120.553 538.751 120.9 538.179 121.119C537.611 121.343 536.978 121.455 536.281 121.455ZM536.236 116.659C536.774 116.659 537.228 116.536 537.599 116.29C537.971 116.044 538.253 115.689 538.446 115.227C538.639 114.765 538.736 114.212 538.736 113.568C538.736 112.939 538.641 112.384 538.452 111.903C538.262 111.422 537.982 111.045 537.611 110.773C537.24 110.5 536.781 110.364 536.236 110.364C535.668 110.364 535.194 110.508 534.815 110.795C534.44 111.083 534.158 111.47 533.969 111.955C533.783 112.439 533.69 112.977 533.69 113.568C533.69 114.174 533.785 114.71 533.974 115.176C534.168 115.638 534.452 116.002 534.827 116.267C535.205 116.528 535.675 116.659 536.236 116.659ZM542.509 118V109.273H543.804V110.591H543.895C544.054 110.159 544.342 109.809 544.759 109.54C545.175 109.271 545.645 109.136 546.168 109.136C546.266 109.136 546.389 109.138 546.537 109.142C546.685 109.146 546.796 109.152 546.872 109.159V110.523C546.827 110.511 546.723 110.494 546.56 110.472C546.401 110.445 546.232 110.432 546.054 110.432C545.63 110.432 545.251 110.521 544.918 110.699C544.588 110.873 544.327 111.116 544.134 111.426C543.944 111.733 543.849 112.083 543.849 112.477V118H542.509ZM551.855 118.182C551.014 118.182 550.289 117.996 549.679 117.625C549.073 117.25 548.605 116.727 548.276 116.057C547.95 115.383 547.787 114.598 547.787 113.705C547.787 112.811 547.95 112.023 548.276 111.341C548.605 110.655 549.063 110.121 549.651 109.739C550.241 109.352 550.931 109.159 551.719 109.159C552.173 109.159 552.622 109.235 553.065 109.386C553.509 109.538 553.912 109.784 554.276 110.125C554.639 110.462 554.929 110.909 555.145 111.466C555.361 112.023 555.469 112.708 555.469 113.523V114.091H548.741V112.932H554.105C554.105 112.439 554.007 112 553.81 111.614C553.616 111.227 553.34 110.922 552.98 110.699C552.624 110.475 552.204 110.364 551.719 110.364C551.185 110.364 550.723 110.496 550.332 110.761C549.946 111.023 549.649 111.364 549.44 111.784C549.232 112.205 549.128 112.655 549.128 113.136V113.909C549.128 114.568 549.241 115.127 549.469 115.585C549.7 116.04 550.02 116.386 550.429 116.625C550.838 116.86 551.313 116.977 551.855 116.977C552.207 116.977 552.526 116.928 552.81 116.83C553.098 116.727 553.346 116.576 553.554 116.375C553.762 116.17 553.923 115.917 554.037 115.614L555.332 115.977C555.196 116.417 554.967 116.803 554.645 117.136C554.323 117.466 553.925 117.723 553.452 117.909C552.978 118.091 552.446 118.182 551.855 118.182ZM563.69 111.227L562.486 111.568C562.41 111.367 562.298 111.172 562.151 110.983C562.007 110.79 561.81 110.631 561.56 110.506C561.31 110.381 560.99 110.318 560.599 110.318C560.065 110.318 559.62 110.441 559.264 110.688C558.912 110.93 558.736 111.239 558.736 111.614C558.736 111.947 558.857 112.21 559.099 112.403C559.342 112.597 559.721 112.758 560.236 112.886L561.531 113.205C562.312 113.394 562.893 113.684 563.276 114.074C563.658 114.46 563.849 114.958 563.849 115.568C563.849 116.068 563.705 116.515 563.418 116.909C563.134 117.303 562.736 117.614 562.224 117.841C561.713 118.068 561.118 118.182 560.44 118.182C559.55 118.182 558.813 117.989 558.23 117.602C557.647 117.216 557.277 116.652 557.122 115.909L558.395 115.591C558.516 116.061 558.745 116.413 559.082 116.648C559.423 116.883 559.868 117 560.418 117C561.043 117 561.539 116.867 561.906 116.602C562.277 116.333 562.463 116.011 562.463 115.636C562.463 115.333 562.357 115.08 562.145 114.875C561.933 114.667 561.607 114.511 561.168 114.409L559.713 114.068C558.914 113.879 558.327 113.585 557.952 113.188C557.58 112.786 557.395 112.284 557.395 111.682C557.395 111.189 557.533 110.754 557.81 110.375C558.09 109.996 558.471 109.699 558.952 109.483C559.437 109.267 559.986 109.159 560.599 109.159C561.463 109.159 562.141 109.348 562.634 109.727C563.13 110.106 563.482 110.606 563.69 111.227ZM572.05 111.227L570.845 111.568C570.769 111.367 570.658 111.172 570.51 110.983C570.366 110.79 570.169 110.631 569.919 110.506C569.669 110.381 569.349 110.318 568.959 110.318C568.425 110.318 567.98 110.441 567.624 110.688C567.271 110.93 567.095 111.239 567.095 111.614C567.095 111.947 567.216 112.21 567.459 112.403C567.701 112.597 568.08 112.758 568.595 112.886L569.891 113.205C570.671 113.394 571.252 113.684 571.635 114.074C572.018 114.46 572.209 114.958 572.209 115.568C572.209 116.068 572.065 116.515 571.777 116.909C571.493 117.303 571.095 117.614 570.584 117.841C570.072 118.068 569.478 118.182 568.8 118.182C567.91 118.182 567.173 117.989 566.589 117.602C566.006 117.216 565.637 116.652 565.482 115.909L566.754 115.591C566.875 116.061 567.105 116.413 567.442 116.648C567.783 116.883 568.228 117 568.777 117C569.402 117 569.898 116.867 570.266 116.602C570.637 116.333 570.822 116.011 570.822 115.636C570.822 115.333 570.716 115.08 570.504 114.875C570.292 114.667 569.966 114.511 569.527 114.409L568.072 114.068C567.273 113.879 566.686 113.585 566.311 113.188C565.94 112.786 565.754 112.284 565.754 111.682C565.754 111.189 565.893 110.754 566.169 110.375C566.449 109.996 566.83 109.699 567.311 109.483C567.796 109.267 568.345 109.159 568.959 109.159C569.822 109.159 570.5 109.348 570.993 109.727C571.489 110.106 571.841 110.606 572.05 111.227Z" fill="#0A0F26" fill-opacity="0.7"/>
<mask id="path-61-inside-25_251_678" fill="white">
<path d="M479 128H582V160H479V128Z"/>
</mask>
<path d="M479 128H582V160H479V128Z" fill="#EE3136"/>
<path d="M582 159H479V161H582V159Z" fill="#0A0F26" fill-opacity="0.7" mask="url(#path-61-inside-25_251_678)"/>
<path d="M516.815 150V138.364H520.747C521.656 138.364 522.402 138.519 522.986 138.83C523.569 139.136 524.001 139.559 524.281 140.097C524.562 140.634 524.702 141.246 524.702 141.932C524.702 142.617 524.562 143.225 524.281 143.756C524.001 144.286 523.571 144.703 522.991 145.006C522.412 145.305 521.671 145.455 520.77 145.455H517.588V144.182H520.724C521.346 144.182 521.846 144.091 522.224 143.909C522.607 143.727 522.884 143.47 523.054 143.136C523.228 142.799 523.315 142.398 523.315 141.932C523.315 141.466 523.228 141.059 523.054 140.71C522.88 140.362 522.601 140.093 522.219 139.903C521.836 139.71 521.33 139.614 520.702 139.614H518.224V150H516.815ZM522.293 144.773L525.156 150H523.52L520.702 144.773H522.293ZM526.868 150V141.273H528.209V150H526.868ZM527.55 139.818C527.288 139.818 527.063 139.729 526.874 139.551C526.688 139.373 526.595 139.159 526.595 138.909C526.595 138.659 526.688 138.445 526.874 138.267C527.063 138.089 527.288 138 527.55 138C527.811 138 528.035 138.089 528.22 138.267C528.41 138.445 528.504 138.659 528.504 138.909C528.504 139.159 528.41 139.373 528.22 139.551C528.035 139.729 527.811 139.818 527.55 139.818ZM536.847 143.227L535.642 143.568C535.566 143.367 535.455 143.172 535.307 142.983C535.163 142.79 534.966 142.631 534.716 142.506C534.466 142.381 534.146 142.318 533.756 142.318C533.222 142.318 532.777 142.441 532.42 142.688C532.068 142.93 531.892 143.239 531.892 143.614C531.892 143.947 532.013 144.21 532.256 144.403C532.498 144.597 532.877 144.758 533.392 144.886L534.688 145.205C535.468 145.394 536.049 145.684 536.432 146.074C536.814 146.46 537.006 146.958 537.006 147.568C537.006 148.068 536.862 148.515 536.574 148.909C536.29 149.303 535.892 149.614 535.381 149.841C534.869 150.068 534.275 150.182 533.597 150.182C532.706 150.182 531.97 149.989 531.386 149.602C530.803 149.216 530.434 148.652 530.278 147.909L531.551 147.591C531.672 148.061 531.902 148.413 532.239 148.648C532.58 148.883 533.025 149 533.574 149C534.199 149 534.695 148.867 535.062 148.602C535.434 148.333 535.619 148.011 535.619 147.636C535.619 147.333 535.513 147.08 535.301 146.875C535.089 146.667 534.763 146.511 534.324 146.409L532.869 146.068C532.07 145.879 531.483 145.585 531.108 145.188C530.737 144.786 530.551 144.284 530.551 143.682C530.551 143.189 530.689 142.754 530.966 142.375C531.246 141.996 531.627 141.699 532.108 141.483C532.593 141.267 533.142 141.159 533.756 141.159C534.619 141.159 535.297 141.348 535.79 141.727C536.286 142.106 536.638 142.606 536.847 143.227ZM540.274 146.818L540.251 145.159H540.524L544.342 141.273H546.001L541.933 145.386H541.82L540.274 146.818ZM539.024 150V138.364H540.365V150H539.024ZM544.57 150L541.161 145.682L542.115 144.75L546.274 150H544.57Z" fill="#0A0F26" fill-opacity="0.7"/>
</svg>
