<svg width="312" height="74" viewBox="0 0 312 74" fill="none" xmlns="http://www.w3.org/2000/svg">
<path d="M5.564 17.728C5.204 17.728 4.824 17.692 4.424 17.62C4.024 17.556 3.648 17.428 3.296 17.236C2.952 17.052 2.668 16.788 2.444 16.444C2.228 16.108 2.12 15.672 2.12 15.136C2.12 14.592 2.22 14.116 2.42 13.708C2.628 13.308 2.892 12.956 3.212 12.652C3.54 12.34 3.884 12.06 4.244 11.812C4.604 11.564 4.944 11.332 5.264 11.116C5.592 10.9 5.856 10.684 6.056 10.468C6.264 10.244 6.368 10 6.368 9.736C6.368 9.632 6.332 9.528 6.26 9.424C6.196 9.312 6.088 9.22 5.936 9.148C5.792 9.076 5.596 9.04 5.348 9.04C5.172 9.04 4.976 9.064 4.76 9.112C4.544 9.16 4.336 9.228 4.136 9.316C3.944 9.396 3.784 9.488 3.656 9.592C3.872 9.768 4.072 9.94 4.256 10.108C4.448 10.276 4.644 10.46 4.844 10.66C5.044 10.852 5.26 11.072 5.492 11.32C5.692 11.432 5.888 11.536 6.08 11.632C6.28 11.72 6.492 11.8 6.716 11.872C6.94 11.936 7.196 11.988 7.484 12.028C7.772 12.06 8.108 12.076 8.492 12.076C8.66 12.076 8.78 12.124 8.852 12.22C8.932 12.308 8.972 12.416 8.972 12.544C8.972 12.672 8.916 12.792 8.804 12.904C8.692 13.008 8.548 13.06 8.372 13.06C7.708 13.06 7.156 13.008 6.716 12.904C6.284 12.8 5.916 12.66 5.612 12.484C5.308 12.308 5.016 12.112 4.736 11.896C4.6 11.72 4.448 11.544 4.28 11.368C4.112 11.192 3.928 11.016 3.728 10.84C3.536 10.656 3.328 10.484 3.104 10.324C3.056 10.284 3.008 10.212 2.96 10.108C2.912 10.004 2.872 9.896 2.84 9.784C2.808 9.672 2.792 9.588 2.792 9.532C2.792 9.412 2.868 9.268 3.02 9.1C3.172 8.932 3.376 8.772 3.632 8.62C3.888 8.46 4.18 8.328 4.508 8.224C4.836 8.12 5.176 8.068 5.528 8.068C6.096 8.068 6.536 8.208 6.848 8.488C7.16 8.768 7.316 9.096 7.316 9.472C7.316 9.88 7.212 10.244 7.004 10.564C6.804 10.884 6.544 11.176 6.224 11.44C5.904 11.704 5.564 11.96 5.204 12.208C4.852 12.456 4.516 12.716 4.196 12.988C3.876 13.252 3.612 13.544 3.404 13.864C3.204 14.184 3.104 14.556 3.104 14.98C3.104 15.348 3.192 15.648 3.368 15.88C3.544 16.112 3.764 16.288 4.028 16.408C4.292 16.536 4.564 16.624 4.844 16.672C5.124 16.72 5.364 16.744 5.564 16.744C5.844 16.744 6.128 16.724 6.416 16.684C6.712 16.644 7.016 16.58 7.328 16.492C7.648 16.404 7.968 16.296 8.288 16.168L8.6 16.936C8.368 17.072 8.084 17.2 7.748 17.32C7.412 17.448 7.056 17.548 6.68 17.62C6.304 17.692 5.932 17.728 5.564 17.728ZM8.375 13.06L8.495 12.076C8.695 12.076 8.915 12.076 9.155 12.076C9.403 12.068 9.651 12.06 9.899 12.052C10.155 12.044 10.391 12.028 10.607 12.004C10.823 11.972 11.003 11.932 11.147 11.884C11.435 11.78 11.659 11.652 11.819 11.5C11.979 11.34 12.091 11.132 12.155 10.876C12.227 10.612 12.263 10.276 12.263 9.868C12.263 9.532 12.219 9.22 12.131 8.932C12.043 8.644 11.919 8.412 11.759 8.236C11.599 8.06 11.407 7.972 11.183 7.972C10.999 7.972 10.831 8.044 10.679 8.188C10.535 8.324 10.419 8.5 10.331 8.716C10.251 8.932 10.211 9.148 10.211 9.364C10.211 9.532 10.243 9.676 10.307 9.796C10.379 9.916 10.495 10.012 10.655 10.084C10.815 10.148 11.023 10.18 11.279 10.18C11.511 10.18 11.743 10.156 11.975 10.108C12.215 10.06 12.419 9.996 12.587 9.916L12.635 10.756C12.507 10.844 12.363 10.916 12.203 10.972C12.043 11.028 11.875 11.068 11.699 11.092C11.523 11.116 11.347 11.128 11.171 11.128C10.763 11.128 10.415 11.064 10.127 10.936C9.847 10.8 9.631 10.62 9.479 10.396C9.335 10.164 9.263 9.9 9.263 9.604C9.263 9.3 9.311 8.996 9.407 8.692C9.503 8.38 9.639 8.096 9.815 7.84C9.991 7.584 10.203 7.38 10.451 7.228C10.699 7.068 10.975 6.988 11.279 6.988C11.711 6.988 12.067 7.128 12.347 7.408C12.635 7.688 12.847 8.056 12.983 8.512C13.127 8.96 13.199 9.436 13.199 9.94C13.199 10.54 13.095 11.056 12.887 11.488C12.687 11.912 12.351 12.264 11.879 12.544C11.695 12.648 11.471 12.736 11.207 12.808C10.951 12.872 10.667 12.924 10.355 12.964C10.051 13.004 9.731 13.028 9.395 13.036C9.059 13.052 8.719 13.06 8.375 13.06ZM11.051 5.752C10.883 5.752 10.739 5.696 10.619 5.584C10.507 5.464 10.451 5.324 10.451 5.164C10.451 5.004 10.507 4.864 10.619 4.744C10.739 4.624 10.883 4.564 11.051 4.564C11.211 4.564 11.347 4.624 11.459 4.744C11.579 4.864 11.639 5.004 11.639 5.164C11.639 5.324 11.579 5.464 11.459 5.584C11.347 5.696 11.211 5.752 11.051 5.752ZM16.3222 12.076C16.7222 12.076 17.0382 12.036 17.2702 11.956C17.5102 11.876 17.6822 11.76 17.7862 11.608C17.8982 11.448 17.9542 11.264 17.9542 11.056C17.9542 10.896 17.9102 10.704 17.8222 10.48C17.7422 10.256 17.6302 10.008 17.4862 9.736C17.3422 9.456 17.1742 9.164 16.9822 8.86C16.7982 8.548 16.5982 8.232 16.3822 7.912L17.2102 7.372C17.5222 7.844 17.7942 8.292 18.0262 8.716C18.2582 9.132 18.4542 9.524 18.6142 9.892C18.7742 10.252 18.9022 10.592 18.9982 10.912C19.1102 11.264 19.2342 11.524 19.3702 11.692C19.5142 11.86 19.6622 11.968 19.8142 12.016C19.9662 12.056 20.1062 12.076 20.2342 12.076C20.4022 12.076 20.5262 12.124 20.6062 12.22C20.6862 12.308 20.7262 12.416 20.7262 12.544C20.7262 12.672 20.6702 12.792 20.5582 12.904C20.4462 13.008 20.3022 13.06 20.1262 13.06C19.8622 13.06 19.6022 13.012 19.3462 12.916C19.0982 12.812 18.8822 12.648 18.6982 12.424C18.5142 12.192 18.3862 11.884 18.3142 11.5L18.7942 11.116C18.7942 11.436 18.7262 11.748 18.5902 12.052C18.4542 12.348 18.2062 12.592 17.8462 12.784C17.4942 12.976 16.9862 13.072 16.3222 13.072C16.0342 13.072 15.7542 13.048 15.4822 13C15.2182 12.952 14.9742 12.884 14.7502 12.796C14.5262 12.7 14.3302 12.588 14.1622 12.46L14.6422 11.632C14.8022 11.736 15.0262 11.836 15.3142 11.932C15.6022 12.028 15.9382 12.076 16.3222 12.076ZM20.1289 13.06L20.2369 12.076C20.6929 12.076 21.0129 12.032 21.1969 11.944C21.3809 11.856 21.4849 11.7 21.5089 11.476C21.5409 11.252 21.5489 10.94 21.5329 10.54L21.3049 4.432H22.2769L22.5169 10.432C22.5329 10.856 22.5169 11.232 22.4689 11.56C22.4289 11.888 22.3249 12.164 22.1569 12.388C21.9969 12.612 21.7529 12.78 21.4249 12.892C21.1049 13.004 20.6729 13.06 20.1289 13.06ZM24.3501 13L24.1101 4.432H25.0821L25.3221 13H24.3501Z" fill="#0A0F26"/>
<path d="M44.992 12.436C44.824 12.388 44.66 12.316 44.5 12.22C44.348 12.116 44.208 11.988 44.08 11.836C43.96 11.684 43.864 11.512 43.792 11.32C43.72 11.12 43.684 10.908 43.684 10.684C43.684 10.276 43.776 9.928 43.96 9.64C44.152 9.344 44.4 9.12 44.704 8.968C45.016 8.816 45.356 8.74 45.724 8.74C45.86 8.74 46.008 8.756 46.168 8.788C46.328 8.812 46.48 8.844 46.624 8.884L46.468 9.784C46.348 9.752 46.22 9.728 46.084 9.712C45.948 9.688 45.828 9.676 45.724 9.676C45.484 9.676 45.28 9.724 45.112 9.82C44.952 9.908 44.832 10.028 44.752 10.18C44.672 10.332 44.632 10.5 44.632 10.684C44.632 10.94 44.708 11.172 44.86 11.38C45.012 11.58 45.196 11.74 45.412 11.86C45.628 11.98 45.836 12.04 46.036 12.04L44.992 12.436ZM43.48 13.696L43.204 12.784C43.524 12.712 43.904 12.612 44.344 12.484C44.792 12.356 45.26 12.212 45.748 12.052C46.236 11.884 46.704 11.708 47.152 11.524L47.512 12.4C47.28 12.496 46.988 12.608 46.636 12.736C46.292 12.856 45.924 12.976 45.532 13.096C45.148 13.224 44.776 13.34 44.416 13.444C44.056 13.556 43.744 13.64 43.48 13.696ZM55.1216 13.06C54.6416 13.06 54.2456 13.02 53.9336 12.94C53.6296 12.86 53.3896 12.736 53.2136 12.568C53.0456 12.4 52.9256 12.188 52.8536 11.932C52.7896 11.668 52.7496 11.356 52.7336 10.996L52.4936 4.432H53.4776L53.7176 10.612C53.7336 11.004 53.7696 11.308 53.8256 11.524C53.8896 11.732 54.0256 11.876 54.2336 11.956C54.4496 12.036 54.7856 12.076 55.2416 12.076C55.4096 12.076 55.5296 12.124 55.6016 12.22C55.6816 12.308 55.7216 12.416 55.7216 12.544C55.7216 12.672 55.6656 12.792 55.5536 12.904C55.4416 13.008 55.2976 13.06 55.1216 13.06ZM49.6376 13.06C49.4216 13.06 49.2016 13.04 48.9776 13C48.7616 12.968 48.6096 12.944 48.5216 12.928L48.6536 11.98C49.2056 12.052 49.7256 12.064 50.2136 12.016C50.7016 11.968 51.1256 11.832 51.4856 11.608C51.8536 11.376 52.1416 11.028 52.3496 10.564C52.5576 10.1 52.6616 9.496 52.6616 8.752L53.2376 10.192C53.1416 10.696 52.9976 11.12 52.8056 11.464C52.6136 11.8 52.3896 12.076 52.1336 12.292C51.8856 12.5 51.6176 12.66 51.3296 12.772C51.0416 12.884 50.7536 12.96 50.4656 13C50.1776 13.04 49.9016 13.06 49.6376 13.06ZM52.2416 11.416C52.1136 11.168 51.9336 10.88 51.7016 10.552C51.4696 10.216 51.1896 9.852 50.8616 9.46C50.5336 9.068 50.1616 8.66 49.7456 8.236C49.3376 7.812 48.8936 7.384 48.4136 6.952L49.0616 6.268C49.5896 6.772 50.0576 7.244 50.4656 7.684C50.8816 8.116 51.2456 8.524 51.5576 8.908C51.8696 9.284 52.1376 9.628 52.3616 9.94C52.5856 10.252 52.7736 10.536 52.9256 10.792L52.2416 11.416ZM55.1172 13.06L55.2372 12.076C55.4612 12.076 55.6372 12.028 55.7652 11.932C55.9012 11.836 56.0292 11.676 56.1492 11.452C56.2772 11.228 56.4372 10.928 56.6292 10.552C56.8212 10.168 57.0132 9.856 57.2052 9.616C57.4052 9.368 57.5972 9.176 57.7812 9.04C57.9732 8.896 58.1532 8.796 58.3212 8.74C58.4892 8.684 58.6452 8.656 58.7892 8.656C59.0532 8.656 59.2892 8.716 59.4972 8.836C59.7052 8.948 59.9012 9.144 60.0852 9.424C60.2692 9.696 60.4572 10.072 60.6492 10.552C60.8332 10.992 60.9972 11.324 61.1412 11.548C61.2932 11.764 61.4492 11.908 61.6092 11.98C61.7772 12.044 61.9652 12.076 62.1732 12.076C62.3412 12.076 62.4612 12.124 62.5332 12.22C62.6132 12.308 62.6532 12.416 62.6532 12.544C62.6532 12.672 62.5972 12.792 62.4852 12.904C62.3732 13.008 62.2292 13.06 62.0532 13.06C61.7412 13.06 61.4532 13.008 61.1892 12.904C60.9332 12.8 60.7172 12.636 60.5412 12.412L60.7092 12.16C60.6212 12.408 60.5012 12.612 60.3492 12.772C60.2052 12.924 60.0412 13.036 59.8572 13.108C59.6732 13.188 59.4772 13.228 59.2692 13.228C59.0052 13.228 58.7332 13.172 58.4532 13.06C58.1812 12.948 57.9172 12.788 57.6612 12.58C57.4052 12.372 57.1812 12.128 56.9892 11.848C56.7812 12.216 56.5812 12.488 56.3892 12.664C56.2052 12.832 56.0132 12.94 55.8132 12.988C55.6132 13.036 55.3812 13.06 55.1172 13.06ZM57.4452 10.936C57.5812 11.16 57.7252 11.356 57.8772 11.524C58.0372 11.692 58.1972 11.832 58.3572 11.944C58.5172 12.048 58.6732 12.128 58.8252 12.184C58.9852 12.232 59.1292 12.256 59.2572 12.256C59.5372 12.256 59.7412 12.156 59.8692 11.956C60.0052 11.756 60.0012 11.476 59.8572 11.116C59.7852 10.932 59.7092 10.752 59.6292 10.576C59.5572 10.4 59.4772 10.24 59.3892 10.096C59.3012 9.944 59.2012 9.828 59.0892 9.748C58.9772 9.66 58.8532 9.616 58.7172 9.616C58.5972 9.616 58.4692 9.656 58.3332 9.736C58.2052 9.816 58.0652 9.952 57.9132 10.144C57.7692 10.336 57.6132 10.6 57.4452 10.936ZM62.0547 13.06L62.1747 12.076C62.6547 12.076 63.1067 12.032 63.5307 11.944C63.9547 11.848 64.3427 11.724 64.6947 11.572C65.0547 11.412 65.3627 11.232 65.6187 11.032C65.8747 10.824 66.0707 10.612 66.2067 10.396C66.3507 10.172 66.4227 9.952 66.4227 9.736C66.4227 9.632 66.3867 9.528 66.3147 9.424C66.2427 9.312 66.1187 9.22 65.9427 9.148C65.7747 9.076 65.5467 9.04 65.2587 9.04C65.0827 9.04 64.8867 9.064 64.6707 9.112C64.4547 9.16 64.2467 9.228 64.0467 9.316C63.8547 9.396 63.6947 9.488 63.5667 9.592C63.7827 9.768 63.9827 9.94 64.1667 10.108C64.3587 10.276 64.5547 10.46 64.7547 10.66C64.9547 10.852 65.1707 11.072 65.4027 11.32C65.5867 11.456 65.7907 11.572 66.0147 11.668C66.2467 11.764 66.4947 11.844 66.7587 11.908C67.0307 11.964 67.3067 12.008 67.5867 12.04C67.8667 12.064 68.1467 12.076 68.4267 12.076C68.5947 12.076 68.7147 12.124 68.7867 12.22C68.8667 12.308 68.9067 12.416 68.9067 12.544C68.9067 12.672 68.8507 12.792 68.7387 12.904C68.6267 13.008 68.4827 13.06 68.3067 13.06C67.8667 13.06 67.4147 13.02 66.9507 12.94C66.4947 12.852 66.0667 12.724 65.6667 12.556C65.2667 12.38 64.9267 12.16 64.6467 11.896C64.5107 11.72 64.3587 11.544 64.1907 11.368C64.0227 11.192 63.8387 11.016 63.6387 10.84C63.4467 10.656 63.2387 10.484 63.0147 10.324C62.9667 10.284 62.9187 10.212 62.8707 10.108C62.8227 10.004 62.7827 9.896 62.7507 9.784C62.7187 9.672 62.7027 9.588 62.7027 9.532C62.7027 9.412 62.7787 9.268 62.9307 9.1C63.0827 8.932 63.2867 8.772 63.5427 8.62C63.7987 8.46 64.0907 8.328 64.4187 8.224C64.7467 8.12 65.0867 8.068 65.4387 8.068C65.8947 8.068 66.2627 8.136 66.5427 8.272C66.8307 8.408 67.0387 8.584 67.1667 8.8C67.3027 9.008 67.3707 9.232 67.3707 9.472C67.3707 9.824 67.2827 10.176 67.1067 10.528C66.9307 10.872 66.6787 11.196 66.3507 11.5C66.0227 11.804 65.6387 12.076 65.1987 12.316C64.7587 12.548 64.2707 12.732 63.7347 12.868C63.2067 12.996 62.6467 13.06 62.0547 13.06ZM68.3125 13.06L68.4205 12.076C68.8765 12.076 69.1965 12.032 69.3805 11.944C69.5645 11.856 69.6685 11.7 69.6925 11.476C69.7245 11.252 69.7325 10.94 69.7165 10.54L69.4885 4.432H70.4605L70.7005 10.432C70.7165 10.856 70.7005 11.232 70.6525 11.56C70.6125 11.888 70.5085 12.164 70.3405 12.388C70.1805 12.612 69.9365 12.78 69.6085 12.892C69.2885 13.004 68.8565 13.06 68.3125 13.06ZM72.5337 13L72.2937 4.432H73.2657L73.5057 13H72.5337ZM83.4961 13.06C83.0641 13.06 82.6801 13 82.3441 12.88C82.0161 12.752 81.7521 12.54 81.5521 12.244C81.3601 11.94 81.2521 11.52 81.2281 10.984L81.0361 6.808H82.0081L82.2001 10.768C82.2241 11.144 82.2921 11.428 82.4041 11.62C82.5161 11.804 82.6721 11.928 82.8721 11.992C83.0801 12.048 83.3281 12.076 83.6161 12.076C83.7841 12.076 83.9041 12.124 83.9761 12.22C84.0561 12.308 84.0961 12.416 84.0961 12.544C84.0961 12.672 84.0401 12.792 83.9281 12.904C83.8161 13.008 83.6721 13.06 83.4961 13.06ZM81.6841 11.74C81.2281 11.884 80.7841 11.956 80.3521 11.956C79.9201 11.956 79.5281 11.892 79.1761 11.764C78.8241 11.636 78.5441 11.452 78.3361 11.212C78.1281 10.964 78.0241 10.668 78.0241 10.324C78.0241 9.988 78.1081 9.672 78.2761 9.376C78.4521 9.08 78.6881 8.816 78.9841 8.584C79.2881 8.352 79.6361 8.16 80.0281 8.008C80.4281 7.848 80.8521 7.74 81.3001 7.684L81.4681 8.692C81.0681 8.708 80.7121 8.764 80.4001 8.86C80.0961 8.948 79.8361 9.064 79.6201 9.208C79.4121 9.352 79.2521 9.508 79.1401 9.676C79.0281 9.844 78.9721 10.008 78.9721 10.168C78.9721 10.344 79.0361 10.488 79.1641 10.6C79.2921 10.712 79.4561 10.8 79.6561 10.864C79.8561 10.92 80.0761 10.956 80.3161 10.972C80.5561 10.98 80.7881 10.972 81.0121 10.948C81.2361 10.916 81.4281 10.872 81.5881 10.816L81.6841 11.74ZM81.4321 5.428C81.2641 5.428 81.1201 5.372 81.0001 5.26C80.8881 5.14 80.8321 5 80.8321 4.84C80.8321 4.68 80.8881 4.54 81.0001 4.42C81.1201 4.3 81.2641 4.24 81.4321 4.24C81.5921 4.24 81.7281 4.3 81.8401 4.42C81.9601 4.54 82.0201 4.68 82.0201 4.84C82.0201 5 81.9601 5.14 81.8401 5.26C81.7281 5.372 81.5921 5.428 81.4321 5.428ZM79.7881 5.428C79.6201 5.428 79.4761 5.372 79.3561 5.26C79.2441 5.14 79.1881 5 79.1881 4.84C79.1881 4.68 79.2441 4.54 79.3561 4.42C79.4761 4.3 79.6201 4.24 79.7881 4.24C79.9481 4.24 80.0841 4.3 80.1961 4.42C80.3161 4.54 80.3761 4.68 80.3761 4.84C80.3761 5 80.3161 5.14 80.1961 5.26C80.0841 5.372 79.9481 5.428 79.7881 5.428ZM83.5 13.06L83.62 12.076C83.844 12.076 84.032 12.028 84.184 11.932C84.336 11.836 84.484 11.676 84.628 11.452C84.772 11.228 84.928 10.928 85.096 10.552C85.328 10.04 85.556 9.652 85.78 9.388C86.012 9.124 86.24 8.944 86.464 8.848C86.696 8.752 86.924 8.704 87.148 8.704C87.42 8.704 87.672 8.776 87.904 8.92C88.136 9.056 88.34 9.24 88.516 9.472C88.692 9.704 88.828 9.96 88.924 10.24C89.028 10.512 89.08 10.784 89.08 11.056C89.08 11.536 88.996 11.92 88.828 12.208C88.66 12.488 88.444 12.692 88.18 12.82C87.924 12.94 87.656 13 87.376 13C87.128 13 86.808 12.952 86.416 12.856C86.032 12.76 85.544 12.516 84.952 12.124L85.42 11.368C85.812 11.616 86.164 11.788 86.476 11.884C86.796 11.972 87.06 12.016 87.268 12.016C87.5 12.016 87.684 11.984 87.82 11.92C87.956 11.848 88.056 11.748 88.12 11.62C88.184 11.492 88.216 11.348 88.216 11.188C88.216 10.956 88.16 10.724 88.048 10.492C87.936 10.26 87.792 10.068 87.616 9.916C87.448 9.764 87.268 9.688 87.076 9.688C86.932 9.688 86.792 9.728 86.656 9.808C86.52 9.888 86.38 10.036 86.236 10.252C86.092 10.468 85.928 10.78 85.744 11.188C85.552 11.62 85.368 11.964 85.192 12.22C85.024 12.468 84.852 12.652 84.676 12.772C84.5 12.892 84.316 12.968 84.124 13C83.94 13.04 83.732 13.06 83.5 13.06ZM92.3847 12.076C92.7847 12.076 93.1007 12.036 93.3327 11.956C93.5727 11.876 93.7447 11.76 93.8487 11.608C93.9607 11.448 94.0167 11.264 94.0167 11.056C94.0167 10.896 93.9727 10.704 93.8847 10.48C93.8047 10.256 93.6927 10.008 93.5487 9.736C93.4047 9.456 93.2367 9.164 93.0447 8.86C92.8607 8.548 92.6607 8.232 92.4447 7.912L93.2727 7.372C93.5847 7.844 93.8567 8.292 94.0887 8.716C94.3207 9.132 94.5167 9.524 94.6767 9.892C94.8367 10.252 94.9647 10.592 95.0607 10.912C95.1727 11.264 95.2967 11.524 95.4327 11.692C95.5767 11.86 95.7247 11.968 95.8767 12.016C96.0287 12.056 96.1687 12.076 96.2967 12.076C96.4647 12.076 96.5887 12.124 96.6687 12.22C96.7487 12.308 96.7887 12.416 96.7887 12.544C96.7887 12.672 96.7327 12.792 96.6207 12.904C96.5087 13.008 96.3647 13.06 96.1887 13.06C95.9247 13.06 95.6647 13.012 95.4087 12.916C95.1607 12.812 94.9447 12.648 94.7607 12.424C94.5767 12.192 94.4487 11.884 94.3767 11.5L94.8567 11.116C94.8567 11.436 94.7887 11.748 94.6527 12.052C94.5167 12.348 94.2687 12.592 93.9087 12.784C93.5567 12.976 93.0487 13.072 92.3847 13.072C92.0967 13.072 91.8167 13.048 91.5447 13C91.2807 12.952 91.0367 12.884 90.8127 12.796C90.5887 12.7 90.3927 12.588 90.2247 12.46L90.7047 11.632C90.8647 11.736 91.0887 11.836 91.3767 11.932C91.6647 12.028 92.0007 12.076 92.3847 12.076ZM96.1914 13.06L96.2994 12.076C96.7154 12.076 97.1234 12.044 97.5234 11.98C97.9234 11.916 98.3154 11.824 98.6994 11.704C99.0834 11.584 99.4514 11.44 99.8034 11.272C100.163 11.096 100.503 10.896 100.823 10.672C100.615 10.488 100.375 10.328 100.103 10.192C99.8314 10.056 99.5314 9.952 99.2034 9.88C98.8834 9.8 98.5434 9.76 98.1834 9.76C98.0554 9.76 97.9354 9.764 97.8234 9.772C97.7114 9.78 97.5994 9.796 97.4874 9.82C97.3754 9.836 97.2474 9.86 97.1034 9.892L96.9114 8.98C97.1274 8.916 97.3434 8.868 97.5594 8.836C97.7754 8.796 97.9834 8.776 98.1834 8.776C98.5994 8.776 98.9754 8.828 99.3114 8.932C99.6474 9.028 99.9514 9.148 100.223 9.292C100.503 9.436 100.763 9.58 101.003 9.724C101.251 9.868 101.491 9.992 101.723 10.096C101.955 10.192 102.195 10.24 102.443 10.24H102.695L102.779 11.104C102.435 11.104 102.119 11.152 101.831 11.248C101.543 11.344 101.259 11.468 100.979 11.62C100.707 11.764 100.419 11.92 100.115 12.088C99.8114 12.248 99.4754 12.404 99.1074 12.556C98.7394 12.7 98.3154 12.82 97.8354 12.916C97.3634 13.012 96.8154 13.06 96.1914 13.06ZM98.1954 7.54C98.0274 7.54 97.8834 7.484 97.7634 7.372C97.6514 7.252 97.5954 7.112 97.5954 6.952C97.5954 6.792 97.6514 6.652 97.7634 6.532C97.8834 6.412 98.0274 6.352 98.1954 6.352C98.3554 6.352 98.4914 6.412 98.6034 6.532C98.7234 6.652 98.7834 6.792 98.7834 6.952C98.7834 7.112 98.7234 7.252 98.6034 7.372C98.4914 7.484 98.3554 7.54 98.1954 7.54Z" fill="#0A0F26"/>
<path d="M120.36 13.012C120.36 12.82 120.376 12.616 120.408 12.4C120.448 12.176 120.504 11.94 120.576 11.692C120.656 11.436 120.752 11.168 120.864 10.888L121.728 11.224C121.648 11.448 121.576 11.66 121.512 11.86C121.456 12.06 121.412 12.248 121.38 12.424C121.356 12.6 121.344 12.768 121.344 12.928C121.344 13.264 121.416 13.548 121.56 13.78C121.712 14.02 121.92 14.216 122.184 14.368C122.448 14.52 122.748 14.632 123.084 14.704C123.428 14.776 123.792 14.812 124.176 14.812C124.64 14.812 125.072 14.772 125.472 14.692C125.88 14.612 126.236 14.496 126.54 14.344C126.852 14.2 127.096 14.032 127.272 13.84C127.448 13.656 127.536 13.456 127.536 13.24C127.536 13.136 127.496 13.04 127.416 12.952C127.336 12.864 127.216 12.78 127.056 12.7C126.896 12.62 126.704 12.544 126.48 12.472C126.256 12.392 126 12.312 125.712 12.232L125.94 11.236C126.356 11.396 126.724 11.532 127.044 11.644C127.364 11.748 127.644 11.832 127.884 11.896C128.124 11.96 128.332 12.008 128.508 12.04C128.684 12.064 128.832 12.076 128.952 12.076C129.12 12.076 129.24 12.124 129.312 12.22C129.392 12.308 129.432 12.416 129.432 12.544C129.432 12.672 129.376 12.792 129.264 12.904C129.152 13.008 129.008 13.06 128.832 13.06C128.784 13.06 128.736 13.06 128.688 13.06C128.64 13.06 128.588 13.06 128.532 13.06C128.484 13.06 128.436 13.06 128.388 13.06C128.404 13.132 128.416 13.188 128.424 13.228C128.432 13.276 128.436 13.336 128.436 13.408C128.436 13.704 128.332 13.992 128.124 14.272C127.924 14.552 127.628 14.804 127.236 15.028C126.844 15.26 126.368 15.444 125.808 15.58C125.256 15.716 124.624 15.784 123.912 15.784C123.28 15.784 122.692 15.68 122.148 15.472C121.612 15.272 121.18 14.968 120.852 14.56C120.524 14.152 120.36 13.636 120.36 13.012ZM124.776 18.052C124.608 18.052 124.464 17.992 124.344 17.872C124.232 17.76 124.176 17.624 124.176 17.464C124.176 17.304 124.232 17.164 124.344 17.044C124.464 16.924 124.608 16.864 124.776 16.864C124.936 16.864 125.072 16.924 125.184 17.044C125.304 17.164 125.364 17.304 125.364 17.464C125.364 17.624 125.304 17.76 125.184 17.872C125.072 17.992 124.936 18.052 124.776 18.052ZM123.132 18.052C122.964 18.052 122.82 17.992 122.7 17.872C122.588 17.76 122.532 17.624 122.532 17.464C122.532 17.304 122.588 17.164 122.7 17.044C122.82 16.924 122.964 16.864 123.132 16.864C123.292 16.864 123.428 16.924 123.54 17.044C123.66 17.164 123.72 17.304 123.72 17.464C123.72 17.624 123.66 17.76 123.54 17.872C123.428 17.992 123.292 18.052 123.132 18.052ZM128.836 13.06L128.956 12.076C129.348 12.076 129.66 12.052 129.892 12.004C130.124 11.956 130.292 11.86 130.396 11.716C130.5 11.564 130.552 11.34 130.552 11.044C130.552 10.844 130.52 10.608 130.456 10.336C130.392 10.056 130.308 9.76 130.204 9.448C130.1 9.136 129.988 8.828 129.868 8.524L130.84 8.164C130.944 8.42 131.04 8.712 131.128 9.04C131.224 9.368 131.304 9.692 131.368 10.012C131.432 10.332 131.464 10.612 131.464 10.852C131.464 11.172 131.428 11.456 131.356 11.704C131.292 11.944 131.192 12.152 131.056 12.328C130.92 12.496 130.744 12.636 130.528 12.748C130.32 12.852 130.076 12.932 129.796 12.988C129.516 13.036 129.196 13.06 128.836 13.06ZM130.372 6.916C130.204 6.916 130.06 6.86 129.94 6.748C129.828 6.628 129.772 6.488 129.772 6.328C129.772 6.168 129.828 6.028 129.94 5.908C130.06 5.788 130.204 5.728 130.372 5.728C130.532 5.728 130.668 5.788 130.78 5.908C130.9 6.028 130.96 6.168 130.96 6.328C130.96 6.488 130.9 6.628 130.78 6.748C130.668 6.86 130.532 6.916 130.372 6.916ZM132.755 15.76L132.539 14.776C133.019 14.712 133.459 14.62 133.859 14.5C134.267 14.388 134.615 14.224 134.903 14.008C135.199 13.792 135.427 13.508 135.587 13.156C135.747 12.804 135.827 12.364 135.827 11.836C135.827 11.588 135.803 11.352 135.755 11.128C135.707 10.896 135.635 10.692 135.539 10.516C135.443 10.34 135.327 10.2 135.191 10.096C135.063 9.992 134.915 9.94 134.747 9.94C134.563 9.94 134.395 10.012 134.243 10.156C134.099 10.292 133.983 10.468 133.895 10.684C133.815 10.9 133.775 11.116 133.775 11.332C133.775 11.5 133.807 11.648 133.871 11.776C133.943 11.896 134.059 11.988 134.219 12.052C134.379 12.116 134.587 12.148 134.843 12.148C135.075 12.148 135.307 12.124 135.539 12.076C135.779 12.028 135.983 11.964 136.151 11.884L136.199 12.724C136.007 12.86 135.779 12.956 135.515 13.012C135.259 13.068 134.999 13.096 134.735 13.096C134.431 13.096 134.159 13.064 133.919 13C133.687 12.936 133.487 12.844 133.319 12.724C133.159 12.596 133.035 12.436 132.947 12.244C132.867 12.052 132.827 11.828 132.827 11.572C132.827 11.268 132.875 10.964 132.971 10.66C133.067 10.348 133.203 10.064 133.379 9.808C133.555 9.552 133.767 9.348 134.015 9.196C134.263 9.036 134.539 8.956 134.843 8.956C135.163 8.956 135.443 9.04 135.683 9.208C135.923 9.368 136.123 9.588 136.283 9.868C136.443 10.148 136.563 10.464 136.643 10.816C136.723 11.168 136.763 11.532 136.763 11.908C136.763 12.652 136.611 13.292 136.307 13.828C136.011 14.372 135.563 14.804 134.963 15.124C134.371 15.444 133.635 15.656 132.755 15.76ZM137.474 15.784L137.126 14.872C137.71 14.68 138.194 14.46 138.578 14.212C138.97 13.964 139.278 13.7 139.502 13.42C139.734 13.14 139.898 12.856 139.994 12.568C140.09 12.272 140.138 11.988 140.138 11.716C140.138 11.324 140.05 10.928 139.874 10.528C139.706 10.12 139.518 9.736 139.31 9.376L140.186 8.932C140.338 9.212 140.47 9.488 140.582 9.76C140.702 10.032 140.806 10.288 140.894 10.528C140.99 10.768 141.066 10.988 141.122 11.188C141.234 11.532 141.378 11.768 141.554 11.896C141.738 12.016 141.986 12.076 142.298 12.076C142.466 12.076 142.586 12.124 142.658 12.22C142.738 12.308 142.778 12.416 142.778 12.544C142.778 12.672 142.722 12.792 142.61 12.904C142.498 13.008 142.354 13.06 142.178 13.06C141.826 13.06 141.538 13 141.314 12.88C141.098 12.752 140.934 12.588 140.822 12.388C140.71 12.18 140.634 11.964 140.594 11.74L140.978 11.956C140.978 12.484 140.858 12.964 140.618 13.396C140.386 13.836 140.086 14.216 139.718 14.536C139.35 14.864 138.966 15.132 138.566 15.34C138.166 15.548 137.802 15.696 137.474 15.784ZM142.184 13.06L142.304 12.076C142.704 12.076 143.016 12.048 143.24 11.992C143.464 11.928 143.632 11.812 143.744 11.644C143.864 11.468 143.96 11.216 144.032 10.888C144.104 10.56 144.192 10.132 144.296 9.604L145.232 9.784C145.2 9.928 145.164 10.088 145.124 10.264C145.084 10.44 145.048 10.616 145.016 10.792C144.992 10.96 144.98 11.108 144.98 11.236C144.98 11.356 144.988 11.468 145.004 11.572C145.02 11.676 145.08 11.764 145.184 11.836C145.288 11.908 145.464 11.968 145.712 12.016C145.96 12.056 146.316 12.076 146.78 12.076C146.948 12.076 147.068 12.124 147.14 12.22C147.22 12.308 147.26 12.416 147.26 12.544C147.26 12.672 147.204 12.792 147.092 12.904C146.98 13.008 146.836 13.06 146.66 13.06C146.172 13.06 145.784 13.036 145.496 12.988C145.208 12.932 144.988 12.852 144.836 12.748C144.692 12.644 144.588 12.516 144.524 12.364C144.468 12.204 144.424 12.02 144.392 11.812L144.752 11.836C144.624 12.092 144.484 12.3 144.332 12.46C144.188 12.62 144.02 12.744 143.828 12.832C143.636 12.92 143.404 12.98 143.132 13.012C142.868 13.044 142.552 13.06 142.184 13.06ZM145.388 8.368C145.22 8.368 145.076 8.312 144.956 8.2C144.844 8.08 144.788 7.94 144.788 7.78C144.788 7.62 144.844 7.48 144.956 7.36C145.076 7.24 145.22 7.18 145.388 7.18C145.548 7.18 145.684 7.24 145.796 7.36C145.916 7.48 145.976 7.62 145.976 7.78C145.976 7.94 145.916 8.08 145.796 8.2C145.684 8.312 145.548 8.368 145.388 8.368ZM143.744 8.368C143.576 8.368 143.432 8.312 143.312 8.2C143.2 8.08 143.144 7.94 143.144 7.78C143.144 7.62 143.2 7.48 143.312 7.36C143.432 7.24 143.576 7.18 143.744 7.18C143.904 7.18 144.04 7.24 144.152 7.36C144.272 7.48 144.332 7.62 144.332 7.78C144.332 7.94 144.272 8.08 144.152 8.2C144.04 8.312 143.904 8.368 143.744 8.368ZM146.66 13.06L146.78 12.076H147.704C148.368 12.076 148.86 12.04 149.18 11.968C149.5 11.896 149.708 11.8 149.804 11.68C149.908 11.56 149.96 11.436 149.96 11.308C149.96 11.116 149.888 10.904 149.744 10.672C149.6 10.44 149.416 10.204 149.192 9.964C148.968 9.716 148.728 9.472 148.472 9.232C148.224 8.992 147.988 8.772 147.764 8.572C147.54 8.372 147.356 8.2 147.212 8.056C147.068 7.904 146.996 7.796 146.996 7.732C146.996 7.612 147.004 7.496 147.02 7.384C147.044 7.272 147.072 7.168 147.104 7.072C147.144 6.976 147.192 6.9 147.248 6.844C147.408 6.676 147.628 6.5 147.908 6.316C148.188 6.124 148.512 5.932 148.88 5.74C149.248 5.54 149.64 5.34 150.056 5.14C150.472 4.932 150.892 4.724 151.316 4.516L151.724 5.404C151.34 5.596 150.956 5.788 150.572 5.98C150.188 6.164 149.816 6.348 149.456 6.532C149.096 6.716 148.756 6.904 148.436 7.096C148.124 7.28 147.84 7.468 147.584 7.66L147.656 7.252C148.016 7.556 148.356 7.848 148.676 8.128C148.996 8.408 149.3 8.696 149.588 8.992C149.876 9.28 150.144 9.592 150.392 9.928C150.64 10.264 150.872 10.636 151.088 11.044C151.256 11.356 151.452 11.584 151.676 11.728C151.9 11.872 152.12 11.968 152.336 12.016C152.56 12.056 152.74 12.076 152.876 12.076C153.044 12.076 153.164 12.124 153.236 12.22C153.316 12.308 153.356 12.416 153.356 12.544C153.356 12.672 153.3 12.792 153.188 12.904C153.076 13.008 152.932 13.06 152.756 13.06C152.54 13.06 152.284 13.028 151.988 12.964C151.7 12.892 151.416 12.756 151.136 12.556C150.856 12.356 150.624 12.052 150.44 11.644L150.8 11.788C150.68 12.004 150.54 12.192 150.38 12.352C150.228 12.504 150.032 12.636 149.792 12.748C149.552 12.852 149.26 12.932 148.916 12.988C148.572 13.036 148.152 13.06 147.656 13.06H146.66ZM152.754 13.06L152.862 12.076C153.318 12.076 153.638 12.032 153.822 11.944C154.006 11.856 154.11 11.7 154.134 11.476C154.166 11.252 154.174 10.94 154.158 10.54L153.93 4.432H154.902L155.142 10.432C155.158 10.856 155.142 11.232 155.094 11.56C155.054 11.888 154.95 12.164 154.782 12.388C154.622 12.612 154.378 12.78 154.05 12.892C153.73 13.004 153.298 13.06 152.754 13.06ZM160.587 6.568C160.587 6.392 160.575 6.18 160.551 5.932C160.527 5.684 160.499 5.436 160.467 5.188C160.435 4.94 160.403 4.728 160.371 4.552L161.403 4.432C161.427 4.592 161.451 4.804 161.475 5.068C161.507 5.324 161.531 5.58 161.547 5.836C161.563 6.092 161.571 6.304 161.571 6.472C161.571 6.856 161.543 7.232 161.487 7.6C161.439 7.96 161.359 8.316 161.247 8.668C161.135 9.012 160.987 9.348 160.803 9.676L160.659 9.94C160.435 10.316 160.159 10.68 159.831 11.032C159.503 11.376 159.119 11.704 158.679 12.016H160.191C160.463 12.016 160.671 11.984 160.815 11.92C160.959 11.848 161.055 11.756 161.103 11.644C161.159 11.532 161.187 11.412 161.187 11.284C161.187 11.068 161.055 10.8 160.791 10.48C160.535 10.152 160.179 9.792 159.723 9.4C159.267 9 158.751 8.58 158.175 8.14C157.599 7.7 156.991 7.252 156.351 6.796L156.915 6.004C157.651 6.548 158.299 7.04 158.859 7.48C159.427 7.92 159.911 8.324 160.311 8.692C160.719 9.052 161.051 9.388 161.307 9.7C161.571 10.004 161.763 10.296 161.883 10.576C162.011 10.848 162.075 11.116 162.075 11.38C162.075 11.556 162.043 11.74 161.979 11.932C161.923 12.116 161.819 12.292 161.667 12.46C161.523 12.62 161.315 12.752 161.043 12.856C160.779 12.952 160.435 13 160.011 13H157.251V12.028C158.075 11.436 158.727 10.86 159.207 10.3C159.695 9.74 160.047 9.156 160.263 8.548C160.479 7.94 160.587 7.28 160.587 6.568ZM157.035 16.636L156.891 15.988C157.099 15.94 157.267 15.9 157.395 15.868C157.523 15.836 157.667 15.8 157.827 15.76L157.767 16.012C157.559 15.948 157.359 15.812 157.167 15.604C156.983 15.396 156.891 15.16 156.891 14.896C156.891 14.656 156.947 14.452 157.059 14.284C157.179 14.124 157.331 14.004 157.515 13.924C157.707 13.844 157.911 13.804 158.127 13.804C158.215 13.804 158.307 13.812 158.403 13.828C158.507 13.844 158.603 13.868 158.691 13.9L158.595 14.5C158.515 14.484 158.439 14.468 158.367 14.452C158.295 14.436 158.215 14.428 158.127 14.428C157.943 14.428 157.799 14.464 157.695 14.536C157.591 14.616 157.539 14.724 157.539 14.86C157.539 15.028 157.591 15.172 157.695 15.292C157.807 15.412 157.931 15.504 158.067 15.568C158.211 15.64 158.327 15.676 158.415 15.676L157.923 15.724C158.139 15.668 158.339 15.608 158.523 15.544C158.715 15.488 158.887 15.432 159.039 15.376L159.231 15.988C159.039 16.06 158.811 16.136 158.547 16.216C158.291 16.296 158.031 16.372 157.767 16.444C157.503 16.516 157.259 16.58 157.035 16.636ZM163.959 13L163.719 4.432H164.691L164.931 13H163.959ZM172.654 17.728C172.294 17.728 171.914 17.692 171.514 17.62C171.114 17.556 170.738 17.428 170.386 17.236C170.042 17.052 169.758 16.788 169.534 16.444C169.318 16.108 169.21 15.672 169.21 15.136C169.21 14.592 169.31 14.116 169.51 13.708C169.718 13.308 169.982 12.956 170.302 12.652C170.63 12.34 170.974 12.06 171.334 11.812C171.694 11.564 172.034 11.332 172.354 11.116C172.682 10.9 172.946 10.684 173.146 10.468C173.354 10.244 173.458 10 173.458 9.736C173.458 9.632 173.422 9.528 173.35 9.424C173.286 9.312 173.178 9.22 173.026 9.148C172.882 9.076 172.686 9.04 172.438 9.04C172.262 9.04 172.066 9.064 171.85 9.112C171.634 9.16 171.426 9.228 171.226 9.316C171.034 9.396 170.874 9.488 170.746 9.592C170.962 9.768 171.162 9.94 171.346 10.108C171.538 10.276 171.734 10.46 171.934 10.66C172.134 10.852 172.35 11.072 172.582 11.32C172.782 11.432 172.978 11.536 173.17 11.632C173.37 11.72 173.582 11.8 173.806 11.872C174.03 11.936 174.286 11.988 174.574 12.028C174.862 12.06 175.198 12.076 175.582 12.076C175.75 12.076 175.87 12.124 175.942 12.22C176.022 12.308 176.062 12.416 176.062 12.544C176.062 12.672 176.006 12.792 175.894 12.904C175.782 13.008 175.638 13.06 175.462 13.06C174.798 13.06 174.246 13.008 173.806 12.904C173.374 12.8 173.006 12.66 172.702 12.484C172.398 12.308 172.106 12.112 171.826 11.896C171.69 11.72 171.538 11.544 171.37 11.368C171.202 11.192 171.018 11.016 170.818 10.84C170.626 10.656 170.418 10.484 170.194 10.324C170.146 10.284 170.098 10.212 170.05 10.108C170.002 10.004 169.962 9.896 169.93 9.784C169.898 9.672 169.882 9.588 169.882 9.532C169.882 9.412 169.958 9.268 170.11 9.1C170.262 8.932 170.466 8.772 170.722 8.62C170.978 8.46 171.27 8.328 171.598 8.224C171.926 8.12 172.266 8.068 172.618 8.068C173.186 8.068 173.626 8.208 173.938 8.488C174.25 8.768 174.406 9.096 174.406 9.472C174.406 9.88 174.302 10.244 174.094 10.564C173.894 10.884 173.634 11.176 173.314 11.44C172.994 11.704 172.654 11.96 172.294 12.208C171.942 12.456 171.606 12.716 171.286 12.988C170.966 13.252 170.702 13.544 170.494 13.864C170.294 14.184 170.194 14.556 170.194 14.98C170.194 15.348 170.282 15.648 170.458 15.88C170.634 16.112 170.854 16.288 171.118 16.408C171.382 16.536 171.654 16.624 171.934 16.672C172.214 16.72 172.454 16.744 172.654 16.744C172.934 16.744 173.218 16.724 173.506 16.684C173.802 16.644 174.106 16.58 174.418 16.492C174.738 16.404 175.058 16.296 175.378 16.168L175.69 16.936C175.458 17.072 175.174 17.2 174.838 17.32C174.502 17.448 174.146 17.548 173.77 17.62C173.394 17.692 173.022 17.728 172.654 17.728ZM175.465 13.06L175.585 12.076C175.785 12.076 176.005 12.076 176.245 12.076C176.493 12.068 176.741 12.06 176.989 12.052C177.245 12.044 177.481 12.028 177.697 12.004C177.913 11.972 178.093 11.932 178.237 11.884C178.525 11.78 178.749 11.652 178.909 11.5C179.069 11.34 179.181 11.132 179.245 10.876C179.317 10.612 179.353 10.276 179.353 9.868C179.353 9.532 179.309 9.22 179.221 8.932C179.133 8.644 179.009 8.412 178.849 8.236C178.689 8.06 178.497 7.972 178.273 7.972C178.089 7.972 177.921 8.044 177.769 8.188C177.625 8.324 177.509 8.5 177.421 8.716C177.341 8.932 177.301 9.148 177.301 9.364C177.301 9.532 177.333 9.676 177.397 9.796C177.469 9.916 177.585 10.012 177.745 10.084C177.905 10.148 178.113 10.18 178.369 10.18C178.601 10.18 178.833 10.156 179.065 10.108C179.305 10.06 179.509 9.996 179.677 9.916L179.725 10.756C179.597 10.844 179.453 10.916 179.293 10.972C179.133 11.028 178.965 11.068 178.789 11.092C178.613 11.116 178.437 11.128 178.261 11.128C177.853 11.128 177.505 11.064 177.217 10.936C176.937 10.8 176.721 10.62 176.569 10.396C176.425 10.164 176.353 9.9 176.353 9.604C176.353 9.3 176.401 8.996 176.497 8.692C176.593 8.38 176.729 8.096 176.905 7.84C177.081 7.584 177.293 7.38 177.541 7.228C177.789 7.068 178.065 6.988 178.369 6.988C178.801 6.988 179.157 7.128 179.437 7.408C179.725 7.688 179.937 8.056 180.073 8.512C180.217 8.96 180.289 9.436 180.289 9.94C180.289 10.54 180.185 11.056 179.977 11.488C179.777 11.912 179.441 12.264 178.969 12.544C178.785 12.648 178.561 12.736 178.297 12.808C178.041 12.872 177.757 12.924 177.445 12.964C177.141 13.004 176.821 13.028 176.485 13.036C176.149 13.052 175.809 13.06 175.465 13.06ZM178.981 5.752C178.813 5.752 178.669 5.696 178.549 5.584C178.437 5.464 178.381 5.324 178.381 5.164C178.381 5.004 178.437 4.864 178.549 4.744C178.669 4.624 178.813 4.564 178.981 4.564C179.141 4.564 179.277 4.624 179.389 4.744C179.509 4.864 179.569 5.004 179.569 5.164C179.569 5.324 179.509 5.464 179.389 5.584C179.277 5.696 179.141 5.752 178.981 5.752ZM177.337 5.752C177.169 5.752 177.025 5.696 176.905 5.584C176.793 5.464 176.737 5.324 176.737 5.164C176.737 5.004 176.793 4.864 176.905 4.744C177.025 4.624 177.169 4.564 177.337 4.564C177.497 4.564 177.633 4.624 177.745 4.744C177.865 4.864 177.925 5.004 177.925 5.164C177.925 5.324 177.865 5.464 177.745 5.584C177.633 5.696 177.497 5.752 177.337 5.752ZM181.528 15.76L181.312 14.776C181.792 14.712 182.232 14.62 182.632 14.5C183.04 14.388 183.388 14.224 183.676 14.008C183.972 13.792 184.2 13.508 184.36 13.156C184.52 12.804 184.6 12.364 184.6 11.836C184.6 11.292 184.5 10.84 184.3 10.48C184.1 10.12 183.84 9.94 183.52 9.94C183.352 9.94 183.196 10.004 183.052 10.132C182.908 10.26 182.788 10.432 182.692 10.648C182.604 10.864 182.56 11.1 182.56 11.356C182.56 11.5 182.592 11.62 182.656 11.716C182.72 11.804 182.812 11.876 182.932 11.932C183.06 11.98 183.22 12.016 183.412 12.04C183.604 12.064 183.828 12.076 184.084 12.076H186.616C186.784 12.076 186.904 12.124 186.976 12.22C187.056 12.308 187.096 12.416 187.096 12.544C187.096 12.672 187.04 12.792 186.928 12.904C186.816 13.008 186.672 13.06 186.496 13.06H183.628C183.268 13.06 182.932 13.008 182.62 12.904C182.316 12.8 182.068 12.64 181.876 12.424C181.692 12.2 181.6 11.908 181.6 11.548C181.6 11.212 181.652 10.892 181.756 10.588C181.86 10.276 182 10 182.176 9.76C182.36 9.512 182.572 9.316 182.812 9.172C183.06 9.028 183.328 8.956 183.616 8.956C183.984 8.956 184.312 9.064 184.6 9.28C184.888 9.496 185.116 9.824 185.284 10.264C185.452 10.696 185.536 11.244 185.536 11.908C185.536 12.652 185.384 13.292 185.08 13.828C184.784 14.372 184.336 14.804 183.736 15.124C183.144 15.444 182.408 15.656 181.528 15.76ZM186.492 13.06L186.612 12.076C186.836 12.076 187.012 12.028 187.14 11.932C187.276 11.836 187.404 11.676 187.524 11.452C187.652 11.228 187.812 10.928 188.004 10.552C188.196 10.168 188.388 9.856 188.58 9.616C188.78 9.368 188.972 9.176 189.156 9.04C189.348 8.896 189.528 8.796 189.696 8.74C189.864 8.684 190.02 8.656 190.164 8.656C190.428 8.656 190.664 8.716 190.872 8.836C191.08 8.948 191.276 9.144 191.46 9.424C191.644 9.696 191.832 10.072 192.024 10.552C192.208 10.992 192.372 11.324 192.516 11.548C192.668 11.764 192.824 11.908 192.984 11.98C193.152 12.044 193.34 12.076 193.548 12.076C193.716 12.076 193.836 12.124 193.908 12.22C193.988 12.308 194.028 12.416 194.028 12.544C194.028 12.672 193.972 12.792 193.86 12.904C193.748 13.008 193.604 13.06 193.428 13.06C193.116 13.06 192.828 13.008 192.564 12.904C192.308 12.8 192.092 12.636 191.916 12.412L192.084 12.16C191.996 12.408 191.876 12.612 191.724 12.772C191.58 12.924 191.416 13.036 191.232 13.108C191.048 13.188 190.852 13.228 190.644 13.228C190.38 13.228 190.108 13.172 189.828 13.06C189.556 12.948 189.292 12.788 189.036 12.58C188.78 12.372 188.556 12.128 188.364 11.848C188.156 12.216 187.956 12.488 187.764 12.664C187.58 12.832 187.388 12.94 187.188 12.988C186.988 13.036 186.756 13.06 186.492 13.06ZM188.82 10.936C188.956 11.16 189.1 11.356 189.252 11.524C189.412 11.692 189.572 11.832 189.732 11.944C189.892 12.048 190.048 12.128 190.2 12.184C190.36 12.232 190.504 12.256 190.632 12.256C190.912 12.256 191.116 12.156 191.244 11.956C191.38 11.756 191.376 11.476 191.232 11.116C191.16 10.932 191.084 10.752 191.004 10.576C190.932 10.4 190.852 10.24 190.764 10.096C190.676 9.944 190.576 9.828 190.464 9.748C190.352 9.66 190.228 9.616 190.092 9.616C189.972 9.616 189.844 9.656 189.708 9.736C189.58 9.816 189.44 9.952 189.288 10.144C189.144 10.336 188.988 10.6 188.82 10.936ZM193.43 13.06L193.538 12.076C193.994 12.076 194.314 12.032 194.498 11.944C194.682 11.856 194.786 11.7 194.81 11.476C194.842 11.252 194.85 10.94 194.834 10.54L194.606 4.432H195.578L195.818 10.432C195.834 10.856 195.818 11.232 195.77 11.56C195.73 11.888 195.626 12.164 195.458 12.388C195.298 12.612 195.054 12.78 194.726 12.892C194.406 13.004 193.974 13.06 193.43 13.06ZM197.651 13L197.411 4.432H198.383L198.623 13H197.651Z" fill="#0A0F26"/>
<path d="M220.68 13.252L220.992 12.268C221.928 12.268 222.732 12.244 223.404 12.196C224.084 12.148 224.64 12.072 225.072 11.968C225.512 11.856 225.836 11.708 226.044 11.524C226.26 11.332 226.368 11.1 226.368 10.828C226.368 10.524 226.312 10.172 226.2 9.772C226.088 9.372 225.944 8.944 225.768 8.488L226.692 8.164C226.796 8.42 226.892 8.696 226.98 8.992C227.076 9.28 227.156 9.568 227.22 9.856C227.284 10.136 227.316 10.396 227.316 10.636C227.316 11.108 227.208 11.512 226.992 11.848C226.776 12.176 226.416 12.444 225.912 12.652C225.408 12.86 224.728 13.012 223.872 13.108C223.024 13.204 221.96 13.252 220.68 13.252ZM220.68 13.252C219.968 13.252 219.34 13.204 218.796 13.108C218.26 13.02 217.812 12.88 217.452 12.688C217.092 12.496 216.82 12.248 216.636 11.944C216.452 11.632 216.36 11.256 216.36 10.816C216.36 10.616 216.376 10.412 216.408 10.204C216.44 9.988 216.48 9.772 216.528 9.556C216.584 9.34 216.64 9.132 216.696 8.932L217.596 9.16C217.564 9.28 217.528 9.424 217.488 9.592C217.448 9.752 217.412 9.916 217.38 10.084C217.356 10.252 217.344 10.404 217.344 10.54C217.344 10.956 217.448 11.292 217.656 11.548C217.872 11.796 218.244 11.98 218.772 12.1C219.3 12.212 220.04 12.268 220.992 12.268L221.232 12.868L220.68 13.252ZM222.684 8.188C222.516 8.188 222.372 8.132 222.252 8.02C222.14 7.9 222.084 7.76 222.084 7.6C222.084 7.44 222.14 7.3 222.252 7.18C222.372 7.06 222.516 7 222.684 7C222.844 7 222.98 7.06 223.092 7.18C223.212 7.3 223.272 7.44 223.272 7.6C223.272 7.76 223.212 7.9 223.092 8.02C222.98 8.132 222.844 8.188 222.684 8.188ZM221.04 8.188C220.872 8.188 220.728 8.132 220.608 8.02C220.496 7.9 220.44 7.76 220.44 7.6C220.44 7.44 220.496 7.3 220.608 7.18C220.728 7.06 220.872 7 221.04 7C221.2 7 221.336 7.06 221.448 7.18C221.568 7.3 221.628 7.44 221.628 7.6C221.628 7.76 221.568 7.9 221.448 8.02C221.336 8.132 221.2 8.188 221.04 8.188ZM231.41 13.06C230.77 13.06 230.278 12.988 229.934 12.844C229.598 12.7 229.366 12.476 229.238 12.172C229.11 11.868 229.038 11.476 229.022 10.996L228.782 4.432H229.766L230.006 10.612C230.022 11.004 230.058 11.308 230.114 11.524C230.178 11.732 230.314 11.876 230.522 11.956C230.738 12.036 231.074 12.076 231.53 12.076C231.698 12.076 231.818 12.124 231.89 12.22C231.97 12.308 232.01 12.416 232.01 12.544C232.01 12.672 231.954 12.792 231.842 12.904C231.73 13.008 231.586 13.06 231.41 13.06ZM239.054 13.06C238.718 13.06 238.41 13.04 238.13 13C237.85 12.952 237.598 12.868 237.374 12.748C237.15 12.628 236.962 12.456 236.81 12.232C236.658 12 236.542 11.696 236.462 11.32L237.17 10.9C237.274 11.22 237.402 11.464 237.554 11.632C237.706 11.8 237.91 11.916 238.166 11.98C238.43 12.044 238.766 12.076 239.174 12.076C239.342 12.076 239.462 12.124 239.534 12.22C239.614 12.308 239.654 12.416 239.654 12.544C239.654 12.672 239.598 12.792 239.486 12.904C239.374 13.008 239.23 13.06 239.054 13.06ZM231.41 13.06L231.518 12.076C231.934 12.076 232.342 12.044 232.742 11.98C233.142 11.916 233.534 11.824 233.918 11.704C234.302 11.584 234.67 11.44 235.022 11.272C235.382 11.096 235.722 10.896 236.042 10.672C235.834 10.488 235.594 10.328 235.322 10.192C235.05 10.056 234.75 9.952 234.422 9.88C234.102 9.8 233.762 9.76 233.402 9.76C233.274 9.76 233.154 9.764 233.042 9.772C232.93 9.78 232.818 9.796 232.706 9.82C232.594 9.836 232.466 9.86 232.322 9.892L232.13 8.98C232.346 8.916 232.562 8.868 232.778 8.836C232.994 8.796 233.202 8.776 233.402 8.776C233.818 8.776 234.194 8.828 234.53 8.932C234.866 9.028 235.17 9.148 235.442 9.292C235.722 9.436 235.982 9.58 236.222 9.724C236.47 9.868 236.71 9.992 236.942 10.096C237.174 10.192 237.414 10.24 237.662 10.24H237.914L237.998 11.104C237.654 11.104 237.338 11.152 237.05 11.248C236.762 11.344 236.478 11.468 236.198 11.62C235.926 11.764 235.638 11.92 235.334 12.088C235.03 12.248 234.694 12.404 234.326 12.556C233.958 12.7 233.534 12.82 233.054 12.916C232.582 13.012 232.034 13.06 231.41 13.06ZM234.542 15.232C234.374 15.232 234.23 15.172 234.11 15.052C233.998 14.94 233.942 14.804 233.942 14.644C233.942 14.484 233.998 14.344 234.11 14.224C234.23 14.104 234.374 14.044 234.542 14.044C234.702 14.044 234.838 14.104 234.95 14.224C235.07 14.344 235.13 14.484 235.13 14.644C235.13 14.804 235.07 14.94 234.95 15.052C234.838 15.172 234.702 15.232 234.542 15.232ZM239.051 13.06L239.171 12.076C239.571 12.076 239.883 12.048 240.107 11.992C240.331 11.928 240.499 11.812 240.611 11.644C240.731 11.468 240.827 11.216 240.899 10.888C240.971 10.56 241.059 10.132 241.163 9.604L242.099 9.784C242.067 9.928 242.031 10.088 241.991 10.264C241.951 10.44 241.915 10.616 241.883 10.792C241.859 10.96 241.847 11.108 241.847 11.236C241.847 11.356 241.855 11.468 241.871 11.572C241.887 11.676 241.947 11.764 242.051 11.836C242.155 11.908 242.331 11.968 242.579 12.016C242.827 12.056 243.183 12.076 243.647 12.076C243.815 12.076 243.935 12.124 244.007 12.22C244.087 12.308 244.127 12.416 244.127 12.544C244.127 12.672 244.071 12.792 243.959 12.904C243.847 13.008 243.703 13.06 243.527 13.06C243.039 13.06 242.651 13.036 242.363 12.988C242.075 12.932 241.855 12.852 241.703 12.748C241.559 12.644 241.455 12.516 241.391 12.364C241.335 12.204 241.291 12.02 241.259 11.812L241.619 11.836C241.491 12.092 241.351 12.3 241.199 12.46C241.055 12.62 240.887 12.744 240.695 12.832C240.503 12.92 240.271 12.98 239.999 13.012C239.735 13.044 239.419 13.06 239.051 13.06ZM242.255 8.368C242.087 8.368 241.943 8.312 241.823 8.2C241.711 8.08 241.655 7.94 241.655 7.78C241.655 7.62 241.711 7.48 241.823 7.36C241.943 7.24 242.087 7.18 242.255 7.18C242.415 7.18 242.551 7.24 242.663 7.36C242.783 7.48 242.843 7.62 242.843 7.78C242.843 7.94 242.783 8.08 242.663 8.2C242.551 8.312 242.415 8.368 242.255 8.368ZM240.611 8.368C240.443 8.368 240.299 8.312 240.179 8.2C240.067 8.08 240.011 7.94 240.011 7.78C240.011 7.62 240.067 7.48 240.179 7.36C240.299 7.24 240.443 7.18 240.611 7.18C240.771 7.18 240.907 7.24 241.019 7.36C241.139 7.48 241.199 7.62 241.199 7.78C241.199 7.94 241.139 8.08 241.019 8.2C240.907 8.312 240.771 8.368 240.611 8.368ZM243.527 13.06L243.647 12.076C243.983 12.076 244.247 12.048 244.439 11.992C244.631 11.928 244.775 11.812 244.871 11.644C244.975 11.468 245.063 11.216 245.135 10.888C245.207 10.56 245.295 10.132 245.399 9.604L246.335 9.784C246.303 9.928 246.267 10.088 246.227 10.264C246.187 10.44 246.151 10.616 246.119 10.792C246.095 10.96 246.083 11.108 246.083 11.236C246.083 11.396 246.119 11.54 246.191 11.668C246.263 11.796 246.419 11.896 246.659 11.968C246.899 12.04 247.267 12.076 247.763 12.076C247.931 12.076 248.051 12.124 248.123 12.22C248.203 12.308 248.243 12.416 248.243 12.544C248.243 12.672 248.187 12.792 248.075 12.904C247.963 13.008 247.819 13.06 247.643 13.06C247.123 13.06 246.715 13.016 246.419 12.928C246.123 12.832 245.907 12.692 245.771 12.508C245.635 12.316 245.543 12.084 245.495 11.812L245.855 11.836C245.727 12.092 245.587 12.3 245.435 12.46C245.291 12.62 245.131 12.744 244.955 12.832C244.779 12.92 244.575 12.98 244.343 13.012C244.111 13.044 243.839 13.06 243.527 13.06ZM245.399 8.368C245.231 8.368 245.087 8.312 244.967 8.2C244.855 8.08 244.799 7.94 244.799 7.78C244.799 7.62 244.855 7.48 244.967 7.36C245.087 7.24 245.231 7.18 245.399 7.18C245.559 7.18 245.695 7.24 245.807 7.36C245.927 7.48 245.987 7.62 245.987 7.78C245.987 7.94 245.927 8.08 245.807 8.2C245.695 8.312 245.559 8.368 245.399 8.368ZM247.641 13.06L247.761 12.076C247.985 12.076 248.161 12.028 248.289 11.932C248.425 11.836 248.553 11.676 248.673 11.452C248.801 11.228 248.961 10.928 249.153 10.552C249.345 10.168 249.537 9.856 249.729 9.616C249.929 9.368 250.121 9.176 250.305 9.04C250.497 8.896 250.677 8.796 250.845 8.74C251.013 8.684 251.169 8.656 251.313 8.656C251.577 8.656 251.813 8.716 252.021 8.836C252.229 8.948 252.425 9.144 252.609 9.424C252.793 9.696 252.981 10.072 253.173 10.552C253.357 10.992 253.521 11.324 253.665 11.548C253.817 11.764 253.973 11.908 254.133 11.98C254.301 12.044 254.489 12.076 254.697 12.076C254.865 12.076 254.985 12.124 255.057 12.22C255.137 12.308 255.177 12.416 255.177 12.544C255.177 12.672 255.121 12.792 255.009 12.904C254.897 13.008 254.753 13.06 254.577 13.06C254.265 13.06 253.977 13.008 253.713 12.904C253.457 12.8 253.241 12.636 253.065 12.412L253.233 12.16C253.145 12.408 253.025 12.612 252.873 12.772C252.729 12.924 252.565 13.036 252.381 13.108C252.197 13.188 252.001 13.228 251.793 13.228C251.529 13.228 251.257 13.172 250.977 13.06C250.705 12.948 250.441 12.788 250.185 12.58C249.929 12.372 249.705 12.128 249.513 11.848C249.305 12.216 249.105 12.488 248.913 12.664C248.729 12.832 248.537 12.94 248.337 12.988C248.137 13.036 247.905 13.06 247.641 13.06ZM249.969 10.936C250.105 11.16 250.249 11.356 250.401 11.524C250.561 11.692 250.721 11.832 250.881 11.944C251.041 12.048 251.197 12.128 251.349 12.184C251.509 12.232 251.653 12.256 251.781 12.256C252.061 12.256 252.265 12.156 252.393 11.956C252.529 11.756 252.525 11.476 252.381 11.116C252.309 10.932 252.233 10.752 252.153 10.576C252.081 10.4 252.001 10.24 251.913 10.096C251.825 9.944 251.725 9.828 251.613 9.748C251.501 9.66 251.377 9.616 251.241 9.616C251.121 9.616 250.993 9.656 250.857 9.736C250.729 9.816 250.589 9.952 250.437 10.144C250.293 10.336 250.137 10.6 249.969 10.936ZM254.578 13.06L254.686 12.076C255.142 12.076 255.462 12.032 255.646 11.944C255.83 11.856 255.934 11.7 255.958 11.476C255.99 11.252 255.998 10.94 255.982 10.54L255.754 4.432H256.726L256.966 10.432C256.982 10.856 256.966 11.232 256.918 11.56C256.878 11.888 256.774 12.164 256.606 12.388C256.446 12.612 256.202 12.78 255.874 12.892C255.554 13.004 255.122 13.06 254.578 13.06ZM258.799 13L258.559 4.432H259.531L259.771 13H258.799ZM261.251 15.76L261.035 14.776C261.515 14.712 261.955 14.62 262.355 14.5C262.763 14.388 263.111 14.224 263.399 14.008C263.695 13.792 263.923 13.508 264.083 13.156C264.243 12.804 264.323 12.364 264.323 11.836C264.323 11.588 264.299 11.352 264.251 11.128C264.203 10.896 264.131 10.692 264.035 10.516C263.939 10.34 263.823 10.2 263.687 10.096C263.559 9.992 263.411 9.94 263.243 9.94C263.059 9.94 262.891 10.012 262.739 10.156C262.595 10.292 262.479 10.468 262.391 10.684C262.311 10.9 262.271 11.116 262.271 11.332C262.271 11.5 262.303 11.648 262.367 11.776C262.439 11.896 262.555 11.988 262.715 12.052C262.875 12.116 263.083 12.148 263.339 12.148C263.571 12.148 263.803 12.124 264.035 12.076C264.275 12.028 264.479 11.964 264.647 11.884L264.695 12.724C264.503 12.86 264.275 12.956 264.011 13.012C263.755 13.068 263.495 13.096 263.231 13.096C262.927 13.096 262.655 13.064 262.415 13C262.183 12.936 261.983 12.844 261.815 12.724C261.655 12.596 261.531 12.436 261.443 12.244C261.363 12.052 261.323 11.828 261.323 11.572C261.323 11.268 261.371 10.964 261.467 10.66C261.563 10.348 261.699 10.064 261.875 9.808C262.051 9.552 262.263 9.348 262.511 9.196C262.759 9.036 263.035 8.956 263.339 8.956C263.659 8.956 263.939 9.04 264.179 9.208C264.419 9.368 264.619 9.588 264.779 9.868C264.939 10.148 265.059 10.464 265.139 10.816C265.219 11.168 265.259 11.532 265.259 11.908C265.259 12.652 265.107 13.292 264.803 13.828C264.507 14.372 264.059 14.804 263.459 15.124C262.867 15.444 262.131 15.656 261.251 15.76ZM273.977 13.252L274.289 12.268C275.225 12.268 276.029 12.244 276.701 12.196C277.381 12.148 277.937 12.072 278.369 11.968C278.809 11.856 279.133 11.708 279.341 11.524C279.557 11.332 279.665 11.1 279.665 10.828C279.665 10.524 279.609 10.172 279.497 9.772C279.385 9.372 279.241 8.944 279.065 8.488L279.989 8.164C280.093 8.42 280.189 8.696 280.277 8.992C280.373 9.28 280.453 9.568 280.517 9.856C280.581 10.136 280.613 10.396 280.613 10.636C280.613 11.108 280.505 11.512 280.289 11.848C280.073 12.176 279.713 12.444 279.209 12.652C278.705 12.86 278.025 13.012 277.169 13.108C276.321 13.204 275.257 13.252 273.977 13.252ZM273.977 13.252C273.265 13.252 272.637 13.204 272.093 13.108C271.557 13.02 271.109 12.88 270.749 12.688C270.389 12.496 270.117 12.248 269.933 11.944C269.749 11.632 269.657 11.256 269.657 10.816C269.657 10.616 269.673 10.412 269.705 10.204C269.737 9.988 269.777 9.772 269.825 9.556C269.881 9.34 269.937 9.132 269.993 8.932L270.893 9.16C270.861 9.28 270.825 9.424 270.785 9.592C270.745 9.752 270.709 9.916 270.677 10.084C270.653 10.252 270.641 10.404 270.641 10.54C270.641 10.956 270.745 11.292 270.953 11.548C271.169 11.796 271.541 11.98 272.069 12.1C272.597 12.212 273.337 12.268 274.289 12.268L274.529 12.868L273.977 13.252ZM275.981 8.188C275.813 8.188 275.669 8.132 275.549 8.02C275.437 7.9 275.381 7.76 275.381 7.6C275.381 7.44 275.437 7.3 275.549 7.18C275.669 7.06 275.813 7 275.981 7C276.141 7 276.277 7.06 276.389 7.18C276.509 7.3 276.569 7.44 276.569 7.6C276.569 7.76 276.509 7.9 276.389 8.02C276.277 8.132 276.141 8.188 275.981 8.188ZM274.337 8.188C274.169 8.188 274.025 8.132 273.905 8.02C273.793 7.9 273.737 7.76 273.737 7.6C273.737 7.44 273.793 7.3 273.905 7.18C274.025 7.06 274.169 7 274.337 7C274.497 7 274.633 7.06 274.745 7.18C274.865 7.3 274.925 7.44 274.925 7.6C274.925 7.76 274.865 7.9 274.745 8.02C274.633 8.132 274.497 8.188 274.337 8.188ZM284.707 13.06C284.067 13.06 283.575 12.988 283.231 12.844C282.895 12.7 282.663 12.476 282.535 12.172C282.407 11.868 282.335 11.476 282.319 10.996L282.079 4.432H283.063L283.303 10.612C283.319 11.004 283.355 11.308 283.411 11.524C283.475 11.732 283.611 11.876 283.819 11.956C284.035 12.036 284.371 12.076 284.827 12.076C284.995 12.076 285.115 12.124 285.187 12.22C285.267 12.308 285.307 12.416 285.307 12.544C285.307 12.672 285.251 12.792 285.139 12.904C285.027 13.008 284.883 13.06 284.707 13.06ZM284.707 13.06L284.827 12.076C285.051 12.076 285.239 12.028 285.391 11.932C285.543 11.836 285.691 11.676 285.835 11.452C285.979 11.228 286.135 10.928 286.303 10.552C286.535 10.04 286.763 9.652 286.987 9.388C287.219 9.124 287.447 8.944 287.671 8.848C287.903 8.752 288.131 8.704 288.355 8.704C288.627 8.704 288.879 8.776 289.111 8.92C289.343 9.056 289.547 9.24 289.723 9.472C289.899 9.704 290.035 9.96 290.131 10.24C290.235 10.512 290.287 10.784 290.287 11.056C290.287 11.536 290.203 11.92 290.035 12.208C289.867 12.488 289.651 12.692 289.387 12.82C289.131 12.94 288.863 13 288.583 13C288.335 13 288.015 12.952 287.623 12.856C287.239 12.76 286.751 12.516 286.159 12.124L286.627 11.368C287.019 11.616 287.371 11.788 287.683 11.884C288.003 11.972 288.267 12.016 288.475 12.016C288.707 12.016 288.891 11.984 289.027 11.92C289.163 11.848 289.263 11.748 289.327 11.62C289.391 11.492 289.423 11.348 289.423 11.188C289.423 10.956 289.367 10.724 289.255 10.492C289.143 10.26 288.999 10.068 288.823 9.916C288.655 9.764 288.475 9.688 288.283 9.688C288.139 9.688 287.999 9.728 287.863 9.808C287.727 9.888 287.587 10.036 287.443 10.252C287.299 10.468 287.135 10.78 286.951 11.188C286.759 11.62 286.575 11.964 286.399 12.22C286.231 12.468 286.059 12.652 285.883 12.772C285.707 12.892 285.523 12.968 285.331 13C285.147 13.04 284.939 13.06 284.707 13.06ZM293.592 12.076C293.992 12.076 294.308 12.036 294.54 11.956C294.78 11.876 294.952 11.76 295.056 11.608C295.168 11.448 295.224 11.264 295.224 11.056C295.224 10.896 295.18 10.704 295.092 10.48C295.012 10.256 294.9 10.008 294.756 9.736C294.612 9.456 294.444 9.164 294.252 8.86C294.068 8.548 293.868 8.232 293.652 7.912L294.48 7.372C294.792 7.844 295.064 8.292 295.296 8.716C295.528 9.132 295.724 9.524 295.884 9.892C296.044 10.252 296.172 10.592 296.268 10.912C296.38 11.264 296.504 11.524 296.64 11.692C296.784 11.86 296.932 11.968 297.084 12.016C297.236 12.056 297.376 12.076 297.504 12.076C297.672 12.076 297.796 12.124 297.876 12.22C297.956 12.308 297.996 12.416 297.996 12.544C297.996 12.672 297.94 12.792 297.828 12.904C297.716 13.008 297.572 13.06 297.396 13.06C297.132 13.06 296.872 13.012 296.616 12.916C296.368 12.812 296.152 12.648 295.968 12.424C295.784 12.192 295.656 11.884 295.584 11.5L296.064 11.116C296.064 11.436 295.996 11.748 295.86 12.052C295.724 12.348 295.476 12.592 295.116 12.784C294.764 12.976 294.256 13.072 293.592 13.072C293.304 13.072 293.024 13.048 292.752 13C292.488 12.952 292.244 12.884 292.02 12.796C291.796 12.7 291.6 12.588 291.432 12.46L291.912 11.632C292.072 11.736 292.296 11.836 292.584 11.932C292.872 12.028 293.208 12.076 293.592 12.076ZM305.042 13.06C304.706 13.06 304.398 13.04 304.118 13C303.838 12.952 303.586 12.868 303.362 12.748C303.138 12.628 302.95 12.456 302.798 12.232C302.646 12 302.53 11.696 302.45 11.32L303.158 10.9C303.262 11.22 303.39 11.464 303.542 11.632C303.694 11.8 303.898 11.916 304.154 11.98C304.418 12.044 304.754 12.076 305.162 12.076C305.33 12.076 305.45 12.124 305.522 12.22C305.602 12.308 305.642 12.416 305.642 12.544C305.642 12.672 305.586 12.792 305.474 12.904C305.362 13.008 305.218 13.06 305.042 13.06ZM297.398 13.06L297.506 12.076C297.922 12.076 298.33 12.044 298.73 11.98C299.13 11.916 299.522 11.824 299.906 11.704C300.29 11.584 300.658 11.44 301.01 11.272C301.37 11.096 301.71 10.896 302.03 10.672C301.822 10.488 301.582 10.328 301.31 10.192C301.038 10.056 300.738 9.952 300.41 9.88C300.09 9.8 299.75 9.76 299.39 9.76C299.262 9.76 299.142 9.764 299.03 9.772C298.918 9.78 298.806 9.796 298.694 9.82C298.582 9.836 298.454 9.86 298.31 9.892L298.118 8.98C298.334 8.916 298.55 8.868 298.766 8.836C298.982 8.796 299.19 8.776 299.39 8.776C299.806 8.776 300.182 8.828 300.518 8.932C300.854 9.028 301.158 9.148 301.43 9.292C301.71 9.436 301.97 9.58 302.21 9.724C302.458 9.868 302.698 9.992 302.93 10.096C303.162 10.192 303.402 10.24 303.65 10.24H303.902L303.986 11.104C303.642 11.104 303.326 11.152 303.038 11.248C302.75 11.344 302.466 11.468 302.186 11.62C301.914 11.764 301.626 11.92 301.322 12.088C301.018 12.248 300.682 12.404 300.314 12.556C299.946 12.7 299.522 12.82 299.042 12.916C298.57 13.012 298.022 13.06 297.398 13.06ZM299.282 7.54C299.114 7.54 298.97 7.484 298.85 7.372C298.738 7.252 298.682 7.112 298.682 6.952C298.682 6.792 298.738 6.652 298.85 6.532C298.97 6.412 299.114 6.352 299.282 6.352C299.442 6.352 299.578 6.412 299.69 6.532C299.81 6.652 299.87 6.792 299.87 6.952C299.87 7.112 299.81 7.252 299.69 7.372C299.578 7.484 299.442 7.54 299.282 7.54ZM305.039 13.06L305.147 12.076C305.603 12.076 305.923 12.032 306.107 11.944C306.291 11.856 306.395 11.7 306.419 11.476C306.451 11.252 306.459 10.94 306.443 10.54L306.215 4.432H307.187L307.427 10.432C307.443 10.856 307.427 11.232 307.379 11.56C307.339 11.888 307.235 12.164 307.067 12.388C306.907 12.612 306.663 12.78 306.335 12.892C306.015 13.004 305.583 13.06 305.039 13.06ZM309.26 13L309.02 4.432H309.992L310.232 13H309.26Z" fill="#0A0F26"/>
<path d="M312 72H0V76H312V72Z" fill="#E0E0E0" mask="url(#path-5-inside-1_342_514)"/>
<path d="M0.416 59.552C0.416 59.3067 0.437333 59.0187 0.48 58.688C0.522667 58.3573 0.602667 57.984 0.72 57.568C0.837333 57.1413 1.01333 56.6667 1.248 56.144L3.216 56.832C3.09867 57.1627 2.99733 57.4667 2.912 57.744C2.82667 58.0107 2.76267 58.2613 2.72 58.496C2.67733 58.72 2.656 58.944 2.656 59.168C2.656 59.52 2.73067 59.8347 2.88 60.112C3.04 60.4 3.26933 60.64 3.568 60.832C3.86667 61.0347 4.22933 61.1893 4.656 61.296C5.09333 61.4027 5.59467 61.456 6.16 61.456C6.74667 61.456 7.26933 61.4293 7.728 61.376C8.19733 61.3227 8.592 61.2427 8.912 61.136C9.24267 61.0293 9.49333 60.8907 9.664 60.72C9.83467 60.56 9.92 60.3733 9.92 60.16C9.92 60.064 9.88267 59.9733 9.808 59.888C9.744 59.8027 9.632 59.712 9.472 59.616C9.32267 59.52 9.12 59.4187 8.864 59.312C8.61867 59.2053 8.32 59.088 7.968 58.96L8.496 56.704C8.95467 56.896 9.38667 57.0667 9.792 57.216C10.208 57.3547 10.6027 57.472 10.976 57.568C11.3493 57.6533 11.7013 57.7227 12.032 57.776C12.3627 57.8187 12.672 57.84 12.96 57.84C13.3653 57.84 13.6533 57.9467 13.824 58.16C13.9947 58.3627 14.08 58.6187 14.08 58.928C14.08 59.2587 13.968 59.536 13.744 59.76C13.52 59.9733 13.2053 60.08 12.8 60.08C12.7147 60.08 12.6293 60.08 12.544 60.08C12.4693 60.08 12.3893 60.08 12.304 60.08C12.2293 60.08 12.1493 60.08 12.064 60.08C12.0853 60.1867 12.096 60.2773 12.096 60.352C12.096 60.4373 12.096 60.5173 12.096 60.592C12.096 60.944 11.9733 61.3013 11.728 61.664C11.4933 62.0267 11.1253 62.3627 10.624 62.672C10.1227 62.9813 9.48267 63.2267 8.704 63.408C7.936 63.6 7.01867 63.696 5.952 63.696C4.8 63.696 3.808 63.5467 2.976 63.248C2.15467 62.96 1.52 62.5067 1.072 61.888C0.634667 61.28 0.416 60.5013 0.416 59.552ZM7.52 67.408C7.21067 67.408 6.944 67.296 6.72 67.072C6.50667 66.8587 6.4 66.6027 6.4 66.304C6.4 65.9947 6.50667 65.728 6.72 65.504C6.944 65.28 7.21067 65.168 7.52 65.168C7.81867 65.168 8.07467 65.28 8.288 65.504C8.50133 65.728 8.608 65.9947 8.608 66.304C8.608 66.6027 8.50133 66.8587 8.288 67.072C8.07467 67.296 7.81867 67.408 7.52 67.408ZM4.752 67.408C4.44267 67.408 4.176 67.296 3.952 67.072C3.73867 66.8587 3.632 66.6027 3.632 66.304C3.632 65.9947 3.73867 65.728 3.952 65.504C4.176 65.28 4.44267 65.168 4.752 65.168C5.05067 65.168 5.30667 65.28 5.52 65.504C5.73333 65.728 5.84 65.9947 5.84 66.304C5.84 66.6027 5.73333 66.8587 5.52 67.072C5.30667 67.296 5.05067 67.408 4.752 67.408ZM12.7969 60.08L12.9569 57.84C13.4582 57.84 13.8422 57.8347 14.1089 57.824C14.3862 57.8133 14.5942 57.8027 14.7329 57.792C14.8715 57.7707 14.9889 57.7547 15.0849 57.744C14.9782 57.6373 14.8395 57.4827 14.6689 57.28C14.4982 57.0773 14.3435 56.816 14.2049 56.496C14.0769 56.176 14.0129 55.792 14.0129 55.344C14.0129 54.6933 14.1782 54.1227 14.5089 53.632C14.8502 53.1413 15.3089 52.7573 15.8849 52.48C16.4609 52.2027 17.1062 52.064 17.8209 52.064C18.1622 52.064 18.4769 52.0853 18.7649 52.128C19.0635 52.1707 19.3622 52.2347 19.6609 52.32L19.3089 54.448C19.0955 54.3947 18.8715 54.352 18.6369 54.32C18.4022 54.288 18.1942 54.272 18.0129 54.272C17.6609 54.272 17.3515 54.3307 17.0849 54.448C16.8289 54.5547 16.6262 54.7093 16.4769 54.912C16.3382 55.104 16.2689 55.3387 16.2689 55.616C16.2689 55.7973 16.3009 55.968 16.3649 56.128C16.4395 56.288 16.5302 56.432 16.6369 56.56C16.7435 56.688 16.8609 56.8 16.9889 56.896C17.1169 56.992 17.2395 57.072 17.3569 57.136C17.4849 57.1893 17.5915 57.2267 17.6769 57.248C17.9435 57.1733 18.1729 57.1093 18.3649 57.056C18.5675 56.992 18.7595 56.9333 18.9409 56.88C19.1329 56.816 19.3409 56.736 19.5649 56.64C19.7889 56.544 20.0662 56.4267 20.3969 56.288L21.1169 58.4C20.2209 58.8373 19.3462 59.1787 18.4929 59.424C17.6395 59.6693 16.7542 59.84 15.8369 59.936C14.9195 60.032 13.9062 60.08 12.7969 60.08ZM22.6151 63.68L22.1511 61.44C22.9085 61.344 23.5698 61.2267 24.1351 61.088C24.7005 60.96 25.1751 60.7787 25.5591 60.544C25.9431 60.3093 26.2311 59.9893 26.4231 59.584C26.6151 59.168 26.7111 58.6347 26.7111 57.984C26.7111 57.3547 26.6151 56.8533 26.4231 56.48C26.2311 56.1067 25.9751 55.92 25.6551 55.92C25.4311 55.92 25.2445 56 25.0951 56.16C24.9458 56.3093 24.8338 56.4907 24.7591 56.704C24.6951 56.9067 24.6631 57.088 24.6631 57.248C24.6631 57.344 24.6898 57.4453 24.7431 57.552C24.7965 57.6587 24.9138 57.7493 25.0951 57.824C25.2765 57.8987 25.5591 57.9413 25.9431 57.952C26.3378 57.9627 26.8711 57.9253 27.5431 57.84H30.2311C30.6365 57.84 30.9245 57.9467 31.0951 58.16C31.2765 58.3627 31.3671 58.6187 31.3671 58.928C31.3671 59.2587 31.2551 59.536 31.0311 59.76C30.8071 59.9733 30.4871 60.08 30.0711 60.08H25.6711C24.9991 60.08 24.4231 60 23.9431 59.84C23.4631 59.68 23.0951 59.424 22.8391 59.072C22.5831 58.7093 22.4551 58.2293 22.4551 57.632C22.4551 57.152 22.5351 56.672 22.6951 56.192C22.8658 55.712 23.1005 55.2747 23.3991 54.88C23.6978 54.4747 24.0445 54.1547 24.4391 53.92C24.8445 53.6747 25.2818 53.552 25.7511 53.552C26.3911 53.552 26.9511 53.7493 27.4311 54.144C27.9111 54.5387 28.2845 55.0613 28.5511 55.712C28.8285 56.3627 28.9671 57.072 28.9671 57.84C28.9671 59.0453 28.7111 60.0693 28.1991 60.912C27.6871 61.7547 26.9565 62.4053 26.0071 62.864C25.0578 63.3333 23.9271 63.6053 22.6151 63.68ZM30.0938 60.08L30.2538 57.84C30.7444 57.84 31.0964 57.792 31.3098 57.696C31.5231 57.5893 31.6511 57.3973 31.6938 57.12C31.7364 56.832 31.7471 56.416 31.7258 55.872L31.4378 48.288H33.6938L34.0138 56.032C34.0351 56.6507 34.0084 57.2107 33.9338 57.712C33.8698 58.2027 33.7044 58.624 33.4378 58.976C33.1818 59.328 32.7818 59.6 32.2378 59.792C31.7044 59.984 30.9898 60.08 30.0938 60.08ZM36.1238 60L35.7878 48.288H38.0278L38.3638 60H36.1238Z" fill="#469C09"/>
<path d="M68.8 60.08L68.96 57.84C69.4507 57.84 69.8027 57.792 70.016 57.696C70.2293 57.5893 70.3573 57.3973 70.4 57.12C70.4427 56.832 70.4533 56.416 70.432 55.872L70.144 48.288H72.4L72.72 56.032C72.7413 56.6507 72.7147 57.2107 72.64 57.712C72.576 58.2027 72.4107 58.624 72.144 58.976C71.888 59.328 71.488 59.6 70.944 59.792C70.4107 59.984 69.696 60.08 68.8 60.08ZM56.416 59.552C56.416 59.3067 56.4373 59.0187 56.48 58.688C56.5227 58.3573 56.6027 57.984 56.72 57.568C56.8373 57.1413 57.0133 56.6667 57.248 56.144L59.216 56.832C59.0987 57.1627 58.9973 57.4667 58.912 57.744C58.8267 58.0107 58.7627 58.2613 58.72 58.496C58.6773 58.72 58.656 58.944 58.656 59.168C58.656 59.52 58.7307 59.8347 58.88 60.112C59.04 60.4 59.2693 60.64 59.568 60.832C59.8667 61.0347 60.2293 61.1893 60.656 61.296C61.0933 61.4027 61.5947 61.456 62.16 61.456C62.7467 61.456 63.2693 61.4293 63.728 61.376C64.1973 61.3227 64.592 61.2427 64.912 61.136C65.2427 61.0293 65.4933 60.8907 65.664 60.72C65.8347 60.56 65.92 60.3733 65.92 60.16C65.92 60.064 65.8827 59.9733 65.808 59.888C65.744 59.8027 65.632 59.712 65.472 59.616C65.3227 59.52 65.12 59.4187 64.864 59.312C64.6187 59.2053 64.32 59.088 63.968 58.96L64.496 56.704C64.9547 56.896 65.3867 57.0667 65.792 57.216C66.208 57.3547 66.6027 57.472 66.976 57.568C67.3493 57.6533 67.7013 57.7227 68.032 57.776C68.3627 57.8187 68.672 57.84 68.96 57.84C69.3653 57.84 69.6533 57.9467 69.824 58.16C69.9947 58.3627 70.08 58.6187 70.08 58.928C70.08 59.2587 69.968 59.536 69.744 59.76C69.52 59.9733 69.2053 60.08 68.8 60.08C68.7147 60.08 68.6293 60.08 68.544 60.08C68.4693 60.08 68.3893 60.08 68.304 60.08C68.2293 60.08 68.1493 60.08 68.064 60.08C68.0853 60.1867 68.096 60.2773 68.096 60.352C68.096 60.4373 68.096 60.5173 68.096 60.592C68.096 60.944 67.9733 61.3013 67.728 61.664C67.4933 62.0267 67.1253 62.3627 66.624 62.672C66.1227 62.9813 65.4827 63.2267 64.704 63.408C63.936 63.6 63.0187 63.696 61.952 63.696C60.8 63.696 59.808 63.5467 58.976 63.248C58.1547 62.96 57.52 62.5067 57.072 61.888C56.6347 61.28 56.416 60.5013 56.416 59.552ZM74.8269 60L74.4909 48.288H76.7309L77.0669 60H74.8269ZM85.4586 60.048C84.8613 60.048 84.3226 59.9467 83.8426 59.744C83.3733 59.5307 83 59.216 82.7226 58.8C82.456 58.3733 82.3226 57.8453 82.3226 57.216C82.3226 56.5867 82.536 55.888 82.9626 55.12C83.3893 54.3413 84.104 53.5627 85.1066 52.784L84.9466 54.256L83.5066 53.136L85.0106 51.296C85.8213 51.9147 86.5146 52.5173 87.0906 53.104C87.6773 53.68 88.1253 54.272 88.4346 54.88C88.744 55.488 88.8986 56.1333 88.8986 56.816C88.8986 57.1467 88.8453 57.504 88.7386 57.888C88.632 58.2613 88.4506 58.6133 88.1946 58.944C87.9386 59.264 87.5866 59.5307 87.1386 59.744C86.7013 59.9467 86.1413 60.048 85.4586 60.048ZM85.6346 57.84C85.9013 57.84 86.1146 57.7867 86.2746 57.68C86.4453 57.5733 86.5733 57.4347 86.6586 57.264C86.744 57.0933 86.7866 56.912 86.7866 56.72C86.7866 56.528 86.744 56.32 86.6586 56.096C86.5733 55.872 86.408 55.6213 86.1626 55.344C85.9173 55.0667 85.5546 54.7467 85.0746 54.384L86.2906 54.224C85.8533 54.5227 85.5013 54.8267 85.2346 55.136C84.968 55.4453 84.776 55.744 84.6586 56.032C84.552 56.3093 84.4986 56.5653 84.4986 56.8C84.4986 57.1413 84.6106 57.4027 84.8346 57.584C85.0586 57.7547 85.3253 57.84 85.6346 57.84ZM86.9466 50.096C86.6373 50.096 86.3706 49.9893 86.1466 49.776C85.9333 49.552 85.8266 49.2907 85.8266 48.992C85.8266 48.6827 85.9333 48.416 86.1466 48.192C86.3706 47.968 86.6373 47.856 86.9466 47.856C87.2453 47.856 87.5013 47.968 87.7146 48.192C87.928 48.416 88.0346 48.6827 88.0346 48.992C88.0346 49.2907 87.928 49.552 87.7146 49.776C87.5013 49.9893 87.2453 50.096 86.9466 50.096ZM84.1786 50.08C83.8693 50.08 83.6026 49.9733 83.3786 49.76C83.1653 49.536 83.0586 49.2747 83.0586 48.976C83.0586 48.6667 83.1653 48.4 83.3786 48.176C83.6026 47.952 83.8693 47.84 84.1786 47.84C84.4773 47.84 84.7333 47.952 84.9466 48.176C85.16 48.4 85.2666 48.6667 85.2666 48.976C85.2666 49.2747 85.16 49.536 84.9466 49.76C84.7333 49.9733 84.4773 50.08 84.1786 50.08ZM89.0373 63.696L88.2212 61.712C88.7866 61.52 89.3039 61.296 89.7733 61.04C90.2533 60.784 90.6693 60.5013 91.0213 60.192C91.3733 59.8827 91.6453 59.5467 91.8373 59.184C92.0293 58.8107 92.1253 58.4107 92.1253 57.984C92.1253 57.536 92.0239 57.0453 91.8213 56.512C91.6186 55.9787 91.3733 55.4347 91.0853 54.88L93.1813 53.872C93.3733 54.2027 93.5386 54.56 93.6773 54.944C93.8266 55.3173 93.9493 55.6533 94.0453 55.952C94.1413 56.2507 94.2053 56.4533 94.2373 56.56C94.3866 57.072 94.5893 57.4133 94.8453 57.584C95.1119 57.7547 95.5386 57.84 96.1253 57.84C96.5306 57.84 96.8186 57.9467 96.9893 58.16C97.1706 58.3627 97.2613 58.6187 97.2613 58.928C97.2613 59.2587 97.1493 59.536 96.9253 59.76C96.7013 59.9733 96.3813 60.08 95.9653 60.08C95.5279 60.08 95.1439 60.016 94.8133 59.888C94.4826 59.76 94.2159 59.5733 94.0133 59.328C93.8213 59.0827 93.6986 58.7947 93.6453 58.464L94.2373 58.8C94.1733 59.3653 93.9866 59.8987 93.6773 60.4C93.3786 60.912 92.9893 61.3813 92.5093 61.808C92.0293 62.2347 91.4906 62.608 90.8932 62.928C90.2959 63.248 89.6773 63.504 89.0373 63.696ZM108.16 60.08C107.616 60.08 107.094 60.032 106.592 59.936C106.091 59.8293 105.638 59.6907 105.232 59.52C104.838 59.3493 104.512 59.1573 104.256 58.944L105.696 57.392C106.08 57.552 106.475 57.6693 106.88 57.744C107.286 57.808 107.766 57.84 108.32 57.84C108.726 57.84 109.014 57.9467 109.184 58.16C109.366 58.3627 109.456 58.6187 109.456 58.928C109.456 59.2587 109.344 59.536 109.12 59.76C108.896 59.9733 108.576 60.08 108.16 60.08ZM95.9844 60.08L96.1444 57.84H99.7284C100.731 57.84 101.563 57.8027 102.224 57.728C102.896 57.6533 103.43 57.5467 103.824 57.408C104.219 57.2587 104.496 57.088 104.656 56.896C104.827 56.704 104.912 56.496 104.912 56.272C104.912 56.0693 104.864 55.8773 104.768 55.696C104.672 55.504 104.528 55.3493 104.336 55.232C104.144 55.1147 103.894 55.056 103.584 55.056C103.19 55.056 102.795 55.152 102.4 55.344C102.006 55.5253 101.622 55.776 101.248 56.096C100.875 56.4053 100.518 56.752 100.176 57.136C99.8457 57.52 99.5417 57.9093 99.2644 58.304L96.8484 57.968C97.2964 57.2747 97.7817 56.6187 98.3044 56C98.8377 55.3707 99.3977 54.8213 99.9844 54.352C100.582 53.872 101.195 53.4987 101.824 53.232C102.464 52.9547 103.115 52.816 103.776 52.816C104.48 52.816 105.083 52.96 105.584 53.248C106.086 53.536 106.47 53.9307 106.736 54.432C107.014 54.9333 107.152 55.5147 107.152 56.176C107.152 56.8693 106.955 57.4933 106.56 58.048C106.176 58.6027 105.52 59.0613 104.592 59.424C104.198 59.5733 103.771 59.696 103.312 59.792C102.854 59.888 102.315 59.9573 101.696 60C101.078 60.0533 100.336 60.08 99.4724 60.08H95.9844ZM97.6484 58.448L97.3124 48.288H99.5524L99.8404 55.968L97.6484 58.448ZM103.312 51.328C102.982 51.328 102.699 51.216 102.464 50.992C102.24 50.768 102.128 50.4907 102.128 50.16C102.128 49.8293 102.24 49.5467 102.464 49.312C102.699 49.0773 102.982 48.96 103.312 48.96C103.632 48.96 103.904 49.0773 104.128 49.312C104.363 49.5467 104.48 49.8293 104.48 50.16C104.48 50.4907 104.363 50.768 104.128 50.992C103.904 51.216 103.632 51.328 103.312 51.328ZM108.172 60.08L108.332 57.84C108.737 57.84 109.057 57.8027 109.292 57.728C109.537 57.6533 109.729 57.504 109.868 57.28C110.017 57.0453 110.14 56.704 110.236 56.256C110.343 55.808 110.449 55.2107 110.556 54.464L112.652 54.816C112.631 54.976 112.599 55.1627 112.556 55.376C112.524 55.5893 112.492 55.808 112.46 56.032C112.439 56.2453 112.428 56.448 112.428 56.64C112.428 56.896 112.481 57.1147 112.588 57.296C112.705 57.4667 112.908 57.6 113.196 57.696C113.495 57.792 113.921 57.84 114.476 57.84C114.881 57.84 115.169 57.9467 115.34 58.16C115.511 58.3627 115.596 58.6187 115.596 58.928C115.596 59.2587 115.484 59.536 115.26 59.76C115.047 59.9733 114.732 60.08 114.316 60.08C113.58 60.08 112.983 60.0107 112.524 59.872C112.065 59.7333 111.724 59.4987 111.5 59.168C111.276 58.8373 111.132 58.384 111.068 57.808H111.836C111.644 58.32 111.42 58.7307 111.164 59.04C110.908 59.3387 110.62 59.5627 110.3 59.712C109.98 59.8613 109.639 59.9573 109.276 60C108.924 60.0533 108.556 60.08 108.172 60.08ZM111.436 52.832C111.105 52.832 110.823 52.72 110.588 52.496C110.364 52.272 110.252 51.9947 110.252 51.664C110.252 51.3333 110.364 51.0507 110.588 50.816C110.823 50.5813 111.105 50.464 111.436 50.464C111.756 50.464 112.028 50.5813 112.252 50.816C112.487 51.0507 112.604 51.3333 112.604 51.664C112.604 51.9947 112.487 52.272 112.252 52.496C112.028 52.72 111.756 52.832 111.436 52.832ZM114.312 60.08L114.473 57.84C114.963 57.84 115.315 57.792 115.529 57.696C115.742 57.5893 115.87 57.3973 115.913 57.12C115.955 56.832 115.966 56.416 115.945 55.872L115.657 48.288H117.913L118.233 56.032C118.254 56.6507 118.227 57.2107 118.153 57.712C118.089 58.2027 117.923 58.624 117.657 58.976C117.401 59.328 117.001 59.6 116.457 59.792C115.923 59.984 115.209 60.08 114.312 60.08ZM120.343 60L120.007 48.288H122.247L122.583 60H120.343Z" fill="#19E3BC"/>
<path d="M146.8 60.336L147.216 58.096C147.984 58.096 148.72 58.0587 149.424 57.984C150.139 57.9093 150.816 57.76 151.456 57.536C152.107 57.312 152.715 56.9813 153.28 56.544C153.845 56.1067 154.357 55.52 154.816 54.784L156.608 55.6C156.544 55.8027 156.491 56 156.448 56.192C156.405 56.3733 156.384 56.5227 156.384 56.64C156.384 56.8853 156.443 57.0987 156.56 57.28C156.688 57.4613 156.901 57.6 157.2 57.696C157.499 57.792 157.909 57.84 158.432 57.84C158.837 57.84 159.125 57.9467 159.296 58.16C159.467 58.3627 159.552 58.6187 159.552 58.928C159.552 59.2587 159.44 59.536 159.216 59.76C159.003 59.9733 158.688 60.08 158.272 60.08C157.536 60.08 156.896 59.9787 156.352 59.776C155.819 59.5733 155.397 59.2907 155.088 58.928C154.789 58.5547 154.613 58.128 154.56 57.648L155.2 57.712C154.816 58.1707 154.336 58.5653 153.76 58.896C153.195 59.2267 152.549 59.4987 151.824 59.712C151.109 59.9253 150.325 60.08 149.472 60.176C148.629 60.2827 147.739 60.336 146.8 60.336ZM146.784 60.336C145.632 60.336 144.656 60.2453 143.856 60.064C143.067 59.8933 142.421 59.648 141.92 59.328C141.429 58.9973 141.072 58.6133 140.848 58.176C140.624 57.7387 140.512 57.2587 140.512 56.736C140.512 56.3947 140.539 56.0533 140.592 55.712C140.656 55.36 140.731 55.0187 140.816 54.688C140.912 54.3573 140.997 54.0587 141.072 53.792L143.072 54.256C143.029 54.448 142.981 54.656 142.928 54.88C142.875 55.104 142.832 55.3227 142.8 55.536C142.768 55.7387 142.752 55.9253 142.752 56.096C142.752 56.4907 142.891 56.8427 143.168 57.152C143.456 57.4507 143.925 57.6853 144.576 57.856C145.227 58.016 146.101 58.096 147.2 58.096L147.52 59.824L146.784 60.336ZM147.936 64.08C147.627 64.08 147.36 63.9733 147.136 63.76C146.923 63.5467 146.816 63.2853 146.816 62.976C146.816 62.6667 146.923 62.3947 147.136 62.16C147.36 61.936 147.627 61.824 147.936 61.824C148.245 61.824 148.507 61.936 148.72 62.16C148.944 62.3947 149.056 62.6667 149.056 62.976C149.056 63.2853 148.944 63.5467 148.72 63.76C148.507 63.9733 148.245 64.08 147.936 64.08ZM158.266 60.08L158.426 57.84C158.927 57.84 159.279 57.792 159.482 57.696C159.695 57.5893 159.823 57.3973 159.866 57.12C159.908 56.832 159.919 56.416 159.898 55.872L159.642 48.288H161.914L162.186 55.856C162.207 56.3893 162.271 56.8 162.378 57.088C162.484 57.376 162.66 57.5733 162.906 57.68C163.162 57.7867 163.503 57.84 163.93 57.84C164.335 57.84 164.623 57.9467 164.794 58.16C164.964 58.3627 165.05 58.6187 165.05 58.928C165.05 59.2587 164.938 59.536 164.714 59.76C164.49 59.9733 164.175 60.08 163.77 60.08C163.3 60.08 162.863 60.0267 162.458 59.92C162.052 59.8133 161.716 59.6107 161.45 59.312C161.183 59.0133 161.007 58.5813 160.922 58.016L161.626 58.032C161.444 58.5867 161.21 59.0133 160.922 59.312C160.634 59.6 160.271 59.8027 159.834 59.92C159.407 60.0267 158.884 60.08 158.266 60.08ZM175.942 60.08C175.398 60.08 174.875 60.032 174.374 59.936C173.872 59.8293 173.419 59.6907 173.014 59.52C172.619 59.3493 172.294 59.1573 172.038 58.944L173.478 57.392C173.862 57.552 174.256 57.6693 174.662 57.744C175.067 57.808 175.547 57.84 176.102 57.84C176.507 57.84 176.795 57.9467 176.966 58.16C177.147 58.3627 177.238 58.6187 177.238 58.928C177.238 59.2587 177.126 59.536 176.902 59.76C176.678 59.9733 176.358 60.08 175.942 60.08ZM163.766 60.08L163.926 57.84H167.51C168.512 57.84 169.344 57.8027 170.006 57.728C170.678 57.6533 171.211 57.5467 171.606 57.408C172 57.2587 172.278 57.088 172.438 56.896C172.608 56.704 172.694 56.496 172.694 56.272C172.694 56.0693 172.646 55.8773 172.55 55.696C172.454 55.504 172.31 55.3493 172.118 55.232C171.926 55.1147 171.675 55.056 171.366 55.056C170.971 55.056 170.576 55.152 170.182 55.344C169.787 55.5253 169.403 55.776 169.03 56.096C168.656 56.4053 168.299 56.752 167.958 57.136C167.627 57.52 167.323 57.9093 167.046 58.304L164.63 57.968C165.078 57.2747 165.563 56.6187 166.086 56C166.619 55.3707 167.179 54.8213 167.766 54.352C168.363 53.872 168.976 53.4987 169.606 53.232C170.246 52.9547 170.896 52.816 171.558 52.816C172.262 52.816 172.864 52.96 173.366 53.248C173.867 53.536 174.251 53.9307 174.518 54.432C174.795 54.9333 174.934 55.5147 174.934 56.176C174.934 56.8693 174.736 57.4933 174.342 58.048C173.958 58.6027 173.302 59.0613 172.374 59.424C171.979 59.5733 171.552 59.696 171.094 59.792C170.635 59.888 170.096 59.9573 169.478 60C168.859 60.0533 168.118 60.08 167.254 60.08H163.766ZM165.43 58.448L165.094 48.288H167.334L167.622 55.968L165.43 58.448ZM175.953 60.08L176.113 57.84C176.604 57.84 176.956 57.792 177.169 57.696C177.382 57.5893 177.51 57.3973 177.553 57.12C177.596 56.832 177.606 56.416 177.585 55.872L177.297 48.288H179.553L179.873 56.032C179.894 56.6507 179.868 57.2107 179.793 57.712C179.729 58.2027 179.564 58.624 179.297 58.976C179.041 59.328 178.641 59.6 178.097 59.792C177.564 59.984 176.849 60.08 175.953 60.08ZM181.983 60L181.647 48.288H183.887L184.223 60H181.983Z" fill="#314FED"/>
<path d="M210.896 60.08C210.139 60.08 209.483 59.984 208.928 59.792C208.384 59.5893 207.963 59.2693 207.664 58.832C207.365 58.384 207.195 57.7867 207.152 57.04L206.864 50.592H209.12L209.392 56.256C209.413 56.6933 209.483 57.0293 209.6 57.264C209.728 57.488 209.909 57.6427 210.144 57.728C210.379 57.8027 210.683 57.84 211.056 57.84C211.461 57.84 211.749 57.9467 211.92 58.16C212.091 58.3627 212.176 58.6187 212.176 58.928C212.176 59.2587 212.064 59.536 211.84 59.76C211.627 59.9733 211.312 60.08 210.896 60.08ZM207.968 58.592C207.253 58.752 206.565 58.8267 205.904 58.816C205.243 58.7947 204.651 58.6773 204.128 58.464C203.605 58.24 203.189 57.92 202.88 57.504C202.581 57.088 202.432 56.56 202.432 55.92C202.432 55.3547 202.555 54.8427 202.8 54.384C203.056 53.9147 203.408 53.504 203.856 53.152C204.315 52.8 204.848 52.5013 205.456 52.256C206.064 52.0107 206.725 51.824 207.44 51.696L207.664 53.968C207.205 53.9893 206.789 54.0533 206.416 54.16C206.053 54.256 205.739 54.384 205.472 54.544C205.216 54.704 205.019 54.8853 204.88 55.088C204.741 55.28 204.672 55.488 204.672 55.712C204.672 55.8933 204.736 56.0427 204.864 56.16C204.992 56.2773 205.163 56.3733 205.376 56.448C205.589 56.512 205.835 56.5493 206.112 56.56C206.389 56.5707 206.672 56.5547 206.96 56.512C207.259 56.4693 207.552 56.4 207.84 56.304L207.968 58.592ZM208.016 48.944C207.707 48.944 207.44 48.8373 207.216 48.624C207.003 48.4 206.896 48.1387 206.896 47.84C206.896 47.5307 207.003 47.264 207.216 47.04C207.44 46.816 207.707 46.704 208.016 46.704C208.315 46.704 208.571 46.816 208.784 47.04C208.997 47.264 209.104 47.5307 209.104 47.84C209.104 48.1387 208.997 48.4 208.784 48.624C208.571 48.8373 208.315 48.944 208.016 48.944ZM205.248 48.928C204.939 48.928 204.672 48.8213 204.448 48.608C204.235 48.384 204.128 48.1227 204.128 47.824C204.128 47.5147 204.235 47.248 204.448 47.024C204.672 46.8 204.939 46.688 205.248 46.688C205.547 46.688 205.803 46.8 206.016 47.024C206.229 47.248 206.336 47.5147 206.336 47.824C206.336 48.1227 206.229 48.384 206.016 48.608C205.803 48.8213 205.547 48.928 205.248 48.928ZM221.355 60.08C220.864 60.08 220.405 60.0427 219.979 59.968C219.563 59.8933 219.179 59.7653 218.827 59.584C218.475 59.392 218.16 59.1307 217.883 58.8C217.616 58.4693 217.392 58.0533 217.211 57.552L218.475 56.544C218.667 56.8853 218.901 57.152 219.179 57.344C219.456 57.5253 219.787 57.6533 220.171 57.728C220.555 57.8027 221.003 57.84 221.515 57.84C221.92 57.84 222.208 57.9467 222.379 58.16C222.549 58.3627 222.635 58.6187 222.635 58.928C222.635 59.2587 222.523 59.536 222.299 59.76C222.085 59.9733 221.771 60.08 221.355 60.08ZM210.891 60.08L211.051 57.84C211.627 57.84 212.197 57.808 212.763 57.744C213.328 57.68 213.877 57.584 214.411 57.456C214.944 57.328 215.451 57.1627 215.931 56.96C216.421 56.7573 216.88 56.512 217.307 56.224C216.987 56.032 216.64 55.8667 216.267 55.728C215.893 55.5893 215.493 55.488 215.067 55.424C214.651 55.3493 214.208 55.312 213.739 55.312C213.568 55.312 213.387 55.3173 213.195 55.328C213.013 55.3387 212.827 55.36 212.635 55.392C212.443 55.4133 212.251 55.4453 212.059 55.488L211.739 53.296C212.048 53.2107 212.373 53.152 212.715 53.12C213.067 53.0773 213.376 53.056 213.643 53.056C214.219 53.056 214.747 53.12 215.227 53.248C215.717 53.376 216.165 53.536 216.571 53.728C216.987 53.92 217.371 54.112 217.723 54.304C218.085 54.496 218.427 54.656 218.747 54.784C219.077 54.912 219.397 54.976 219.707 54.976H220.299L220.555 57.104C220.096 57.1253 219.664 57.216 219.259 57.376C218.864 57.5253 218.469 57.7173 218.075 57.952C217.691 58.176 217.275 58.4107 216.827 58.656C216.389 58.9013 215.893 59.1307 215.339 59.344C214.784 59.5573 214.144 59.7333 213.419 59.872C212.693 60.0107 211.851 60.08 210.891 60.08ZM215.419 63.68C215.109 63.68 214.843 63.5733 214.619 63.36C214.405 63.1467 214.299 62.8853 214.299 62.576C214.299 62.2667 214.405 61.9947 214.619 61.76C214.843 61.536 215.109 61.424 215.419 61.424C215.728 61.424 215.989 61.536 216.203 61.76C216.427 61.9947 216.539 62.2667 216.539 62.576C216.539 62.8853 216.427 63.1467 216.203 63.36C215.989 63.5733 215.728 63.68 215.419 63.68ZM221.359 60.08L221.519 57.84C222.01 57.84 222.362 57.792 222.575 57.696C222.789 57.5893 222.917 57.3973 222.959 57.12C223.002 56.832 223.013 56.416 222.991 55.872L222.703 48.288H224.959L225.279 56.032C225.301 56.6507 225.274 57.2107 225.199 57.712C225.135 58.2027 224.97 58.624 224.703 58.976C224.447 59.328 224.047 59.6 223.503 59.792C222.97 59.984 222.255 60.08 221.359 60.08ZM231.181 60.08C230.189 60.08 229.421 59.9787 228.877 59.776C228.344 59.5733 227.971 59.2587 227.757 58.832C227.544 58.3947 227.421 57.8453 227.389 57.184L227.053 48.288H229.293L229.629 56.112C229.651 56.6027 229.704 56.9707 229.789 57.216C229.875 57.4613 230.035 57.6267 230.269 57.712C230.515 57.7973 230.872 57.84 231.341 57.84C231.747 57.84 232.035 57.9467 232.205 58.16C232.387 58.3627 232.477 58.6187 232.477 58.928C232.477 59.2587 232.365 59.536 232.141 59.76C231.917 59.9733 231.597 60.08 231.181 60.08ZM231.139 60.08L231.299 57.84C232.046 57.84 232.718 57.792 233.315 57.696C233.912 57.5893 234.435 57.4507 234.883 57.28C235.342 57.1093 235.72 56.912 236.019 56.688C236.328 56.464 236.558 56.2293 236.707 55.984C236.867 55.728 236.947 55.4773 236.947 55.232C236.947 55.0933 236.91 54.9653 236.835 54.848C236.771 54.72 236.659 54.6187 236.499 54.544C236.339 54.4587 236.12 54.416 235.843 54.416C235.704 54.416 235.539 54.432 235.347 54.464C235.155 54.496 234.963 54.544 234.771 54.608C234.579 54.6613 234.398 54.736 234.227 54.832C234.451 55.0027 234.696 55.2213 234.963 55.488C235.23 55.744 235.496 56.016 235.763 56.304C236.03 56.5813 236.259 56.8533 236.451 57.12C236.675 57.216 236.92 57.312 237.187 57.408C237.464 57.4933 237.763 57.568 238.083 57.632C238.403 57.696 238.739 57.7493 239.091 57.792C239.443 57.824 239.806 57.84 240.179 57.84C240.584 57.84 240.872 57.9467 241.043 58.16C241.224 58.3627 241.315 58.6187 241.315 58.928C241.315 59.2587 241.203 59.536 240.979 59.76C240.755 59.9733 240.435 60.08 240.019 60.08C239.166 60.08 238.408 60.016 237.747 59.888C237.086 59.7493 236.494 59.552 235.971 59.296C235.459 59.0293 234.979 58.7093 234.531 58.336C234.403 58.112 234.222 57.872 233.987 57.616C233.763 57.3493 233.523 57.0933 233.267 56.848C233.022 56.6027 232.798 56.4 232.595 56.24C232.542 56.1973 232.478 56.0853 232.403 55.904C232.339 55.712 232.28 55.5147 232.227 55.312C232.174 55.0987 232.147 54.9493 232.147 54.864C232.147 54.6187 232.259 54.3573 232.483 54.08C232.718 53.8027 233.027 53.5467 233.411 53.312C233.806 53.0667 234.238 52.8693 234.707 52.72C235.187 52.56 235.672 52.48 236.163 52.48C236.824 52.48 237.374 52.5813 237.811 52.784C238.259 52.976 238.595 53.248 238.819 53.6C239.043 53.9413 239.155 54.3413 239.155 54.8C239.155 55.312 239.043 55.824 238.819 56.336C238.595 56.8373 238.264 57.312 237.827 57.76C237.4 58.208 236.862 58.608 236.211 58.96C235.571 59.3013 234.824 59.5733 233.971 59.776C233.128 59.9787 232.184 60.08 231.139 60.08ZM240.031 60.08L240.191 57.84C240.458 57.84 240.661 57.7867 240.799 57.68C240.938 57.5733 241.077 57.3867 241.215 57.12C241.354 56.8533 241.546 56.4907 241.791 56.032C242.058 55.52 242.335 55.0933 242.623 54.752C242.911 54.4 243.199 54.1227 243.487 53.92C243.786 53.7067 244.079 53.5573 244.367 53.472C244.666 53.376 244.959 53.328 245.247 53.328C245.642 53.328 246.01 53.4133 246.351 53.584C246.703 53.744 247.039 54.0267 247.359 54.432C247.679 54.8267 247.983 55.3707 248.271 56.064C248.474 56.544 248.677 56.912 248.879 57.168C249.082 57.424 249.29 57.6 249.503 57.696C249.727 57.792 249.951 57.84 250.175 57.84C250.581 57.84 250.869 57.9467 251.039 58.16C251.21 58.3627 251.295 58.6187 251.295 58.928C251.295 59.2587 251.183 59.536 250.959 59.76C250.735 59.9733 250.421 60.08 250.015 60.08C249.493 60.08 249.018 59.9947 248.591 59.824C248.165 59.6533 247.829 59.3973 247.583 59.056L248.047 58.704C247.951 58.928 247.807 59.1627 247.615 59.408C247.434 59.6533 247.194 59.8613 246.895 60.032C246.607 60.2027 246.261 60.288 245.855 60.288C245.589 60.288 245.274 60.2347 244.911 60.128C244.559 60.032 244.191 59.8667 243.807 59.632C243.434 59.3867 243.087 59.056 242.767 58.64C242.565 59.0133 242.341 59.3067 242.095 59.52C241.85 59.7227 241.562 59.8667 241.231 59.952C240.901 60.0373 240.501 60.08 240.031 60.08ZM243.695 56.752C243.802 56.912 243.93 57.072 244.079 57.232C244.229 57.392 244.394 57.536 244.575 57.664C244.757 57.7813 244.949 57.8773 245.151 57.952C245.365 58.0267 245.573 58.064 245.775 58.064C245.989 58.064 246.165 57.984 246.303 57.824C246.442 57.6533 246.447 57.4027 246.319 57.072C246.266 56.9333 246.191 56.7787 246.095 56.608C246.01 56.4267 245.909 56.256 245.791 56.096C245.685 55.936 245.562 55.8027 245.423 55.696C245.295 55.5893 245.162 55.536 245.023 55.536C244.885 55.536 244.741 55.5787 244.591 55.664C244.442 55.7493 244.293 55.8827 244.143 56.064C243.994 56.2347 243.845 56.464 243.695 56.752ZM250.016 60.08L250.176 57.84C250.666 57.84 251.018 57.792 251.232 57.696C251.445 57.5893 251.573 57.3973 251.616 57.12C251.658 56.832 251.669 56.416 251.648 55.872L251.36 48.288H253.616L253.936 56.032C253.957 56.6507 253.93 57.2107 253.856 57.712C253.792 58.2027 253.626 58.624 253.36 58.976C253.104 59.328 252.704 59.6 252.16 59.792C251.626 59.984 250.912 60.08 250.016 60.08ZM256.046 60L255.71 48.288H257.95L258.286 60H256.046Z" fill="#13BAEB"/>
<path d="M281.216 66.304C280.512 66.304 279.851 66.2293 279.232 66.08C278.613 65.9307 278.069 65.7013 277.6 65.392C277.141 65.0827 276.779 64.6827 276.512 64.192C276.256 63.7013 276.128 63.12 276.128 62.448C276.128 61.7547 276.272 61.1413 276.56 60.608C276.848 60.0853 277.216 59.6267 277.664 59.232C278.112 58.8267 278.587 58.464 279.088 58.144C279.6 57.8133 280.08 57.4987 280.528 57.2C280.976 56.9013 281.344 56.5973 281.632 56.288C281.92 55.968 282.064 55.616 282.064 55.232C282.064 55.0933 282.027 54.9653 281.952 54.848C281.888 54.72 281.776 54.6187 281.616 54.544C281.467 54.4587 281.253 54.416 280.976 54.416C280.795 54.416 280.608 54.4373 280.416 54.48C280.224 54.512 280.037 54.56 279.856 54.624C279.675 54.6773 279.504 54.7467 279.344 54.832C279.621 55.056 279.893 55.3067 280.16 55.584C280.437 55.8507 280.688 56.112 280.912 56.368C281.147 56.6133 281.328 56.8267 281.456 57.008C281.701 57.136 281.968 57.2533 282.256 57.36C282.544 57.456 282.848 57.5413 283.168 57.616C283.499 57.6907 283.84 57.7493 284.192 57.792C284.544 57.824 284.907 57.84 285.28 57.84C285.685 57.84 285.973 57.9467 286.144 58.16C286.315 58.3627 286.4 58.6187 286.4 58.928C286.4 59.2587 286.288 59.536 286.064 59.76C285.84 59.9733 285.525 60.08 285.12 60.08C284.235 60.08 283.477 60.016 282.848 59.888C282.229 59.76 281.669 59.568 281.168 59.312C280.677 59.0453 280.171 58.72 279.648 58.336C279.52 58.112 279.333 57.8667 279.088 57.6C278.843 57.3227 278.592 57.0613 278.336 56.816C278.091 56.5707 277.883 56.3787 277.712 56.24C277.68 56.208 277.627 56.1013 277.552 55.92C277.477 55.728 277.408 55.5253 277.344 55.312C277.291 55.0987 277.264 54.9493 277.264 54.864C277.264 54.6507 277.365 54.4107 277.568 54.144C277.771 53.8667 278.053 53.6053 278.416 53.36C278.789 53.104 279.221 52.896 279.712 52.736C280.203 52.5653 280.736 52.48 281.312 52.48C282.357 52.48 283.109 52.704 283.568 53.152C284.037 53.5893 284.272 54.1547 284.272 54.848C284.272 55.488 284.128 56.0587 283.84 56.56C283.563 57.0613 283.2 57.52 282.752 57.936C282.304 58.352 281.829 58.736 281.328 59.088C280.837 59.44 280.368 59.7813 279.92 60.112C279.472 60.4533 279.104 60.7947 278.816 61.136C278.539 61.488 278.4 61.8667 278.4 62.272C278.4 62.6133 278.485 62.896 278.656 63.12C278.837 63.3547 279.067 63.5413 279.344 63.68C279.621 63.8187 279.925 63.9147 280.256 63.968C280.597 64.032 280.928 64.064 281.248 64.064C281.579 64.064 281.92 64.0373 282.272 63.984C282.635 63.9307 283.008 63.8453 283.392 63.728C283.787 63.6213 284.192 63.4827 284.608 63.312L285.28 65.232C284.875 65.4453 284.443 65.632 283.984 65.792C283.525 65.9627 283.061 66.0907 282.592 66.176C282.123 66.2613 281.664 66.304 281.216 66.304ZM285.125 60.08L285.285 57.856C286.17 57.856 286.88 57.8507 287.413 57.84C287.957 57.8293 288.378 57.808 288.677 57.776C288.986 57.7333 289.216 57.6853 289.365 57.632C289.514 57.568 289.642 57.4987 289.749 57.424C289.877 57.328 289.984 57.2 290.069 57.04C290.165 56.8693 290.24 56.6453 290.293 56.368C290.346 56.0907 290.373 55.744 290.373 55.328C290.373 54.8053 290.325 54.368 290.229 54.016C290.144 53.6533 290.016 53.3813 289.845 53.2C289.685 53.0187 289.488 52.928 289.253 52.928C289.082 52.928 288.922 52.9867 288.773 53.104C288.624 53.2107 288.501 53.36 288.405 53.552C288.309 53.744 288.261 53.9627 288.261 54.208C288.261 54.3467 288.298 54.4693 288.373 54.576C288.448 54.6827 288.565 54.7627 288.725 54.816C288.885 54.8693 289.088 54.896 289.333 54.896C289.568 54.896 289.813 54.8693 290.069 54.816C290.336 54.752 290.581 54.6667 290.805 54.56L290.869 56.464C290.698 56.5813 290.501 56.688 290.277 56.784C290.053 56.88 289.813 56.9547 289.557 57.008C289.312 57.0507 289.061 57.072 288.805 57.072C288.24 57.072 287.749 56.9973 287.333 56.848C286.928 56.688 286.613 56.432 286.389 56.08C286.165 55.728 286.053 55.248 286.053 54.64C286.053 54.1707 286.133 53.7067 286.293 53.248C286.453 52.7787 286.682 52.3573 286.981 51.984C287.28 51.6 287.632 51.296 288.037 51.072C288.442 50.8373 288.89 50.72 289.381 50.72C290.106 50.72 290.704 50.9333 291.173 51.36C291.653 51.776 292.005 52.3413 292.229 53.056C292.464 53.76 292.581 54.544 292.581 55.408C292.581 56.1653 292.469 56.8267 292.245 57.392C292.021 57.9467 291.754 58.384 291.445 58.704C291.189 58.9707 290.896 59.1947 290.565 59.376C290.234 59.5573 289.829 59.7013 289.349 59.808C288.88 59.904 288.298 59.9733 287.605 60.016C286.922 60.0587 286.096 60.08 285.125 60.08ZM289.349 49.232C289.018 49.232 288.736 49.12 288.501 48.896C288.277 48.672 288.165 48.3947 288.165 48.064C288.165 47.7333 288.277 47.4507 288.501 47.216C288.736 46.9813 289.018 46.864 289.349 46.864C289.669 46.864 289.941 46.9813 290.165 47.216C290.4 47.4507 290.517 47.7333 290.517 48.064C290.517 48.3947 290.4 48.672 290.165 48.896C289.941 49.12 289.669 49.232 289.349 49.232ZM296.691 57.84C297.171 57.84 297.539 57.7973 297.795 57.712C298.051 57.6267 298.227 57.5147 298.323 57.376C298.419 57.2373 298.467 57.088 298.467 56.928C298.467 56.672 298.392 56.3733 298.243 56.032C298.104 55.6907 297.928 55.3333 297.715 54.96C297.502 54.5867 297.278 54.2293 297.043 53.888C296.819 53.5467 296.616 53.248 296.435 52.992L298.339 51.728C298.798 52.3467 299.192 52.96 299.523 53.568C299.854 54.1653 300.12 54.72 300.323 55.232C300.536 55.744 300.686 56.1813 300.771 56.544C300.856 56.8853 300.984 57.152 301.155 57.344C301.336 57.5253 301.544 57.6533 301.779 57.728C302.014 57.8027 302.248 57.84 302.483 57.84C302.888 57.84 303.176 57.9467 303.347 58.16C303.528 58.3627 303.619 58.6187 303.619 58.928C303.619 59.2587 303.507 59.536 303.283 59.76C303.07 59.9733 302.75 60.08 302.323 60.08C301.854 60.08 301.443 60.016 301.091 59.888C300.739 59.76 300.44 59.5573 300.195 59.28C299.95 59.0027 299.742 58.6507 299.571 58.224L300.547 58.432C300.462 58.7307 300.264 59.008 299.955 59.264C299.656 59.5093 299.256 59.712 298.755 59.872C298.264 60.0213 297.683 60.096 297.011 60.096C296.691 60.096 296.334 60.0693 295.939 60.016C295.555 59.9627 295.171 59.8827 294.787 59.776C294.414 59.6693 294.072 59.5307 293.763 59.36L294.547 57.328C294.942 57.4987 295.32 57.6267 295.683 57.712C296.056 57.7973 296.392 57.84 296.691 57.84ZM302.344 60.08L302.504 57.84C302.994 57.84 303.346 57.792 303.56 57.696C303.773 57.5893 303.901 57.3973 303.944 57.12C303.986 56.832 303.997 56.416 303.976 55.872L303.688 48.288H305.944L306.264 56.032C306.285 56.6507 306.258 57.2107 306.184 57.712C306.12 58.2027 305.954 58.624 305.688 58.976C305.432 59.328 305.032 59.6 304.488 59.792C303.954 59.984 303.24 60.08 302.344 60.08ZM308.374 60L308.038 48.288H310.278L310.614 60H308.374Z" fill="#0A9BA5"/>
<line x1="273" y1="72.5" x2="312" y2="72.5" stroke="#0A9BA5" stroke-width="3"/>
</svg>
