<svg width="24" height="24" viewBox="0 0 24 24" fill="none" xmlns="http://www.w3.org/2000/svg">
<path fill-rule="evenodd" clip-rule="evenodd" d="M10.6363 1.63636C5.66577 1.63636 1.63636 5.66577 1.63636 10.6363C1.63636 15.6069 5.66577 19.6363 10.6363 19.6363C15.6069 19.6363 19.6363 15.6069 19.6363 10.6363C19.6363 5.66577 15.6069 1.63636 10.6363 1.63636ZM0 10.6363C0 4.76204 4.76204 0 10.6363 0C16.5106 0 21.2726 4.76204 21.2726 10.6363C21.2726 16.5106 16.5106 21.2726 10.6363 21.2726C4.76204 21.2726 0 16.5106 0 10.6363ZM20.6267 20.183C20.3741 20.1638 20.1637 20.3741 20.183 20.6267C20.1833 20.6281 20.1875 20.656 20.2086 20.7351C20.2334 20.828 20.2703 20.9513 20.3266 21.1392C20.3782 21.3116 20.4118 21.4232 20.4394 21.5062C20.4676 21.5911 20.4774 21.6073 20.4731 21.5994C20.5881 21.8142 20.863 21.8835 21.0661 21.749C21.0586 21.754 21.0749 21.7443 21.14 21.683C21.2037 21.623 21.2862 21.5406 21.4134 21.4134C21.5406 21.2862 21.623 21.2037 21.683 21.14C21.7338 21.086 21.7492 21.0656 21.7501 21.0645C21.8828 20.862 21.814 20.5893 21.6011 20.4741C21.5998 20.4735 21.5767 20.4628 21.5062 20.4394C21.4232 20.4118 21.3116 20.3782 21.1392 20.3266C20.9513 20.2703 20.828 20.2334 20.7351 20.2086C20.656 20.1875 20.6281 20.1833 20.6267 20.183ZM18.5523 20.7635C18.4485 19.5018 19.5018 18.4485 20.7635 18.5523C20.9816 18.5703 21.2455 18.6497 21.5303 18.7354C21.5563 18.7433 21.5825 18.7512 21.6089 18.7591C21.6327 18.7662 21.6564 18.7733 21.68 18.7803C21.9416 18.8583 22.1869 18.9315 22.3719 19.0306C23.4365 19.6006 23.7801 20.9627 23.1133 21.9696C22.9975 22.1445 22.8162 22.3253 22.623 22.5181C22.6056 22.5355 22.5881 22.5529 22.5705 22.5705C22.5529 22.5881 22.5354 22.6056 22.5181 22.623C22.3253 22.8163 22.1445 22.9975 21.9696 23.1133C20.9627 23.7801 19.6006 23.4365 19.0306 22.3719C18.9315 22.1869 18.8583 21.9416 18.7803 21.68C18.7733 21.6564 18.7662 21.6327 18.7591 21.6089C18.7512 21.5826 18.7433 21.5564 18.7355 21.5303C18.6497 21.2455 18.5703 20.9816 18.5523 20.7635Z" fill="#777D8C"/>
</svg>
